<?xml version="1.0" encoding="UTF-8"?>
<svg id="Calque_2" data-name="Calque 2" xmlns="http://www.w3.org/2000/svg" viewBox="0 0 425.2 78.03">
  <defs>
    <style>
      .cls-1 {
        fill: #fff;
        stroke-width: 0px;
      }
    </style>
  </defs>
  <g id="Mode_Isolation" data-name="Mode Isolation">
    <g>
      <path class="cls-1" d="M0,75.85V2.18h15.44v60.31h26.74v13.37H0Z"/>
      <path class="cls-1" d="M55.13,75.85V2.18h15.44v73.68h-15.44Z"/>
      <path class="cls-1" d="M85.18,39.07C85.18,15.03,97.92,0,118.34,0c16.17,0,27.67,10.47,30.15,27.56l-14.3,2.69c-1.76-10.57-7.56-16.89-15.85-16.89-10.88,0-17.72,9.74-17.72,25.7s7.67,25.49,19.9,25.49c9.84,0,17.2-7.46,18.96-19.69l14.51,2.38c-2.38,18.86-15.44,30.78-33.57,30.78-21.76,0-35.23-15.03-35.23-38.96Z"/>
      <path class="cls-1" d="M161.95,26.48c0-7.07,5.13-12.14,12.08-12.14s12.08,5.07,12.08,12.14-5.07,12.02-12.08,12.02-12.14-5.07-12.08-12.02ZM180.8,26.48c0-3.93-2.84-6.83-6.71-6.83s-6.83,2.9-6.83,6.83,2.9,6.7,6.83,6.7,6.71-2.78,6.71-6.7ZM175,59.46l-1.87-1.33,31.23-44.28,1.99,1.33-31.35,44.28ZM192.76,47.62c.06-7.07,5.13-12.14,12.08-12.14s12.08,5.07,12.08,12.14-5.07,12.02-12.08,12.02-12.08-5.07-12.08-12.02ZM211.61,47.62c0-3.93-2.84-6.83-6.71-6.83s-6.83,2.9-6.83,6.83,2.84,6.7,6.83,6.7,6.71-2.78,6.71-6.7Z"/>
      <path class="cls-1" d="M264.58,67.04l-3.21-12.64c-1.14-4.35-4.14-7.46-8.08-7.46h-9.22v28.91h-15.44V2.18h30.15c16.37,0,26.74,8.81,26.74,22.69,0,9.33-5.8,16.99-15.75,19.38v.1c3.83,1.66,5.7,4.87,6.74,9.12l2.38,9.74c.52,2.38,1.55,3.94,3.42,3.94,1.45,0,3.01-1.04,4.46-3.01l3.83,7.56c-3.32,3.73-8.29,5.91-13.37,5.91-6.84,0-11.09-4.25-12.64-10.57ZM244.06,35.96h13.47c7.56,0,12.54-4.25,12.54-10.88s-4.97-11.09-12.54-11.09h-13.47v21.97Z"/>
      <path class="cls-1" d="M302.4,75.85V2.18h19.07l26.32,55.23h.21V2.18h14.51v73.68h-19.17l-26.32-55.02h-.21v55.02h-14.4Z"/>
      <path class="cls-1" d="M379.39,75.85V2.18h44.77v12.64h-29.84v17.62h25.7v11.19h-25.7v19.69h30.88v12.54h-45.8Z"/>
    </g>
  </g>
</svg>