<?xml version="1.0" encoding="UTF-8"?>
<svg id="Calque_2" data-name="Calque 2" xmlns="http://www.w3.org/2000/svg" viewBox="0 0 220.89 353.11">
  <defs>
    <style>
      .cls-1 {
        fill: #fff7e7;
        stroke-width: 0px;
      }
    </style>
  </defs>
  <g id="Calque_1-2" data-name="Calque 1">
    <path class="cls-1" d="M220.04,197.25c-6.16-41.31-30.64-71.56-30.64-71.56l-27.26-42.53-3.38-5.28c-6.14-8.28-23.19-16.67-23.19-16.67l-3.11-16.82c-.73-3.97-2.61-7.63-5.39-10.55l-3.48-3.65L94.75,0l3.04,46.21.36.26-.33.22-.03-.48L41.57,4.54l26.1,35.44-12.2-3.21,19.02,24.87-9.54,6.12c-6.08,3.9-9.75,10.62-9.73,17.84v3.05c0,5.42-1.25,10.53-3.49,15.08-1.61,3.25-3.71,6.21-6.22,8.77-3.33,3.42-6.18,5.85-10.13,8.68-1.9,1.36-7.5,5.94-7.5,5.94-2.74,3.51-3.07,7.82-.67,11.56l16.98,26.5.08.13,35.36-22.9c3.91,7.89,6.1,16.79,6.1,26.19,0,.14,0,.29-.01.43-.1,14.64-5.52,28.01-14.41,38.29-1.39,1.61-2.86,3.14-4.41,4.57-1.31,1.23-2.68,2.4-4.1,3.49l-36.42,31.39-10.62,9.15-9.3,8.02c-5.87,5.06-7.97,13.23-5.28,20.49l3.64,9.58c4.3,11.31,10.73,21.69,18.95,30.57l26.41,28.54c-.6-2.45-1.02-4.96-1.24-7.53-.15-1.56-.22-3.14-.22-4.73,0-28.68,23.25-51.92,51.92-51.92,0,0,1.08.05,3.02.09.49.03.97.06,1.46.1,1.27.06,2.54.08,3.82.08,2.24,0,4.46-.08,6.67-.22,10.87-.27,26.35-1.26,42.05-4.29,40.83-7.88,68.53-46.3,62.39-87.43Z"/>
  </g>
</svg>