<svg width="4012" height="723" viewBox="0 0 4012 723" fill="none" xmlns="http://www.w3.org/2000/svg">
<g style="mix-blend-mode:hard-light" opacity="0.85" clip-path="url(#clip0_114_176)">
<path d="M680.576 271V187.288H701.312V251.8H740.864V271H680.576ZM752.826 271V187.288H773.562V271H752.826ZM831.021 272.664C804.909 272.664 786.477 254.232 786.477 229.144C786.477 204.056 804.909 185.624 831.021 185.624C853.421 185.624 870.317 199.192 874.541 219.032H852.653C849.325 210.456 841.517 204.824 831.021 204.824C816.813 204.824 807.469 215.064 807.469 229.144C807.469 243.224 816.813 253.464 831.021 253.464C841.517 253.464 849.325 247.832 852.653 239.256H874.541C870.317 259.096 853.421 272.664 831.021 272.664ZM927.146 272.664C901.034 272.664 882.602 254.232 882.602 229.144C882.602 204.056 901.034 185.624 927.146 185.624C953.258 185.624 971.69 204.056 971.69 229.144C971.69 254.232 953.258 272.664 927.146 272.664ZM927.146 253.464C941.354 253.464 950.698 243.224 950.698 229.144C950.698 215.064 941.354 204.824 927.146 204.824C912.938 204.824 903.594 215.064 903.594 229.144C903.594 243.224 912.938 253.464 927.146 253.464ZM984.576 271V187.288H1018.5C1040.64 187.288 1050.5 199.32 1050.5 215.96C1050.5 227.736 1045.5 237.336 1034.75 241.816L1053.57 271H1028.99L1014.14 244.76H1005.31V271H984.576ZM1005.31 225.56H1018.75C1027.07 225.56 1029.5 221.464 1029.5 215.96C1029.5 210.456 1027.07 206.488 1018.75 206.488H1005.31V225.56ZM1062.41 271V220.824C1062.41 199.192 1075.21 185.624 1098.25 185.624C1121.29 185.624 1134.09 199.192 1134.09 220.824V271H1113.35V220.824C1113.35 210.584 1108.49 204.824 1098.25 204.824C1088.01 204.824 1083.14 210.584 1083.14 220.824V271H1062.41ZM1149.33 271V187.288H1211.15V206.488H1170.06V220.184H1203.73V236.824H1170.06V251.8H1211.15V271H1149.33Z" fill="#927F28"/>
<path d="M915.576 567V483.288H936.312V547.8H975.864V567H915.576ZM987.826 567V483.288H1008.56V567H987.826ZM1066.02 568.664C1039.91 568.664 1021.48 550.232 1021.48 525.144C1021.48 500.056 1039.91 481.624 1066.02 481.624C1088.42 481.624 1105.32 495.192 1109.54 515.032H1087.65C1084.33 506.456 1076.52 500.824 1066.02 500.824C1051.81 500.824 1042.47 511.064 1042.47 525.144C1042.47 539.224 1051.81 549.464 1066.02 549.464C1076.52 549.464 1084.33 543.832 1087.65 535.256H1109.54C1105.32 555.096 1088.42 568.664 1066.02 568.664ZM1162.15 568.664C1136.03 568.664 1117.6 550.232 1117.6 525.144C1117.6 500.056 1136.03 481.624 1162.15 481.624C1188.26 481.624 1206.69 500.056 1206.69 525.144C1206.69 550.232 1188.26 568.664 1162.15 568.664ZM1162.15 549.464C1176.35 549.464 1185.7 539.224 1185.7 525.144C1185.7 511.064 1176.35 500.824 1162.15 500.824C1147.94 500.824 1138.59 511.064 1138.59 525.144C1138.59 539.224 1147.94 549.464 1162.15 549.464ZM1219.58 567V483.288H1253.5C1275.64 483.288 1285.5 495.32 1285.5 511.96C1285.5 523.736 1280.5 533.336 1269.75 537.816L1288.57 567H1263.99L1249.14 540.76H1240.31V567H1219.58ZM1240.31 521.56H1253.75C1262.07 521.56 1264.5 517.464 1264.5 511.96C1264.5 506.456 1262.07 502.488 1253.75 502.488H1240.31V521.56ZM1297.41 567V516.824C1297.41 495.192 1310.21 481.624 1333.25 481.624C1356.29 481.624 1369.09 495.192 1369.09 516.824V567H1348.35V516.824C1348.35 506.584 1343.49 500.824 1333.25 500.824C1323.01 500.824 1318.14 506.584 1318.14 516.824V567H1297.41ZM1384.33 567V483.288H1446.15V502.488H1405.06V516.184H1438.73V532.824H1405.06V547.8H1446.15V567H1384.33Z" fill="#927F28"/>
<path d="M1852.58 271V187.288H1873.31V251.8H1912.86V271H1852.58ZM1924.83 271V187.288H1945.56V271H1924.83ZM2003.02 272.664C1976.91 272.664 1958.48 254.232 1958.48 229.144C1958.48 204.056 1976.91 185.624 2003.02 185.624C2025.42 185.624 2042.32 199.192 2046.54 219.032H2024.65C2021.33 210.456 2013.52 204.824 2003.02 204.824C1988.81 204.824 1979.47 215.064 1979.47 229.144C1979.47 243.224 1988.81 253.464 2003.02 253.464C2013.52 253.464 2021.33 247.832 2024.65 239.256H2046.54C2042.32 259.096 2025.42 272.664 2003.02 272.664ZM2099.15 272.664C2073.03 272.664 2054.6 254.232 2054.6 229.144C2054.6 204.056 2073.03 185.624 2099.15 185.624C2125.26 185.624 2143.69 204.056 2143.69 229.144C2143.69 254.232 2125.26 272.664 2099.15 272.664ZM2099.15 253.464C2113.35 253.464 2122.7 243.224 2122.7 229.144C2122.7 215.064 2113.35 204.824 2099.15 204.824C2084.94 204.824 2075.59 215.064 2075.59 229.144C2075.59 243.224 2084.94 253.464 2099.15 253.464ZM2156.58 271V187.288H2190.5C2212.64 187.288 2222.5 199.32 2222.5 215.96C2222.5 227.736 2217.5 237.336 2206.75 241.816L2225.57 271H2200.99L2186.14 244.76H2177.31V271H2156.58ZM2177.31 225.56H2190.75C2199.07 225.56 2201.5 221.464 2201.5 215.96C2201.5 210.456 2199.07 206.488 2190.75 206.488H2177.31V225.56ZM2234.41 271V220.824C2234.41 199.192 2247.21 185.624 2270.25 185.624C2293.29 185.624 2306.09 199.192 2306.09 220.824V271H2285.35V220.824C2285.35 210.584 2280.49 204.824 2270.25 204.824C2260.01 204.824 2255.14 210.584 2255.14 220.824V271H2234.41ZM2321.33 271V187.288H2383.15V206.488H2342.06V220.184H2375.73V236.824H2342.06V251.8H2383.15V271H2321.33Z" fill="#927F28"/>
<path d="M2087.58 567V483.288H2108.31V547.8H2147.86V567H2087.58ZM2159.83 567V483.288H2180.56V567H2159.83ZM2238.02 568.664C2211.91 568.664 2193.48 550.232 2193.48 525.144C2193.48 500.056 2211.91 481.624 2238.02 481.624C2260.42 481.624 2277.32 495.192 2281.54 515.032H2259.65C2256.33 506.456 2248.52 500.824 2238.02 500.824C2223.81 500.824 2214.47 511.064 2214.47 525.144C2214.47 539.224 2223.81 549.464 2238.02 549.464C2248.52 549.464 2256.33 543.832 2259.65 535.256H2281.54C2277.32 555.096 2260.42 568.664 2238.02 568.664ZM2334.15 568.664C2308.03 568.664 2289.6 550.232 2289.6 525.144C2289.6 500.056 2308.03 481.624 2334.15 481.624C2360.26 481.624 2378.69 500.056 2378.69 525.144C2378.69 550.232 2360.26 568.664 2334.15 568.664ZM2334.15 549.464C2348.35 549.464 2357.7 539.224 2357.7 525.144C2357.7 511.064 2348.35 500.824 2334.15 500.824C2319.94 500.824 2310.59 511.064 2310.59 525.144C2310.59 539.224 2319.94 549.464 2334.15 549.464ZM2391.58 567V483.288H2425.5C2447.64 483.288 2457.5 495.32 2457.5 511.96C2457.5 523.736 2452.5 533.336 2441.75 537.816L2460.57 567H2435.99L2421.14 540.76H2412.31V567H2391.58ZM2412.31 521.56H2425.75C2434.07 521.56 2436.5 517.464 2436.5 511.96C2436.5 506.456 2434.07 502.488 2425.75 502.488H2412.31V521.56ZM2469.41 567V516.824C2469.41 495.192 2482.21 481.624 2505.25 481.624C2528.29 481.624 2541.09 495.192 2541.09 516.824V567H2520.35V516.824C2520.35 506.584 2515.49 500.824 2505.25 500.824C2495.01 500.824 2490.14 506.584 2490.14 516.824V567H2469.41ZM2556.33 567V483.288H2618.15V502.488H2577.06V516.184H2610.73V532.824H2577.06V547.8H2618.15V567H2556.33Z" fill="#927F28"/>
<path d="M681.576 256V172.288H702.312V236.8H741.864V256H681.576ZM753.826 256V172.288H774.562V256H753.826ZM832.021 257.664C805.909 257.664 787.477 239.232 787.477 214.144C787.477 189.056 805.909 170.624 832.021 170.624C854.421 170.624 871.317 184.192 875.541 204.032H853.653C850.325 195.456 842.517 189.824 832.021 189.824C817.813 189.824 808.469 200.064 808.469 214.144C808.469 228.224 817.813 238.464 832.021 238.464C842.517 238.464 850.325 232.832 853.653 224.256H875.541C871.317 244.096 854.421 257.664 832.021 257.664ZM928.146 257.664C902.034 257.664 883.602 239.232 883.602 214.144C883.602 189.056 902.034 170.624 928.146 170.624C954.258 170.624 972.69 189.056 972.69 214.144C972.69 239.232 954.258 257.664 928.146 257.664ZM928.146 238.464C942.354 238.464 951.698 228.224 951.698 214.144C951.698 200.064 942.354 189.824 928.146 189.824C913.938 189.824 904.594 200.064 904.594 214.144C904.594 228.224 913.938 238.464 928.146 238.464ZM985.576 256V172.288H1019.5C1041.64 172.288 1051.5 184.32 1051.5 200.96C1051.5 212.736 1046.5 222.336 1035.75 226.816L1054.57 256H1029.99L1015.14 229.76H1006.31V256H985.576ZM1006.31 210.56H1019.75C1028.07 210.56 1030.5 206.464 1030.5 200.96C1030.5 195.456 1028.07 191.488 1019.75 191.488H1006.31V210.56ZM1063.41 256V205.824C1063.41 184.192 1076.21 170.624 1099.25 170.624C1122.29 170.624 1135.09 184.192 1135.09 205.824V256H1114.35V205.824C1114.35 195.584 1109.49 189.824 1099.25 189.824C1089.01 189.824 1084.14 195.584 1084.14 205.824V256H1063.41ZM1150.33 256V172.288H1212.15V191.488H1171.06V205.184H1204.73V221.824H1171.06V236.8H1212.15V256H1150.33Z" fill="#BAAA41"/>
<path d="M916.576 552V468.288H937.312V532.8H976.864V552H916.576ZM988.826 552V468.288H1009.56V552H988.826ZM1067.02 553.664C1040.91 553.664 1022.48 535.232 1022.48 510.144C1022.48 485.056 1040.91 466.624 1067.02 466.624C1089.42 466.624 1106.32 480.192 1110.54 500.032H1088.65C1085.33 491.456 1077.52 485.824 1067.02 485.824C1052.81 485.824 1043.47 496.064 1043.47 510.144C1043.47 524.224 1052.81 534.464 1067.02 534.464C1077.52 534.464 1085.33 528.832 1088.65 520.256H1110.54C1106.32 540.096 1089.42 553.664 1067.02 553.664ZM1163.15 553.664C1137.03 553.664 1118.6 535.232 1118.6 510.144C1118.6 485.056 1137.03 466.624 1163.15 466.624C1189.26 466.624 1207.69 485.056 1207.69 510.144C1207.69 535.232 1189.26 553.664 1163.15 553.664ZM1163.15 534.464C1177.35 534.464 1186.7 524.224 1186.7 510.144C1186.7 496.064 1177.35 485.824 1163.15 485.824C1148.94 485.824 1139.59 496.064 1139.59 510.144C1139.59 524.224 1148.94 534.464 1163.15 534.464ZM1220.58 552V468.288H1254.5C1276.64 468.288 1286.5 480.32 1286.5 496.96C1286.5 508.736 1281.5 518.336 1270.75 522.816L1289.57 552H1264.99L1250.14 525.76H1241.31V552H1220.58ZM1241.31 506.56H1254.75C1263.07 506.56 1265.5 502.464 1265.5 496.96C1265.5 491.456 1263.07 487.488 1254.75 487.488H1241.31V506.56ZM1298.41 552V501.824C1298.41 480.192 1311.21 466.624 1334.25 466.624C1357.29 466.624 1370.09 480.192 1370.09 501.824V552H1349.35V501.824C1349.35 491.584 1344.49 485.824 1334.25 485.824C1324.01 485.824 1319.14 491.584 1319.14 501.824V552H1298.41ZM1385.33 552V468.288H1447.15V487.488H1406.06V501.184H1439.73V517.824H1406.06V532.8H1447.15V552H1385.33Z" fill="#BAAA41"/>
<path d="M1853.58 256V172.288H1874.31V236.8H1913.86V256H1853.58ZM1925.83 256V172.288H1946.56V256H1925.83ZM2004.02 257.664C1977.91 257.664 1959.48 239.232 1959.48 214.144C1959.48 189.056 1977.91 170.624 2004.02 170.624C2026.42 170.624 2043.32 184.192 2047.54 204.032H2025.65C2022.33 195.456 2014.52 189.824 2004.02 189.824C1989.81 189.824 1980.47 200.064 1980.47 214.144C1980.47 228.224 1989.81 238.464 2004.02 238.464C2014.52 238.464 2022.33 232.832 2025.65 224.256H2047.54C2043.32 244.096 2026.42 257.664 2004.02 257.664ZM2100.15 257.664C2074.03 257.664 2055.6 239.232 2055.6 214.144C2055.6 189.056 2074.03 170.624 2100.15 170.624C2126.26 170.624 2144.69 189.056 2144.69 214.144C2144.69 239.232 2126.26 257.664 2100.15 257.664ZM2100.15 238.464C2114.35 238.464 2123.7 228.224 2123.7 214.144C2123.7 200.064 2114.35 189.824 2100.15 189.824C2085.94 189.824 2076.59 200.064 2076.59 214.144C2076.59 228.224 2085.94 238.464 2100.15 238.464ZM2157.58 256V172.288H2191.5C2213.64 172.288 2223.5 184.32 2223.5 200.96C2223.5 212.736 2218.5 222.336 2207.75 226.816L2226.57 256H2201.99L2187.14 229.76H2178.31V256H2157.58ZM2178.31 210.56H2191.75C2200.07 210.56 2202.5 206.464 2202.5 200.96C2202.5 195.456 2200.07 191.488 2191.75 191.488H2178.31V210.56ZM2235.41 256V205.824C2235.41 184.192 2248.21 170.624 2271.25 170.624C2294.29 170.624 2307.09 184.192 2307.09 205.824V256H2286.35V205.824C2286.35 195.584 2281.49 189.824 2271.25 189.824C2261.01 189.824 2256.14 195.584 2256.14 205.824V256H2235.41ZM2322.33 256V172.288H2384.15V191.488H2343.06V205.184H2376.73V221.824H2343.06V236.8H2384.15V256H2322.33Z" fill="#BAAA41"/>
<path d="M2088.58 552V468.288H2109.31V532.8H2148.86V552H2088.58ZM2160.83 552V468.288H2181.56V552H2160.83ZM2239.02 553.664C2212.91 553.664 2194.48 535.232 2194.48 510.144C2194.48 485.056 2212.91 466.624 2239.02 466.624C2261.42 466.624 2278.32 480.192 2282.54 500.032H2260.65C2257.33 491.456 2249.52 485.824 2239.02 485.824C2224.81 485.824 2215.47 496.064 2215.47 510.144C2215.47 524.224 2224.81 534.464 2239.02 534.464C2249.52 534.464 2257.33 528.832 2260.65 520.256H2282.54C2278.32 540.096 2261.42 553.664 2239.02 553.664ZM2335.15 553.664C2309.03 553.664 2290.6 535.232 2290.6 510.144C2290.6 485.056 2309.03 466.624 2335.15 466.624C2361.26 466.624 2379.69 485.056 2379.69 510.144C2379.69 535.232 2361.26 553.664 2335.15 553.664ZM2335.15 534.464C2349.35 534.464 2358.7 524.224 2358.7 510.144C2358.7 496.064 2349.35 485.824 2335.15 485.824C2320.94 485.824 2311.59 496.064 2311.59 510.144C2311.59 524.224 2320.94 534.464 2335.15 534.464ZM2392.58 552V468.288H2426.5C2448.64 468.288 2458.5 480.32 2458.5 496.96C2458.5 508.736 2453.5 518.336 2442.75 522.816L2461.57 552H2436.99L2422.14 525.76H2413.31V552H2392.58ZM2413.31 506.56H2426.75C2435.07 506.56 2437.5 502.464 2437.5 496.96C2437.5 491.456 2435.07 487.488 2426.75 487.488H2413.31V506.56ZM2470.41 552V501.824C2470.41 480.192 2483.21 466.624 2506.25 466.624C2529.29 466.624 2542.09 480.192 2542.09 501.824V552H2521.35V501.824C2521.35 491.584 2516.49 485.824 2506.25 485.824C2496.01 485.824 2491.14 491.584 2491.14 501.824V552H2470.41ZM2557.33 552V468.288H2619.15V487.488H2578.06V501.184H2611.73V517.824H2578.06V532.8H2619.15V552H2557.33Z" fill="#BAAA41"/>
<path d="M1272.58 264V180.288H1293.31V244.8H1332.86V264H1272.58ZM1344.83 264V180.288H1365.56V264H1344.83ZM1423.02 265.664C1396.91 265.664 1378.48 247.232 1378.48 222.144C1378.48 197.056 1396.91 178.624 1423.02 178.624C1445.42 178.624 1462.32 192.192 1466.54 212.032H1444.65C1441.33 203.456 1433.52 197.824 1423.02 197.824C1408.81 197.824 1399.47 208.064 1399.47 222.144C1399.47 236.224 1408.81 246.464 1423.02 246.464C1433.52 246.464 1441.33 240.832 1444.65 232.256H1466.54C1462.32 252.096 1445.42 265.664 1423.02 265.664ZM1519.15 265.664C1493.03 265.664 1474.6 247.232 1474.6 222.144C1474.6 197.056 1493.03 178.624 1519.15 178.624C1545.26 178.624 1563.69 197.056 1563.69 222.144C1563.69 247.232 1545.26 265.664 1519.15 265.664ZM1519.15 246.464C1533.35 246.464 1542.7 236.224 1542.7 222.144C1542.7 208.064 1533.35 197.824 1519.15 197.824C1504.94 197.824 1495.59 208.064 1495.59 222.144C1495.59 236.224 1504.94 246.464 1519.15 246.464ZM1576.58 264V180.288H1610.5C1632.64 180.288 1642.5 192.32 1642.5 208.96C1642.5 220.736 1637.5 230.336 1626.75 234.816L1645.57 264H1620.99L1606.14 237.76H1597.31V264H1576.58ZM1597.31 218.56H1610.75C1619.07 218.56 1621.5 214.464 1621.5 208.96C1621.5 203.456 1619.07 199.488 1610.75 199.488H1597.31V218.56ZM1654.41 264V213.824C1654.41 192.192 1667.21 178.624 1690.25 178.624C1713.29 178.624 1726.09 192.192 1726.09 213.824V264H1705.35V213.824C1705.35 203.584 1700.49 197.824 1690.25 197.824C1680.01 197.824 1675.14 203.584 1675.14 213.824V264H1654.41ZM1741.33 264V180.288H1803.15V199.488H1762.06V213.184H1795.73V229.824H1762.06V244.8H1803.15V264H1741.33Z" fill="#C04A84"/>
<path d="M1507.58 560V476.288H1528.31V540.8H1567.86V560H1507.58ZM1579.83 560V476.288H1600.56V560H1579.83ZM1658.02 561.664C1631.91 561.664 1613.48 543.232 1613.48 518.144C1613.48 493.056 1631.91 474.624 1658.02 474.624C1680.42 474.624 1697.32 488.192 1701.54 508.032H1679.65C1676.33 499.456 1668.52 493.824 1658.02 493.824C1643.81 493.824 1634.47 504.064 1634.47 518.144C1634.47 532.224 1643.81 542.464 1658.02 542.464C1668.52 542.464 1676.33 536.832 1679.65 528.256H1701.54C1697.32 548.096 1680.42 561.664 1658.02 561.664ZM1754.15 561.664C1728.03 561.664 1709.6 543.232 1709.6 518.144C1709.6 493.056 1728.03 474.624 1754.15 474.624C1780.26 474.624 1798.69 493.056 1798.69 518.144C1798.69 543.232 1780.26 561.664 1754.15 561.664ZM1754.15 542.464C1768.35 542.464 1777.7 532.224 1777.7 518.144C1777.7 504.064 1768.35 493.824 1754.15 493.824C1739.94 493.824 1730.59 504.064 1730.59 518.144C1730.59 532.224 1739.94 542.464 1754.15 542.464ZM1811.58 560V476.288H1845.5C1867.64 476.288 1877.5 488.32 1877.5 504.96C1877.5 516.736 1872.5 526.336 1861.75 530.816L1880.57 560H1855.99L1841.14 533.76H1832.31V560H1811.58ZM1832.31 514.56H1845.75C1854.07 514.56 1856.5 510.464 1856.5 504.96C1856.5 499.456 1854.07 495.488 1845.75 495.488H1832.31V514.56ZM1889.41 560V509.824C1889.41 488.192 1902.21 474.624 1925.25 474.624C1948.29 474.624 1961.09 488.192 1961.09 509.824V560H1940.35V509.824C1940.35 499.584 1935.49 493.824 1925.25 493.824C1915.01 493.824 1910.14 499.584 1910.14 509.824V560H1889.41ZM1976.33 560V476.288H2038.15V495.488H1997.06V509.184H2030.73V525.824H1997.06V540.8H2038.15V560H1976.33Z" fill="#C04A84"/>
<path d="M2444.58 264V180.288H2465.31V244.8H2504.86V264H2444.58ZM2516.83 264V180.288H2537.56V264H2516.83ZM2595.02 265.664C2568.91 265.664 2550.48 247.232 2550.48 222.144C2550.48 197.056 2568.91 178.624 2595.02 178.624C2617.42 178.624 2634.32 192.192 2638.54 212.032H2616.65C2613.33 203.456 2605.52 197.824 2595.02 197.824C2580.81 197.824 2571.47 208.064 2571.47 222.144C2571.47 236.224 2580.81 246.464 2595.02 246.464C2605.52 246.464 2613.33 240.832 2616.65 232.256H2638.54C2634.32 252.096 2617.42 265.664 2595.02 265.664ZM2691.15 265.664C2665.03 265.664 2646.6 247.232 2646.6 222.144C2646.6 197.056 2665.03 178.624 2691.15 178.624C2717.26 178.624 2735.69 197.056 2735.69 222.144C2735.69 247.232 2717.26 265.664 2691.15 265.664ZM2691.15 246.464C2705.35 246.464 2714.7 236.224 2714.7 222.144C2714.7 208.064 2705.35 197.824 2691.15 197.824C2676.94 197.824 2667.59 208.064 2667.59 222.144C2667.59 236.224 2676.94 246.464 2691.15 246.464ZM2748.58 264V180.288H2782.5C2804.64 180.288 2814.5 192.32 2814.5 208.96C2814.5 220.736 2809.5 230.336 2798.75 234.816L2817.57 264H2792.99L2778.14 237.76H2769.31V264H2748.58ZM2769.31 218.56H2782.75C2791.07 218.56 2793.5 214.464 2793.5 208.96C2793.5 203.456 2791.07 199.488 2782.75 199.488H2769.31V218.56ZM2826.41 264V213.824C2826.41 192.192 2839.21 178.624 2862.25 178.624C2885.29 178.624 2898.09 192.192 2898.09 213.824V264H2877.35V213.824C2877.35 203.584 2872.49 197.824 2862.25 197.824C2852.01 197.824 2847.14 203.584 2847.14 213.824V264H2826.41ZM2913.33 264V180.288H2975.15V199.488H2934.06V213.184H2967.73V229.824H2934.06V244.8H2975.15V264H2913.33Z" fill="#C04A84"/>
<path d="M2679.58 560V476.288H2700.31V540.8H2739.86V560H2679.58ZM2751.83 560V476.288H2772.56V560H2751.83ZM2830.02 561.664C2803.91 561.664 2785.48 543.232 2785.48 518.144C2785.48 493.056 2803.91 474.624 2830.02 474.624C2852.42 474.624 2869.32 488.192 2873.54 508.032H2851.65C2848.33 499.456 2840.52 493.824 2830.02 493.824C2815.81 493.824 2806.47 504.064 2806.47 518.144C2806.47 532.224 2815.81 542.464 2830.02 542.464C2840.52 542.464 2848.33 536.832 2851.65 528.256H2873.54C2869.32 548.096 2852.42 561.664 2830.02 561.664ZM2926.15 561.664C2900.03 561.664 2881.6 543.232 2881.6 518.144C2881.6 493.056 2900.03 474.624 2926.15 474.624C2952.26 474.624 2970.69 493.056 2970.69 518.144C2970.69 543.232 2952.26 561.664 2926.15 561.664ZM2926.15 542.464C2940.35 542.464 2949.7 532.224 2949.7 518.144C2949.7 504.064 2940.35 493.824 2926.15 493.824C2911.94 493.824 2902.59 504.064 2902.59 518.144C2902.59 532.224 2911.94 542.464 2926.15 542.464ZM2983.58 560V476.288H3017.5C3039.64 476.288 3049.5 488.32 3049.5 504.96C3049.5 516.736 3044.5 526.336 3033.75 530.816L3052.57 560H3027.99L3013.14 533.76H3004.31V560H2983.58ZM3004.31 514.56H3017.75C3026.07 514.56 3028.5 510.464 3028.5 504.96C3028.5 499.456 3026.07 495.488 3017.75 495.488H3004.31V514.56ZM3061.41 560V509.824C3061.41 488.192 3074.21 474.624 3097.25 474.624C3120.29 474.624 3133.09 488.192 3133.09 509.824V560H3112.35V509.824C3112.35 499.584 3107.49 493.824 3097.25 493.824C3087.01 493.824 3082.14 499.584 3082.14 509.824V560H3061.41ZM3148.33 560V476.288H3210.15V495.488H3169.06V509.184H3202.73V525.824H3169.06V540.8H3210.15V560H3148.33Z" fill="#C04A84"/>
<path d="M88.576 264V180.288H109.312V244.8H148.864V264H88.576ZM160.826 264V180.288H181.562V264H160.826ZM239.021 265.664C212.909 265.664 194.477 247.232 194.477 222.144C194.477 197.056 212.909 178.624 239.021 178.624C261.421 178.624 278.317 192.192 282.541 212.032H260.653C257.325 203.456 249.517 197.824 239.021 197.824C224.813 197.824 215.469 208.064 215.469 222.144C215.469 236.224 224.813 246.464 239.021 246.464C249.517 246.464 257.325 240.832 260.653 232.256H282.541C278.317 252.096 261.421 265.664 239.021 265.664ZM335.146 265.664C309.034 265.664 290.602 247.232 290.602 222.144C290.602 197.056 309.034 178.624 335.146 178.624C361.258 178.624 379.69 197.056 379.69 222.144C379.69 247.232 361.258 265.664 335.146 265.664ZM335.146 246.464C349.354 246.464 358.698 236.224 358.698 222.144C358.698 208.064 349.354 197.824 335.146 197.824C320.938 197.824 311.594 208.064 311.594 222.144C311.594 236.224 320.938 246.464 335.146 246.464ZM392.576 264V180.288H426.496C448.64 180.288 458.496 192.32 458.496 208.96C458.496 220.736 453.504 230.336 442.752 234.816L461.568 264H436.992L422.144 237.76H413.312V264H392.576ZM413.312 218.56H426.752C435.072 218.56 437.504 214.464 437.504 208.96C437.504 203.456 435.072 199.488 426.752 199.488H413.312V218.56ZM470.406 264V213.824C470.406 192.192 483.206 178.624 506.246 178.624C529.286 178.624 542.086 192.192 542.086 213.824V264H521.35V213.824C521.35 203.584 516.486 197.824 506.246 197.824C496.006 197.824 491.142 203.584 491.142 213.824V264H470.406ZM557.326 264V180.288H619.15V199.488H578.062V213.184H611.726V229.824H578.062V244.8H619.15V264H557.326Z" fill="#C04A84"/>
<path d="M323.576 560V476.288H344.312V540.8H383.864V560H323.576ZM395.826 560V476.288H416.562V560H395.826ZM474.021 561.664C447.909 561.664 429.477 543.232 429.477 518.144C429.477 493.056 447.909 474.624 474.021 474.624C496.421 474.624 513.317 488.192 517.541 508.032H495.653C492.325 499.456 484.517 493.824 474.021 493.824C459.813 493.824 450.469 504.064 450.469 518.144C450.469 532.224 459.813 542.464 474.021 542.464C484.517 542.464 492.325 536.832 495.653 528.256H517.541C513.317 548.096 496.421 561.664 474.021 561.664ZM570.146 561.664C544.034 561.664 525.602 543.232 525.602 518.144C525.602 493.056 544.034 474.624 570.146 474.624C596.258 474.624 614.69 493.056 614.69 518.144C614.69 543.232 596.258 561.664 570.146 561.664ZM570.146 542.464C584.354 542.464 593.698 532.224 593.698 518.144C593.698 504.064 584.354 493.824 570.146 493.824C555.938 493.824 546.594 504.064 546.594 518.144C546.594 532.224 555.938 542.464 570.146 542.464ZM627.576 560V476.288H661.496C683.64 476.288 693.496 488.32 693.496 504.96C693.496 516.736 688.504 526.336 677.752 530.816L696.568 560H671.992L657.144 533.76H648.312V560H627.576ZM648.312 514.56H661.752C670.072 514.56 672.504 510.464 672.504 504.96C672.504 499.456 670.072 495.488 661.752 495.488H648.312V514.56ZM705.406 560V509.824C705.406 488.192 718.206 474.624 741.246 474.624C764.286 474.624 777.086 488.192 777.086 509.824V560H756.35V509.824C756.35 499.584 751.486 493.824 741.246 493.824C731.006 493.824 726.142 499.584 726.142 509.824V560H705.406ZM792.326 560V476.288H854.15V495.488H813.062V509.184H846.726V525.824H813.062V540.8H854.15V560H792.326Z" fill="#C04A84"/>
<path d="M1273.58 249V165.288H1294.31V229.8H1333.86V249H1273.58ZM1345.83 249V165.288H1366.56V249H1345.83ZM1424.02 250.664C1397.91 250.664 1379.48 232.232 1379.48 207.144C1379.48 182.056 1397.91 163.624 1424.02 163.624C1446.42 163.624 1463.32 177.192 1467.54 197.032H1445.65C1442.33 188.456 1434.52 182.824 1424.02 182.824C1409.81 182.824 1400.47 193.064 1400.47 207.144C1400.47 221.224 1409.81 231.464 1424.02 231.464C1434.52 231.464 1442.33 225.832 1445.65 217.256H1467.54C1463.32 237.096 1446.42 250.664 1424.02 250.664ZM1520.15 250.664C1494.03 250.664 1475.6 232.232 1475.6 207.144C1475.6 182.056 1494.03 163.624 1520.15 163.624C1546.26 163.624 1564.69 182.056 1564.69 207.144C1564.69 232.232 1546.26 250.664 1520.15 250.664ZM1520.15 231.464C1534.35 231.464 1543.7 221.224 1543.7 207.144C1543.7 193.064 1534.35 182.824 1520.15 182.824C1505.94 182.824 1496.59 193.064 1496.59 207.144C1496.59 221.224 1505.94 231.464 1520.15 231.464ZM1577.58 249V165.288H1611.5C1633.64 165.288 1643.5 177.32 1643.5 193.96C1643.5 205.736 1638.5 215.336 1627.75 219.816L1646.57 249H1621.99L1607.14 222.76H1598.31V249H1577.58ZM1598.31 203.56H1611.75C1620.07 203.56 1622.5 199.464 1622.5 193.96C1622.5 188.456 1620.07 184.488 1611.75 184.488H1598.31V203.56ZM1655.41 249V198.824C1655.41 177.192 1668.21 163.624 1691.25 163.624C1714.29 163.624 1727.09 177.192 1727.09 198.824V249H1706.35V198.824C1706.35 188.584 1701.49 182.824 1691.25 182.824C1681.01 182.824 1676.14 188.584 1676.14 198.824V249H1655.41ZM1742.33 249V165.288H1804.15V184.488H1763.06V198.184H1796.73V214.824H1763.06V229.8H1804.15V249H1742.33Z" fill="#E471A8"/>
<path d="M1508.58 545V461.288H1529.31V525.8H1568.86V545H1508.58ZM1580.83 545V461.288H1601.56V545H1580.83ZM1659.02 546.664C1632.91 546.664 1614.48 528.232 1614.48 503.144C1614.48 478.056 1632.91 459.624 1659.02 459.624C1681.42 459.624 1698.32 473.192 1702.54 493.032H1680.65C1677.33 484.456 1669.52 478.824 1659.02 478.824C1644.81 478.824 1635.47 489.064 1635.47 503.144C1635.47 517.224 1644.81 527.464 1659.02 527.464C1669.52 527.464 1677.33 521.832 1680.65 513.256H1702.54C1698.32 533.096 1681.42 546.664 1659.02 546.664ZM1755.15 546.664C1729.03 546.664 1710.6 528.232 1710.6 503.144C1710.6 478.056 1729.03 459.624 1755.15 459.624C1781.26 459.624 1799.69 478.056 1799.69 503.144C1799.69 528.232 1781.26 546.664 1755.15 546.664ZM1755.15 527.464C1769.35 527.464 1778.7 517.224 1778.7 503.144C1778.7 489.064 1769.35 478.824 1755.15 478.824C1740.94 478.824 1731.59 489.064 1731.59 503.144C1731.59 517.224 1740.94 527.464 1755.15 527.464ZM1812.58 545V461.288H1846.5C1868.64 461.288 1878.5 473.32 1878.5 489.96C1878.5 501.736 1873.5 511.336 1862.75 515.816L1881.57 545H1856.99L1842.14 518.76H1833.31V545H1812.58ZM1833.31 499.56H1846.75C1855.07 499.56 1857.5 495.464 1857.5 489.96C1857.5 484.456 1855.07 480.488 1846.75 480.488H1833.31V499.56ZM1890.41 545V494.824C1890.41 473.192 1903.21 459.624 1926.25 459.624C1949.29 459.624 1962.09 473.192 1962.09 494.824V545H1941.35V494.824C1941.35 484.584 1936.49 478.824 1926.25 478.824C1916.01 478.824 1911.14 484.584 1911.14 494.824V545H1890.41ZM1977.33 545V461.288H2039.15V480.488H1998.06V494.184H2031.73V510.824H1998.06V525.8H2039.15V545H1977.33Z" fill="#E471A8"/>
<path d="M2445.58 249V165.288H2466.31V229.8H2505.86V249H2445.58ZM2517.83 249V165.288H2538.56V249H2517.83ZM2596.02 250.664C2569.91 250.664 2551.48 232.232 2551.48 207.144C2551.48 182.056 2569.91 163.624 2596.02 163.624C2618.42 163.624 2635.32 177.192 2639.54 197.032H2617.65C2614.33 188.456 2606.52 182.824 2596.02 182.824C2581.81 182.824 2572.47 193.064 2572.47 207.144C2572.47 221.224 2581.81 231.464 2596.02 231.464C2606.52 231.464 2614.33 225.832 2617.65 217.256H2639.54C2635.32 237.096 2618.42 250.664 2596.02 250.664ZM2692.15 250.664C2666.03 250.664 2647.6 232.232 2647.6 207.144C2647.6 182.056 2666.03 163.624 2692.15 163.624C2718.26 163.624 2736.69 182.056 2736.69 207.144C2736.69 232.232 2718.26 250.664 2692.15 250.664ZM2692.15 231.464C2706.35 231.464 2715.7 221.224 2715.7 207.144C2715.7 193.064 2706.35 182.824 2692.15 182.824C2677.94 182.824 2668.59 193.064 2668.59 207.144C2668.59 221.224 2677.94 231.464 2692.15 231.464ZM2749.58 249V165.288H2783.5C2805.64 165.288 2815.5 177.32 2815.5 193.96C2815.5 205.736 2810.5 215.336 2799.75 219.816L2818.57 249H2793.99L2779.14 222.76H2770.31V249H2749.58ZM2770.31 203.56H2783.75C2792.07 203.56 2794.5 199.464 2794.5 193.96C2794.5 188.456 2792.07 184.488 2783.75 184.488H2770.31V203.56ZM2827.41 249V198.824C2827.41 177.192 2840.21 163.624 2863.25 163.624C2886.29 163.624 2899.09 177.192 2899.09 198.824V249H2878.35V198.824C2878.35 188.584 2873.49 182.824 2863.25 182.824C2853.01 182.824 2848.14 188.584 2848.14 198.824V249H2827.41ZM2914.33 249V165.288H2976.15V184.488H2935.06V198.184H2968.73V214.824H2935.06V229.8H2976.15V249H2914.33Z" fill="#E471A8"/>
<path d="M2680.58 545V461.288H2701.31V525.8H2740.86V545H2680.58ZM2752.83 545V461.288H2773.56V545H2752.83ZM2831.02 546.664C2804.91 546.664 2786.48 528.232 2786.48 503.144C2786.48 478.056 2804.91 459.624 2831.02 459.624C2853.42 459.624 2870.32 473.192 2874.54 493.032H2852.65C2849.33 484.456 2841.52 478.824 2831.02 478.824C2816.81 478.824 2807.47 489.064 2807.47 503.144C2807.47 517.224 2816.81 527.464 2831.02 527.464C2841.52 527.464 2849.33 521.832 2852.65 513.256H2874.54C2870.32 533.096 2853.42 546.664 2831.02 546.664ZM2927.15 546.664C2901.03 546.664 2882.6 528.232 2882.6 503.144C2882.6 478.056 2901.03 459.624 2927.15 459.624C2953.26 459.624 2971.69 478.056 2971.69 503.144C2971.69 528.232 2953.26 546.664 2927.15 546.664ZM2927.15 527.464C2941.35 527.464 2950.7 517.224 2950.7 503.144C2950.7 489.064 2941.35 478.824 2927.15 478.824C2912.94 478.824 2903.59 489.064 2903.59 503.144C2903.59 517.224 2912.94 527.464 2927.15 527.464ZM2984.58 545V461.288H3018.5C3040.64 461.288 3050.5 473.32 3050.5 489.96C3050.5 501.736 3045.5 511.336 3034.75 515.816L3053.57 545H3028.99L3014.14 518.76H3005.31V545H2984.58ZM3005.31 499.56H3018.75C3027.07 499.56 3029.5 495.464 3029.5 489.96C3029.5 484.456 3027.07 480.488 3018.75 480.488H3005.31V499.56ZM3062.41 545V494.824C3062.41 473.192 3075.21 459.624 3098.25 459.624C3121.29 459.624 3134.09 473.192 3134.09 494.824V545H3113.35V494.824C3113.35 484.584 3108.49 478.824 3098.25 478.824C3088.01 478.824 3083.14 484.584 3083.14 494.824V545H3062.41ZM3149.33 545V461.288H3211.15V480.488H3170.06V494.184H3203.73V510.824H3170.06V525.8H3211.15V545H3149.33Z" fill="#E471A8"/>
<path d="M89.576 249V165.288H110.312V229.8H149.864V249H89.576ZM161.826 249V165.288H182.562V249H161.826ZM240.021 250.664C213.909 250.664 195.477 232.232 195.477 207.144C195.477 182.056 213.909 163.624 240.021 163.624C262.421 163.624 279.317 177.192 283.541 197.032H261.653C258.325 188.456 250.517 182.824 240.021 182.824C225.813 182.824 216.469 193.064 216.469 207.144C216.469 221.224 225.813 231.464 240.021 231.464C250.517 231.464 258.325 225.832 261.653 217.256H283.541C279.317 237.096 262.421 250.664 240.021 250.664ZM336.146 250.664C310.034 250.664 291.602 232.232 291.602 207.144C291.602 182.056 310.034 163.624 336.146 163.624C362.258 163.624 380.69 182.056 380.69 207.144C380.69 232.232 362.258 250.664 336.146 250.664ZM336.146 231.464C350.354 231.464 359.698 221.224 359.698 207.144C359.698 193.064 350.354 182.824 336.146 182.824C321.938 182.824 312.594 193.064 312.594 207.144C312.594 221.224 321.938 231.464 336.146 231.464ZM393.576 249V165.288H427.496C449.64 165.288 459.496 177.32 459.496 193.96C459.496 205.736 454.504 215.336 443.752 219.816L462.568 249H437.992L423.144 222.76H414.312V249H393.576ZM414.312 203.56H427.752C436.072 203.56 438.504 199.464 438.504 193.96C438.504 188.456 436.072 184.488 427.752 184.488H414.312V203.56ZM471.406 249V198.824C471.406 177.192 484.206 163.624 507.246 163.624C530.286 163.624 543.086 177.192 543.086 198.824V249H522.35V198.824C522.35 188.584 517.486 182.824 507.246 182.824C497.006 182.824 492.142 188.584 492.142 198.824V249H471.406ZM558.326 249V165.288H620.15V184.488H579.062V198.184H612.726V214.824H579.062V229.8H620.15V249H558.326Z" fill="#E471A8"/>
<path d="M324.576 545V461.288H345.312V525.8H384.864V545H324.576ZM396.826 545V461.288H417.562V545H396.826ZM475.021 546.664C448.909 546.664 430.477 528.232 430.477 503.144C430.477 478.056 448.909 459.624 475.021 459.624C497.421 459.624 514.317 473.192 518.541 493.032H496.653C493.325 484.456 485.517 478.824 475.021 478.824C460.813 478.824 451.469 489.064 451.469 503.144C451.469 517.224 460.813 527.464 475.021 527.464C485.517 527.464 493.325 521.832 496.653 513.256H518.541C514.317 533.096 497.421 546.664 475.021 546.664ZM571.146 546.664C545.034 546.664 526.602 528.232 526.602 503.144C526.602 478.056 545.034 459.624 571.146 459.624C597.258 459.624 615.69 478.056 615.69 503.144C615.69 528.232 597.258 546.664 571.146 546.664ZM571.146 527.464C585.354 527.464 594.698 517.224 594.698 503.144C594.698 489.064 585.354 478.824 571.146 478.824C556.938 478.824 547.594 489.064 547.594 503.144C547.594 517.224 556.938 527.464 571.146 527.464ZM628.576 545V461.288H662.496C684.64 461.288 694.496 473.32 694.496 489.96C694.496 501.736 689.504 511.336 678.752 515.816L697.568 545H672.992L658.144 518.76H649.312V545H628.576ZM649.312 499.56H662.752C671.072 499.56 673.504 495.464 673.504 489.96C673.504 484.456 671.072 480.488 662.752 480.488H649.312V499.56ZM706.406 545V494.824C706.406 473.192 719.206 459.624 742.246 459.624C765.286 459.624 778.086 473.192 778.086 494.824V545H757.35V494.824C757.35 484.584 752.486 478.824 742.246 478.824C732.006 478.824 727.142 484.584 727.142 494.824V545H706.406ZM793.326 545V461.288H855.15V480.488H814.062V494.184H847.726V510.824H814.062V525.8H855.15V545H793.326Z" fill="#E471A8"/>
<path d="M961.576 113V29.288H982.312V93.8H1021.86V113H961.576ZM1033.83 113V29.288H1054.56V113H1033.83ZM1112.02 114.664C1085.91 114.664 1067.48 96.232 1067.48 71.144C1067.48 46.056 1085.91 27.624 1112.02 27.624C1134.42 27.624 1151.32 41.192 1155.54 61.032H1133.65C1130.33 52.456 1122.52 46.824 1112.02 46.824C1097.81 46.824 1088.47 57.064 1088.47 71.144C1088.47 85.224 1097.81 95.464 1112.02 95.464C1122.52 95.464 1130.33 89.832 1133.65 81.256H1155.54C1151.32 101.096 1134.42 114.664 1112.02 114.664ZM1208.15 114.664C1182.03 114.664 1163.6 96.232 1163.6 71.144C1163.6 46.056 1182.03 27.624 1208.15 27.624C1234.26 27.624 1252.69 46.056 1252.69 71.144C1252.69 96.232 1234.26 114.664 1208.15 114.664ZM1208.15 95.464C1222.35 95.464 1231.7 85.224 1231.7 71.144C1231.7 57.064 1222.35 46.824 1208.15 46.824C1193.94 46.824 1184.59 57.064 1184.59 71.144C1184.59 85.224 1193.94 95.464 1208.15 95.464ZM1265.58 113V29.288H1299.5C1321.64 29.288 1331.5 41.32 1331.5 57.96C1331.5 69.736 1326.5 79.336 1315.75 83.816L1334.57 113H1309.99L1295.14 86.76H1286.31V113H1265.58ZM1286.31 67.56H1299.75C1308.07 67.56 1310.5 63.464 1310.5 57.96C1310.5 52.456 1308.07 48.488 1299.75 48.488H1286.31V67.56ZM1343.41 113V62.824C1343.41 41.192 1356.21 27.624 1379.25 27.624C1402.29 27.624 1415.09 41.192 1415.09 62.824V113H1394.35V62.824C1394.35 52.584 1389.49 46.824 1379.25 46.824C1369.01 46.824 1364.14 52.584 1364.14 62.824V113H1343.41ZM1430.33 113V29.288H1492.15V48.488H1451.06V62.184H1484.73V78.824H1451.06V93.8H1492.15V113H1430.33Z" fill="#E99B59"/>
<path d="M1081.58 697V613.288H1102.31V677.8H1141.86V697H1081.58ZM1153.83 697V613.288H1174.56V697H1153.83ZM1232.02 698.664C1205.91 698.664 1187.48 680.232 1187.48 655.144C1187.48 630.056 1205.91 611.624 1232.02 611.624C1254.42 611.624 1271.32 625.192 1275.54 645.032H1253.65C1250.33 636.456 1242.52 630.824 1232.02 630.824C1217.81 630.824 1208.47 641.064 1208.47 655.144C1208.47 669.224 1217.81 679.464 1232.02 679.464C1242.52 679.464 1250.33 673.832 1253.65 665.256H1275.54C1271.32 685.096 1254.42 698.664 1232.02 698.664ZM1328.15 698.664C1302.03 698.664 1283.6 680.232 1283.6 655.144C1283.6 630.056 1302.03 611.624 1328.15 611.624C1354.26 611.624 1372.69 630.056 1372.69 655.144C1372.69 680.232 1354.26 698.664 1328.15 698.664ZM1328.15 679.464C1342.35 679.464 1351.7 669.224 1351.7 655.144C1351.7 641.064 1342.35 630.824 1328.15 630.824C1313.94 630.824 1304.59 641.064 1304.59 655.144C1304.59 669.224 1313.94 679.464 1328.15 679.464ZM1385.58 697V613.288H1419.5C1441.64 613.288 1451.5 625.32 1451.5 641.96C1451.5 653.736 1446.5 663.336 1435.75 667.816L1454.57 697H1429.99L1415.14 670.76H1406.31V697H1385.58ZM1406.31 651.56H1419.75C1428.07 651.56 1430.5 647.464 1430.5 641.96C1430.5 636.456 1428.07 632.488 1419.75 632.488H1406.31V651.56ZM1463.41 697V646.824C1463.41 625.192 1476.21 611.624 1499.25 611.624C1522.29 611.624 1535.09 625.192 1535.09 646.824V697H1514.35V646.824C1514.35 636.584 1509.49 630.824 1499.25 630.824C1489.01 630.824 1484.14 636.584 1484.14 646.824V697H1463.41ZM1550.33 697V613.288H1612.15V632.488H1571.06V646.184H1604.73V662.824H1571.06V677.8H1612.15V697H1550.33Z" fill="#E99B59"/>
<path d="M1181.58 411V327.288H1202.31V391.8H1241.86V411H1181.58ZM1253.83 411V327.288H1274.56V411H1253.83ZM1332.02 412.664C1305.91 412.664 1287.48 394.232 1287.48 369.144C1287.48 344.056 1305.91 325.624 1332.02 325.624C1354.42 325.624 1371.32 339.192 1375.54 359.032H1353.65C1350.33 350.456 1342.52 344.824 1332.02 344.824C1317.81 344.824 1308.47 355.064 1308.47 369.144C1308.47 383.224 1317.81 393.464 1332.02 393.464C1342.52 393.464 1350.33 387.832 1353.65 379.256H1375.54C1371.32 399.096 1354.42 412.664 1332.02 412.664ZM1428.15 412.664C1402.03 412.664 1383.6 394.232 1383.6 369.144C1383.6 344.056 1402.03 325.624 1428.15 325.624C1454.26 325.624 1472.69 344.056 1472.69 369.144C1472.69 394.232 1454.26 412.664 1428.15 412.664ZM1428.15 393.464C1442.35 393.464 1451.7 383.224 1451.7 369.144C1451.7 355.064 1442.35 344.824 1428.15 344.824C1413.94 344.824 1404.59 355.064 1404.59 369.144C1404.59 383.224 1413.94 393.464 1428.15 393.464ZM1485.58 411V327.288H1519.5C1541.64 327.288 1551.5 339.32 1551.5 355.96C1551.5 367.736 1546.5 377.336 1535.75 381.816L1554.57 411H1529.99L1515.14 384.76H1506.31V411H1485.58ZM1506.31 365.56H1519.75C1528.07 365.56 1530.5 361.464 1530.5 355.96C1530.5 350.456 1528.07 346.488 1519.75 346.488H1506.31V365.56ZM1563.41 411V360.824C1563.41 339.192 1576.21 325.624 1599.25 325.624C1622.29 325.624 1635.09 339.192 1635.09 360.824V411H1614.35V360.824C1614.35 350.584 1609.49 344.824 1599.25 344.824C1589.01 344.824 1584.14 350.584 1584.14 360.824V411H1563.41ZM1650.33 411V327.288H1712.15V346.488H1671.06V360.184H1704.73V376.824H1671.06V391.8H1712.15V411H1650.33Z" fill="#E99B59"/>
<path d="M2131.58 113V29.288H2152.31V93.8H2191.86V113H2131.58ZM2203.83 113V29.288H2224.56V113H2203.83ZM2282.02 114.664C2255.91 114.664 2237.48 96.232 2237.48 71.144C2237.48 46.056 2255.91 27.624 2282.02 27.624C2304.42 27.624 2321.32 41.192 2325.54 61.032H2303.65C2300.33 52.456 2292.52 46.824 2282.02 46.824C2267.81 46.824 2258.47 57.064 2258.47 71.144C2258.47 85.224 2267.81 95.464 2282.02 95.464C2292.52 95.464 2300.33 89.832 2303.65 81.256H2325.54C2321.32 101.096 2304.42 114.664 2282.02 114.664ZM2378.15 114.664C2352.03 114.664 2333.6 96.232 2333.6 71.144C2333.6 46.056 2352.03 27.624 2378.15 27.624C2404.26 27.624 2422.69 46.056 2422.69 71.144C2422.69 96.232 2404.26 114.664 2378.15 114.664ZM2378.15 95.464C2392.35 95.464 2401.7 85.224 2401.7 71.144C2401.7 57.064 2392.35 46.824 2378.15 46.824C2363.94 46.824 2354.59 57.064 2354.59 71.144C2354.59 85.224 2363.94 95.464 2378.15 95.464ZM2435.58 113V29.288H2469.5C2491.64 29.288 2501.5 41.32 2501.5 57.96C2501.5 69.736 2496.5 79.336 2485.75 83.816L2504.57 113H2479.99L2465.14 86.76H2456.31V113H2435.58ZM2456.31 67.56H2469.75C2478.07 67.56 2480.5 63.464 2480.5 57.96C2480.5 52.456 2478.07 48.488 2469.75 48.488H2456.31V67.56ZM2513.41 113V62.824C2513.41 41.192 2526.21 27.624 2549.25 27.624C2572.29 27.624 2585.09 41.192 2585.09 62.824V113H2564.35V62.824C2564.35 52.584 2559.49 46.824 2549.25 46.824C2539.01 46.824 2534.14 52.584 2534.14 62.824V113H2513.41ZM2600.33 113V29.288H2662.15V48.488H2621.06V62.184H2654.73V78.824H2621.06V93.8H2662.15V113H2600.33Z" fill="#E99B59"/>
<path d="M2251.58 697V613.288H2272.31V677.8H2311.86V697H2251.58ZM2323.83 697V613.288H2344.56V697H2323.83ZM2402.02 698.664C2375.91 698.664 2357.48 680.232 2357.48 655.144C2357.48 630.056 2375.91 611.624 2402.02 611.624C2424.42 611.624 2441.32 625.192 2445.54 645.032H2423.65C2420.33 636.456 2412.52 630.824 2402.02 630.824C2387.81 630.824 2378.47 641.064 2378.47 655.144C2378.47 669.224 2387.81 679.464 2402.02 679.464C2412.52 679.464 2420.33 673.832 2423.65 665.256H2445.54C2441.32 685.096 2424.42 698.664 2402.02 698.664ZM2498.15 698.664C2472.03 698.664 2453.6 680.232 2453.6 655.144C2453.6 630.056 2472.03 611.624 2498.15 611.624C2524.26 611.624 2542.69 630.056 2542.69 655.144C2542.69 680.232 2524.26 698.664 2498.15 698.664ZM2498.15 679.464C2512.35 679.464 2521.7 669.224 2521.7 655.144C2521.7 641.064 2512.35 630.824 2498.15 630.824C2483.94 630.824 2474.59 641.064 2474.59 655.144C2474.59 669.224 2483.94 679.464 2498.15 679.464ZM2555.58 697V613.288H2589.5C2611.64 613.288 2621.5 625.32 2621.5 641.96C2621.5 653.736 2616.5 663.336 2605.75 667.816L2624.57 697H2599.99L2585.14 670.76H2576.31V697H2555.58ZM2576.31 651.56H2589.75C2598.07 651.56 2600.5 647.464 2600.5 641.96C2600.5 636.456 2598.07 632.488 2589.75 632.488H2576.31V651.56ZM2633.41 697V646.824C2633.41 625.192 2646.21 611.624 2669.25 611.624C2692.29 611.624 2705.09 625.192 2705.09 646.824V697H2684.35V646.824C2684.35 636.584 2679.49 630.824 2669.25 630.824C2659.01 630.824 2654.14 636.584 2654.14 646.824V697H2633.41ZM2720.33 697V613.288H2782.15V632.488H2741.06V646.184H2774.73V662.824H2741.06V677.8H2782.15V697H2720.33Z" fill="#E99B59"/>
<path d="M2351.58 411V327.288H2372.31V391.8H2411.86V411H2351.58ZM2423.83 411V327.288H2444.56V411H2423.83ZM2502.02 412.664C2475.91 412.664 2457.48 394.232 2457.48 369.144C2457.48 344.056 2475.91 325.624 2502.02 325.624C2524.42 325.624 2541.32 339.192 2545.54 359.032H2523.65C2520.33 350.456 2512.52 344.824 2502.02 344.824C2487.81 344.824 2478.47 355.064 2478.47 369.144C2478.47 383.224 2487.81 393.464 2502.02 393.464C2512.52 393.464 2520.33 387.832 2523.65 379.256H2545.54C2541.32 399.096 2524.42 412.664 2502.02 412.664ZM2598.15 412.664C2572.03 412.664 2553.6 394.232 2553.6 369.144C2553.6 344.056 2572.03 325.624 2598.15 325.624C2624.26 325.624 2642.69 344.056 2642.69 369.144C2642.69 394.232 2624.26 412.664 2598.15 412.664ZM2598.15 393.464C2612.35 393.464 2621.7 383.224 2621.7 369.144C2621.7 355.064 2612.35 344.824 2598.15 344.824C2583.94 344.824 2574.59 355.064 2574.59 369.144C2574.59 383.224 2583.94 393.464 2598.15 393.464ZM2655.58 411V327.288H2689.5C2711.64 327.288 2721.5 339.32 2721.5 355.96C2721.5 367.736 2716.5 377.336 2705.75 381.816L2724.57 411H2699.99L2685.14 384.76H2676.31V411H2655.58ZM2676.31 365.56H2689.75C2698.07 365.56 2700.5 361.464 2700.5 355.96C2700.5 350.456 2698.07 346.488 2689.75 346.488H2676.31V365.56ZM2733.41 411V360.824C2733.41 339.192 2746.21 325.624 2769.25 325.624C2792.29 325.624 2805.09 339.192 2805.09 360.824V411H2784.35V360.824C2784.35 350.584 2779.49 344.824 2769.25 344.824C2759.01 344.824 2754.14 350.584 2754.14 360.824V411H2733.41ZM2820.33 411V327.288H2882.15V346.488H2841.06V360.184H2874.73V376.824H2841.06V391.8H2882.15V411H2820.33Z" fill="#E99B59"/>
<path d="M962.576 98V14.288H983.312V78.8H1022.86V98H962.576ZM1034.83 98V14.288H1055.56V98H1034.83ZM1113.02 99.664C1086.91 99.664 1068.48 81.232 1068.48 56.144C1068.48 31.056 1086.91 12.624 1113.02 12.624C1135.42 12.624 1152.32 26.192 1156.54 46.032H1134.65C1131.33 37.456 1123.52 31.824 1113.02 31.824C1098.81 31.824 1089.47 42.064 1089.47 56.144C1089.47 70.224 1098.81 80.464 1113.02 80.464C1123.52 80.464 1131.33 74.832 1134.65 66.256H1156.54C1152.32 86.096 1135.42 99.664 1113.02 99.664ZM1209.15 99.664C1183.03 99.664 1164.6 81.232 1164.6 56.144C1164.6 31.056 1183.03 12.624 1209.15 12.624C1235.26 12.624 1253.69 31.056 1253.69 56.144C1253.69 81.232 1235.26 99.664 1209.15 99.664ZM1209.15 80.464C1223.35 80.464 1232.7 70.224 1232.7 56.144C1232.7 42.064 1223.35 31.824 1209.15 31.824C1194.94 31.824 1185.59 42.064 1185.59 56.144C1185.59 70.224 1194.94 80.464 1209.15 80.464ZM1266.58 98V14.288H1300.5C1322.64 14.288 1332.5 26.32 1332.5 42.96C1332.5 54.736 1327.5 64.336 1316.75 68.816L1335.57 98H1310.99L1296.14 71.76H1287.31V98H1266.58ZM1287.31 52.56H1300.75C1309.07 52.56 1311.5 48.464 1311.5 42.96C1311.5 37.456 1309.07 33.488 1300.75 33.488H1287.31V52.56ZM1344.41 98V47.824C1344.41 26.192 1357.21 12.624 1380.25 12.624C1403.29 12.624 1416.09 26.192 1416.09 47.824V98H1395.35V47.824C1395.35 37.584 1390.49 31.824 1380.25 31.824C1370.01 31.824 1365.14 37.584 1365.14 47.824V98H1344.41ZM1431.33 98V14.288H1493.15V33.488H1452.06V47.184H1485.73V63.824H1452.06V78.8H1493.15V98H1431.33Z" fill="#EFC24C"/>
<path d="M1082.58 682V598.288H1103.31V662.8H1142.86V682H1082.58ZM1154.83 682V598.288H1175.56V682H1154.83ZM1233.02 683.664C1206.91 683.664 1188.48 665.232 1188.48 640.144C1188.48 615.056 1206.91 596.624 1233.02 596.624C1255.42 596.624 1272.32 610.192 1276.54 630.032H1254.65C1251.33 621.456 1243.52 615.824 1233.02 615.824C1218.81 615.824 1209.47 626.064 1209.47 640.144C1209.47 654.224 1218.81 664.464 1233.02 664.464C1243.52 664.464 1251.33 658.832 1254.65 650.256H1276.54C1272.32 670.096 1255.42 683.664 1233.02 683.664ZM1329.15 683.664C1303.03 683.664 1284.6 665.232 1284.6 640.144C1284.6 615.056 1303.03 596.624 1329.15 596.624C1355.26 596.624 1373.69 615.056 1373.69 640.144C1373.69 665.232 1355.26 683.664 1329.15 683.664ZM1329.15 664.464C1343.35 664.464 1352.7 654.224 1352.7 640.144C1352.7 626.064 1343.35 615.824 1329.15 615.824C1314.94 615.824 1305.59 626.064 1305.59 640.144C1305.59 654.224 1314.94 664.464 1329.15 664.464ZM1386.58 682V598.288H1420.5C1442.64 598.288 1452.5 610.32 1452.5 626.96C1452.5 638.736 1447.5 648.336 1436.75 652.816L1455.57 682H1430.99L1416.14 655.76H1407.31V682H1386.58ZM1407.31 636.56H1420.75C1429.07 636.56 1431.5 632.464 1431.5 626.96C1431.5 621.456 1429.07 617.488 1420.75 617.488H1407.31V636.56ZM1464.41 682V631.824C1464.41 610.192 1477.21 596.624 1500.25 596.624C1523.29 596.624 1536.09 610.192 1536.09 631.824V682H1515.35V631.824C1515.35 621.584 1510.49 615.824 1500.25 615.824C1490.01 615.824 1485.14 621.584 1485.14 631.824V682H1464.41ZM1551.33 682V598.288H1613.15V617.488H1572.06V631.184H1605.73V647.824H1572.06V662.8H1613.15V682H1551.33Z" fill="#EFC24C"/>
<path d="M1182.58 396V312.288H1203.31V376.8H1242.86V396H1182.58ZM1254.83 396V312.288H1275.56V396H1254.83ZM1333.02 397.664C1306.91 397.664 1288.48 379.232 1288.48 354.144C1288.48 329.056 1306.91 310.624 1333.02 310.624C1355.42 310.624 1372.32 324.192 1376.54 344.032H1354.65C1351.33 335.456 1343.52 329.824 1333.02 329.824C1318.81 329.824 1309.47 340.064 1309.47 354.144C1309.47 368.224 1318.81 378.464 1333.02 378.464C1343.52 378.464 1351.33 372.832 1354.65 364.256H1376.54C1372.32 384.096 1355.42 397.664 1333.02 397.664ZM1429.15 397.664C1403.03 397.664 1384.6 379.232 1384.6 354.144C1384.6 329.056 1403.03 310.624 1429.15 310.624C1455.26 310.624 1473.69 329.056 1473.69 354.144C1473.69 379.232 1455.26 397.664 1429.15 397.664ZM1429.15 378.464C1443.35 378.464 1452.7 368.224 1452.7 354.144C1452.7 340.064 1443.35 329.824 1429.15 329.824C1414.94 329.824 1405.59 340.064 1405.59 354.144C1405.59 368.224 1414.94 378.464 1429.15 378.464ZM1486.58 396V312.288H1520.5C1542.64 312.288 1552.5 324.32 1552.5 340.96C1552.5 352.736 1547.5 362.336 1536.75 366.816L1555.57 396H1530.99L1516.14 369.76H1507.31V396H1486.58ZM1507.31 350.56H1520.75C1529.07 350.56 1531.5 346.464 1531.5 340.96C1531.5 335.456 1529.07 331.488 1520.75 331.488H1507.31V350.56ZM1564.41 396V345.824C1564.41 324.192 1577.21 310.624 1600.25 310.624C1623.29 310.624 1636.09 324.192 1636.09 345.824V396H1615.35V345.824C1615.35 335.584 1610.49 329.824 1600.25 329.824C1590.01 329.824 1585.14 335.584 1585.14 345.824V396H1564.41ZM1651.33 396V312.288H1713.15V331.488H1672.06V345.184H1705.73V361.824H1672.06V376.8H1713.15V396H1651.33Z" fill="#EFC24C"/>
<path d="M2132.58 98V14.288H2153.31V78.8H2192.86V98H2132.58ZM2204.83 98V14.288H2225.56V98H2204.83ZM2283.02 99.664C2256.91 99.664 2238.48 81.232 2238.48 56.144C2238.48 31.056 2256.91 12.624 2283.02 12.624C2305.42 12.624 2322.32 26.192 2326.54 46.032H2304.65C2301.33 37.456 2293.52 31.824 2283.02 31.824C2268.81 31.824 2259.47 42.064 2259.47 56.144C2259.47 70.224 2268.81 80.464 2283.02 80.464C2293.52 80.464 2301.33 74.832 2304.65 66.256H2326.54C2322.32 86.096 2305.42 99.664 2283.02 99.664ZM2379.15 99.664C2353.03 99.664 2334.6 81.232 2334.6 56.144C2334.6 31.056 2353.03 12.624 2379.15 12.624C2405.26 12.624 2423.69 31.056 2423.69 56.144C2423.69 81.232 2405.26 99.664 2379.15 99.664ZM2379.15 80.464C2393.35 80.464 2402.7 70.224 2402.7 56.144C2402.7 42.064 2393.35 31.824 2379.15 31.824C2364.94 31.824 2355.59 42.064 2355.59 56.144C2355.59 70.224 2364.94 80.464 2379.15 80.464ZM2436.58 98V14.288H2470.5C2492.64 14.288 2502.5 26.32 2502.5 42.96C2502.5 54.736 2497.5 64.336 2486.75 68.816L2505.57 98H2480.99L2466.14 71.76H2457.31V98H2436.58ZM2457.31 52.56H2470.75C2479.07 52.56 2481.5 48.464 2481.5 42.96C2481.5 37.456 2479.07 33.488 2470.75 33.488H2457.31V52.56ZM2514.41 98V47.824C2514.41 26.192 2527.21 12.624 2550.25 12.624C2573.29 12.624 2586.09 26.192 2586.09 47.824V98H2565.35V47.824C2565.35 37.584 2560.49 31.824 2550.25 31.824C2540.01 31.824 2535.14 37.584 2535.14 47.824V98H2514.41ZM2601.33 98V14.288H2663.15V33.488H2622.06V47.184H2655.73V63.824H2622.06V78.8H2663.15V98H2601.33Z" fill="#EFC24C"/>
<path d="M2252.58 682V598.288H2273.31V662.8H2312.86V682H2252.58ZM2324.83 682V598.288H2345.56V682H2324.83ZM2403.02 683.664C2376.91 683.664 2358.48 665.232 2358.48 640.144C2358.48 615.056 2376.91 596.624 2403.02 596.624C2425.42 596.624 2442.32 610.192 2446.54 630.032H2424.65C2421.33 621.456 2413.52 615.824 2403.02 615.824C2388.81 615.824 2379.47 626.064 2379.47 640.144C2379.47 654.224 2388.81 664.464 2403.02 664.464C2413.52 664.464 2421.33 658.832 2424.65 650.256H2446.54C2442.32 670.096 2425.42 683.664 2403.02 683.664ZM2499.15 683.664C2473.03 683.664 2454.6 665.232 2454.6 640.144C2454.6 615.056 2473.03 596.624 2499.15 596.624C2525.26 596.624 2543.69 615.056 2543.69 640.144C2543.69 665.232 2525.26 683.664 2499.15 683.664ZM2499.15 664.464C2513.35 664.464 2522.7 654.224 2522.7 640.144C2522.7 626.064 2513.35 615.824 2499.15 615.824C2484.94 615.824 2475.59 626.064 2475.59 640.144C2475.59 654.224 2484.94 664.464 2499.15 664.464ZM2556.58 682V598.288H2590.5C2612.64 598.288 2622.5 610.32 2622.5 626.96C2622.5 638.736 2617.5 648.336 2606.75 652.816L2625.57 682H2600.99L2586.14 655.76H2577.31V682H2556.58ZM2577.31 636.56H2590.75C2599.07 636.56 2601.5 632.464 2601.5 626.96C2601.5 621.456 2599.07 617.488 2590.75 617.488H2577.31V636.56ZM2634.41 682V631.824C2634.41 610.192 2647.21 596.624 2670.25 596.624C2693.29 596.624 2706.09 610.192 2706.09 631.824V682H2685.35V631.824C2685.35 621.584 2680.49 615.824 2670.25 615.824C2660.01 615.824 2655.14 621.584 2655.14 631.824V682H2634.41ZM2721.33 682V598.288H2783.15V617.488H2742.06V631.184H2775.73V647.824H2742.06V662.8H2783.15V682H2721.33Z" fill="#EFC24C"/>
<path d="M2352.58 396V312.288H2373.31V376.8H2412.86V396H2352.58ZM2424.83 396V312.288H2445.56V396H2424.83ZM2503.02 397.664C2476.91 397.664 2458.48 379.232 2458.48 354.144C2458.48 329.056 2476.91 310.624 2503.02 310.624C2525.42 310.624 2542.32 324.192 2546.54 344.032H2524.65C2521.33 335.456 2513.52 329.824 2503.02 329.824C2488.81 329.824 2479.47 340.064 2479.47 354.144C2479.47 368.224 2488.81 378.464 2503.02 378.464C2513.52 378.464 2521.33 372.832 2524.65 364.256H2546.54C2542.32 384.096 2525.42 397.664 2503.02 397.664ZM2599.15 397.664C2573.03 397.664 2554.6 379.232 2554.6 354.144C2554.6 329.056 2573.03 310.624 2599.15 310.624C2625.26 310.624 2643.69 329.056 2643.69 354.144C2643.69 379.232 2625.26 397.664 2599.15 397.664ZM2599.15 378.464C2613.35 378.464 2622.7 368.224 2622.7 354.144C2622.7 340.064 2613.35 329.824 2599.15 329.824C2584.94 329.824 2575.59 340.064 2575.59 354.144C2575.59 368.224 2584.94 378.464 2599.15 378.464ZM2656.58 396V312.288H2690.5C2712.64 312.288 2722.5 324.32 2722.5 340.96C2722.5 352.736 2717.5 362.336 2706.75 366.816L2725.57 396H2700.99L2686.14 369.76H2677.31V396H2656.58ZM2677.31 350.56H2690.75C2699.07 350.56 2701.5 346.464 2701.5 340.96C2701.5 335.456 2699.07 331.488 2690.75 331.488H2677.31V350.56ZM2734.41 396V345.824C2734.41 324.192 2747.21 310.624 2770.25 310.624C2793.29 310.624 2806.09 324.192 2806.09 345.824V396H2785.35V345.824C2785.35 335.584 2780.49 329.824 2770.25 329.824C2760.01 329.824 2755.14 335.584 2755.14 345.824V396H2734.41ZM2821.33 396V312.288H2883.15V331.488H2842.06V345.184H2875.73V361.824H2842.06V376.8H2883.15V396H2821.33Z" fill="#EFC24C"/>
<path d="M1553.58 118V34.288H1574.31V98.8H1613.86V118H1553.58ZM1625.83 118V34.288H1646.56V118H1625.83ZM1704.02 119.664C1677.91 119.664 1659.48 101.232 1659.48 76.144C1659.48 51.056 1677.91 32.624 1704.02 32.624C1726.42 32.624 1743.32 46.192 1747.54 66.032H1725.65C1722.33 57.456 1714.52 51.824 1704.02 51.824C1689.81 51.824 1680.47 62.064 1680.47 76.144C1680.47 90.224 1689.81 100.464 1704.02 100.464C1714.52 100.464 1722.33 94.832 1725.65 86.256H1747.54C1743.32 106.096 1726.42 119.664 1704.02 119.664ZM1800.15 119.664C1774.03 119.664 1755.6 101.232 1755.6 76.144C1755.6 51.056 1774.03 32.624 1800.15 32.624C1826.26 32.624 1844.69 51.056 1844.69 76.144C1844.69 101.232 1826.26 119.664 1800.15 119.664ZM1800.15 100.464C1814.35 100.464 1823.7 90.224 1823.7 76.144C1823.7 62.064 1814.35 51.824 1800.15 51.824C1785.94 51.824 1776.59 62.064 1776.59 76.144C1776.59 90.224 1785.94 100.464 1800.15 100.464ZM1857.58 118V34.288H1891.5C1913.64 34.288 1923.5 46.32 1923.5 62.96C1923.5 74.736 1918.5 84.336 1907.75 88.816L1926.57 118H1901.99L1887.14 91.76H1878.31V118H1857.58ZM1878.31 72.56H1891.75C1900.07 72.56 1902.5 68.464 1902.5 62.96C1902.5 57.456 1900.07 53.488 1891.75 53.488H1878.31V72.56ZM1935.41 118V67.824C1935.41 46.192 1948.21 32.624 1971.25 32.624C1994.29 32.624 2007.09 46.192 2007.09 67.824V118H1986.35V67.824C1986.35 57.584 1981.49 51.824 1971.25 51.824C1961.01 51.824 1956.14 57.584 1956.14 67.824V118H1935.41ZM2022.33 118V34.288H2084.15V53.488H2043.06V67.184H2076.73V83.824H2043.06V98.8H2084.15V118H2022.33Z" fill="#588DA2"/>
<path d="M1673.58 702V618.288H1694.31V682.8H1733.86V702H1673.58ZM1745.83 702V618.288H1766.56V702H1745.83ZM1824.02 703.664C1797.91 703.664 1779.48 685.232 1779.48 660.144C1779.48 635.056 1797.91 616.624 1824.02 616.624C1846.42 616.624 1863.32 630.192 1867.54 650.032H1845.65C1842.33 641.456 1834.52 635.824 1824.02 635.824C1809.81 635.824 1800.47 646.064 1800.47 660.144C1800.47 674.224 1809.81 684.464 1824.02 684.464C1834.52 684.464 1842.33 678.832 1845.65 670.256H1867.54C1863.32 690.096 1846.42 703.664 1824.02 703.664ZM1920.15 703.664C1894.03 703.664 1875.6 685.232 1875.6 660.144C1875.6 635.056 1894.03 616.624 1920.15 616.624C1946.26 616.624 1964.69 635.056 1964.69 660.144C1964.69 685.232 1946.26 703.664 1920.15 703.664ZM1920.15 684.464C1934.35 684.464 1943.7 674.224 1943.7 660.144C1943.7 646.064 1934.35 635.824 1920.15 635.824C1905.94 635.824 1896.59 646.064 1896.59 660.144C1896.59 674.224 1905.94 684.464 1920.15 684.464ZM1977.58 702V618.288H2011.5C2033.64 618.288 2043.5 630.32 2043.5 646.96C2043.5 658.736 2038.5 668.336 2027.75 672.816L2046.57 702H2021.99L2007.14 675.76H1998.31V702H1977.58ZM1998.31 656.56H2011.75C2020.07 656.56 2022.5 652.464 2022.5 646.96C2022.5 641.456 2020.07 637.488 2011.75 637.488H1998.31V656.56ZM2055.41 702V651.824C2055.41 630.192 2068.21 616.624 2091.25 616.624C2114.29 616.624 2127.09 630.192 2127.09 651.824V702H2106.35V651.824C2106.35 641.584 2101.49 635.824 2091.25 635.824C2081.01 635.824 2076.14 641.584 2076.14 651.824V702H2055.41ZM2142.33 702V618.288H2204.15V637.488H2163.06V651.184H2196.73V667.824H2163.06V682.8H2204.15V702H2142.33Z" fill="#588DA2"/>
<path d="M1773.58 416V332.288H1794.31V396.8H1833.86V416H1773.58ZM1845.83 416V332.288H1866.56V416H1845.83ZM1924.02 417.664C1897.91 417.664 1879.48 399.232 1879.48 374.144C1879.48 349.056 1897.91 330.624 1924.02 330.624C1946.42 330.624 1963.32 344.192 1967.54 364.032H1945.65C1942.33 355.456 1934.52 349.824 1924.02 349.824C1909.81 349.824 1900.47 360.064 1900.47 374.144C1900.47 388.224 1909.81 398.464 1924.02 398.464C1934.52 398.464 1942.33 392.832 1945.65 384.256H1967.54C1963.32 404.096 1946.42 417.664 1924.02 417.664ZM2020.15 417.664C1994.03 417.664 1975.6 399.232 1975.6 374.144C1975.6 349.056 1994.03 330.624 2020.15 330.624C2046.26 330.624 2064.69 349.056 2064.69 374.144C2064.69 399.232 2046.26 417.664 2020.15 417.664ZM2020.15 398.464C2034.35 398.464 2043.7 388.224 2043.7 374.144C2043.7 360.064 2034.35 349.824 2020.15 349.824C2005.94 349.824 1996.59 360.064 1996.59 374.144C1996.59 388.224 2005.94 398.464 2020.15 398.464ZM2077.58 416V332.288H2111.5C2133.64 332.288 2143.5 344.32 2143.5 360.96C2143.5 372.736 2138.5 382.336 2127.75 386.816L2146.57 416H2121.99L2107.14 389.76H2098.31V416H2077.58ZM2098.31 370.56H2111.75C2120.07 370.56 2122.5 366.464 2122.5 360.96C2122.5 355.456 2120.07 351.488 2111.75 351.488H2098.31V370.56ZM2155.41 416V365.824C2155.41 344.192 2168.21 330.624 2191.25 330.624C2214.29 330.624 2227.09 344.192 2227.09 365.824V416H2206.35V365.824C2206.35 355.584 2201.49 349.824 2191.25 349.824C2181.01 349.824 2176.14 355.584 2176.14 365.824V416H2155.41ZM2242.33 416V332.288H2304.15V351.488H2263.06V365.184H2296.73V381.824H2263.06V396.8H2304.15V416H2242.33Z" fill="#588DA2"/>
<path d="M2723.58 118V34.288H2744.31V98.8H2783.86V118H2723.58ZM2795.83 118V34.288H2816.56V118H2795.83ZM2874.02 119.664C2847.91 119.664 2829.48 101.232 2829.48 76.144C2829.48 51.056 2847.91 32.624 2874.02 32.624C2896.42 32.624 2913.32 46.192 2917.54 66.032H2895.65C2892.33 57.456 2884.52 51.824 2874.02 51.824C2859.81 51.824 2850.47 62.064 2850.47 76.144C2850.47 90.224 2859.81 100.464 2874.02 100.464C2884.52 100.464 2892.33 94.832 2895.65 86.256H2917.54C2913.32 106.096 2896.42 119.664 2874.02 119.664ZM2970.15 119.664C2944.03 119.664 2925.6 101.232 2925.6 76.144C2925.6 51.056 2944.03 32.624 2970.15 32.624C2996.26 32.624 3014.69 51.056 3014.69 76.144C3014.69 101.232 2996.26 119.664 2970.15 119.664ZM2970.15 100.464C2984.35 100.464 2993.7 90.224 2993.7 76.144C2993.7 62.064 2984.35 51.824 2970.15 51.824C2955.94 51.824 2946.59 62.064 2946.59 76.144C2946.59 90.224 2955.94 100.464 2970.15 100.464ZM3027.58 118V34.288H3061.5C3083.64 34.288 3093.5 46.32 3093.5 62.96C3093.5 74.736 3088.5 84.336 3077.75 88.816L3096.57 118H3071.99L3057.14 91.76H3048.31V118H3027.58ZM3048.31 72.56H3061.75C3070.07 72.56 3072.5 68.464 3072.5 62.96C3072.5 57.456 3070.07 53.488 3061.75 53.488H3048.31V72.56ZM3105.41 118V67.824C3105.41 46.192 3118.21 32.624 3141.25 32.624C3164.29 32.624 3177.09 46.192 3177.09 67.824V118H3156.35V67.824C3156.35 57.584 3151.49 51.824 3141.25 51.824C3131.01 51.824 3126.14 57.584 3126.14 67.824V118H3105.41ZM3192.33 118V34.288H3254.15V53.488H3213.06V67.184H3246.73V83.824H3213.06V98.8H3254.15V118H3192.33Z" fill="#588DA2"/>
<path d="M2843.58 702V618.288H2864.31V682.8H2903.86V702H2843.58ZM2915.83 702V618.288H2936.56V702H2915.83ZM2994.02 703.664C2967.91 703.664 2949.48 685.232 2949.48 660.144C2949.48 635.056 2967.91 616.624 2994.02 616.624C3016.42 616.624 3033.32 630.192 3037.54 650.032H3015.65C3012.33 641.456 3004.52 635.824 2994.02 635.824C2979.81 635.824 2970.47 646.064 2970.47 660.144C2970.47 674.224 2979.81 684.464 2994.02 684.464C3004.52 684.464 3012.33 678.832 3015.65 670.256H3037.54C3033.32 690.096 3016.42 703.664 2994.02 703.664ZM3090.15 703.664C3064.03 703.664 3045.6 685.232 3045.6 660.144C3045.6 635.056 3064.03 616.624 3090.15 616.624C3116.26 616.624 3134.69 635.056 3134.69 660.144C3134.69 685.232 3116.26 703.664 3090.15 703.664ZM3090.15 684.464C3104.35 684.464 3113.7 674.224 3113.7 660.144C3113.7 646.064 3104.35 635.824 3090.15 635.824C3075.94 635.824 3066.59 646.064 3066.59 660.144C3066.59 674.224 3075.94 684.464 3090.15 684.464ZM3147.58 702V618.288H3181.5C3203.64 618.288 3213.5 630.32 3213.5 646.96C3213.5 658.736 3208.5 668.336 3197.75 672.816L3216.57 702H3191.99L3177.14 675.76H3168.31V702H3147.58ZM3168.31 656.56H3181.75C3190.07 656.56 3192.5 652.464 3192.5 646.96C3192.5 641.456 3190.07 637.488 3181.75 637.488H3168.31V656.56ZM3225.41 702V651.824C3225.41 630.192 3238.21 616.624 3261.25 616.624C3284.29 616.624 3297.09 630.192 3297.09 651.824V702H3276.35V651.824C3276.35 641.584 3271.49 635.824 3261.25 635.824C3251.01 635.824 3246.14 641.584 3246.14 651.824V702H3225.41ZM3312.33 702V618.288H3374.15V637.488H3333.06V651.184H3366.73V667.824H3333.06V682.8H3374.15V702H3312.33Z" fill="#588DA2"/>
<path d="M2943.58 416V332.288H2964.31V396.8H3003.86V416H2943.58ZM3015.83 416V332.288H3036.56V416H3015.83ZM3094.02 417.664C3067.91 417.664 3049.48 399.232 3049.48 374.144C3049.48 349.056 3067.91 330.624 3094.02 330.624C3116.42 330.624 3133.32 344.192 3137.54 364.032H3115.65C3112.33 355.456 3104.52 349.824 3094.02 349.824C3079.81 349.824 3070.47 360.064 3070.47 374.144C3070.47 388.224 3079.81 398.464 3094.02 398.464C3104.52 398.464 3112.33 392.832 3115.65 384.256H3137.54C3133.32 404.096 3116.42 417.664 3094.02 417.664ZM3190.15 417.664C3164.03 417.664 3145.6 399.232 3145.6 374.144C3145.6 349.056 3164.03 330.624 3190.15 330.624C3216.26 330.624 3234.69 349.056 3234.69 374.144C3234.69 399.232 3216.26 417.664 3190.15 417.664ZM3190.15 398.464C3204.35 398.464 3213.7 388.224 3213.7 374.144C3213.7 360.064 3204.35 349.824 3190.15 349.824C3175.94 349.824 3166.59 360.064 3166.59 374.144C3166.59 388.224 3175.94 398.464 3190.15 398.464ZM3247.58 416V332.288H3281.5C3303.64 332.288 3313.5 344.32 3313.5 360.96C3313.5 372.736 3308.5 382.336 3297.75 386.816L3316.57 416H3291.99L3277.14 389.76H3268.31V416H3247.58ZM3268.31 370.56H3281.75C3290.07 370.56 3292.5 366.464 3292.5 360.96C3292.5 355.456 3290.07 351.488 3281.75 351.488H3268.31V370.56ZM3325.41 416V365.824C3325.41 344.192 3338.21 330.624 3361.25 330.624C3384.29 330.624 3397.09 344.192 3397.09 365.824V416H3376.35V365.824C3376.35 355.584 3371.49 349.824 3361.25 349.824C3351.01 349.824 3346.14 355.584 3346.14 365.824V416H3325.41ZM3412.33 416V332.288H3474.15V351.488H3433.06V365.184H3466.73V381.824H3433.06V396.8H3474.15V416H3412.33Z" fill="#588DA2"/>
<path d="M369.576 118V34.288H390.312V98.8H429.864V118H369.576ZM441.826 118V34.288H462.562V118H441.826ZM520.021 119.664C493.909 119.664 475.477 101.232 475.477 76.144C475.477 51.056 493.909 32.624 520.021 32.624C542.421 32.624 559.317 46.192 563.541 66.032H541.653C538.325 57.456 530.517 51.824 520.021 51.824C505.813 51.824 496.469 62.064 496.469 76.144C496.469 90.224 505.813 100.464 520.021 100.464C530.517 100.464 538.325 94.832 541.653 86.256H563.541C559.317 106.096 542.421 119.664 520.021 119.664ZM616.146 119.664C590.034 119.664 571.602 101.232 571.602 76.144C571.602 51.056 590.034 32.624 616.146 32.624C642.258 32.624 660.69 51.056 660.69 76.144C660.69 101.232 642.258 119.664 616.146 119.664ZM616.146 100.464C630.354 100.464 639.698 90.224 639.698 76.144C639.698 62.064 630.354 51.824 616.146 51.824C601.938 51.824 592.594 62.064 592.594 76.144C592.594 90.224 601.938 100.464 616.146 100.464ZM673.576 118V34.288H707.496C729.64 34.288 739.496 46.32 739.496 62.96C739.496 74.736 734.504 84.336 723.752 88.816L742.568 118H717.992L703.144 91.76H694.312V118H673.576ZM694.312 72.56H707.752C716.072 72.56 718.504 68.464 718.504 62.96C718.504 57.456 716.072 53.488 707.752 53.488H694.312V72.56ZM751.406 118V67.824C751.406 46.192 764.206 32.624 787.246 32.624C810.286 32.624 823.086 46.192 823.086 67.824V118H802.35V67.824C802.35 57.584 797.486 51.824 787.246 51.824C777.006 51.824 772.142 57.584 772.142 67.824V118H751.406ZM838.326 118V34.288H900.15V53.488H859.062V67.184H892.726V83.824H859.062V98.8H900.15V118H838.326Z" fill="#588DA2"/>
<path d="M489.576 702V618.288H510.312V682.8H549.864V702H489.576ZM561.826 702V618.288H582.562V702H561.826ZM640.021 703.664C613.909 703.664 595.477 685.232 595.477 660.144C595.477 635.056 613.909 616.624 640.021 616.624C662.421 616.624 679.317 630.192 683.541 650.032H661.653C658.325 641.456 650.517 635.824 640.021 635.824C625.813 635.824 616.469 646.064 616.469 660.144C616.469 674.224 625.813 684.464 640.021 684.464C650.517 684.464 658.325 678.832 661.653 670.256H683.541C679.317 690.096 662.421 703.664 640.021 703.664ZM736.146 703.664C710.034 703.664 691.602 685.232 691.602 660.144C691.602 635.056 710.034 616.624 736.146 616.624C762.258 616.624 780.69 635.056 780.69 660.144C780.69 685.232 762.258 703.664 736.146 703.664ZM736.146 684.464C750.354 684.464 759.698 674.224 759.698 660.144C759.698 646.064 750.354 635.824 736.146 635.824C721.938 635.824 712.594 646.064 712.594 660.144C712.594 674.224 721.938 684.464 736.146 684.464ZM793.576 702V618.288H827.496C849.64 618.288 859.496 630.32 859.496 646.96C859.496 658.736 854.504 668.336 843.752 672.816L862.568 702H837.992L823.144 675.76H814.312V702H793.576ZM814.312 656.56H827.752C836.072 656.56 838.504 652.464 838.504 646.96C838.504 641.456 836.072 637.488 827.752 637.488H814.312V656.56ZM871.406 702V651.824C871.406 630.192 884.206 616.624 907.246 616.624C930.286 616.624 943.086 630.192 943.086 651.824V702H922.35V651.824C922.35 641.584 917.486 635.824 907.246 635.824C897.006 635.824 892.142 641.584 892.142 651.824V702H871.406ZM958.326 702V618.288H1020.15V637.488H979.062V651.184H1012.73V667.824H979.062V682.8H1020.15V702H958.326Z" fill="#588DA2"/>
<path d="M589.576 416V332.288H610.312V396.8H649.864V416H589.576ZM661.826 416V332.288H682.562V416H661.826ZM740.021 417.664C713.909 417.664 695.477 399.232 695.477 374.144C695.477 349.056 713.909 330.624 740.021 330.624C762.421 330.624 779.317 344.192 783.541 364.032H761.653C758.325 355.456 750.517 349.824 740.021 349.824C725.813 349.824 716.469 360.064 716.469 374.144C716.469 388.224 725.813 398.464 740.021 398.464C750.517 398.464 758.325 392.832 761.653 384.256H783.541C779.317 404.096 762.421 417.664 740.021 417.664ZM836.146 417.664C810.034 417.664 791.602 399.232 791.602 374.144C791.602 349.056 810.034 330.624 836.146 330.624C862.258 330.624 880.69 349.056 880.69 374.144C880.69 399.232 862.258 417.664 836.146 417.664ZM836.146 398.464C850.354 398.464 859.698 388.224 859.698 374.144C859.698 360.064 850.354 349.824 836.146 349.824C821.938 349.824 812.594 360.064 812.594 374.144C812.594 388.224 821.938 398.464 836.146 398.464ZM893.576 416V332.288H927.496C949.64 332.288 959.496 344.32 959.496 360.96C959.496 372.736 954.504 382.336 943.752 386.816L962.568 416H937.992L923.144 389.76H914.312V416H893.576ZM914.312 370.56H927.752C936.072 370.56 938.504 366.464 938.504 360.96C938.504 355.456 936.072 351.488 927.752 351.488H914.312V370.56ZM971.406 416V365.824C971.406 344.192 984.206 330.624 1007.25 330.624C1030.29 330.624 1043.09 344.192 1043.09 365.824V416H1022.35V365.824C1022.35 355.584 1017.49 349.824 1007.25 349.824C997.006 349.824 992.142 355.584 992.142 365.824V416H971.406ZM1058.33 416V332.288H1120.15V351.488H1079.06V365.184H1112.73V381.824H1079.06V396.8H1120.15V416H1058.33Z" fill="#588DA2"/>
<path d="M1554.58 103V19.288H1575.31V83.8H1614.86V103H1554.58ZM1626.83 103V19.288H1647.56V103H1626.83ZM1705.02 104.664C1678.91 104.664 1660.48 86.232 1660.48 61.144C1660.48 36.056 1678.91 17.624 1705.02 17.624C1727.42 17.624 1744.32 31.192 1748.54 51.032H1726.65C1723.33 42.456 1715.52 36.824 1705.02 36.824C1690.81 36.824 1681.47 47.064 1681.47 61.144C1681.47 75.224 1690.81 85.464 1705.02 85.464C1715.52 85.464 1723.33 79.832 1726.65 71.256H1748.54C1744.32 91.096 1727.42 104.664 1705.02 104.664ZM1801.15 104.664C1775.03 104.664 1756.6 86.232 1756.6 61.144C1756.6 36.056 1775.03 17.624 1801.15 17.624C1827.26 17.624 1845.69 36.056 1845.69 61.144C1845.69 86.232 1827.26 104.664 1801.15 104.664ZM1801.15 85.464C1815.35 85.464 1824.7 75.224 1824.7 61.144C1824.7 47.064 1815.35 36.824 1801.15 36.824C1786.94 36.824 1777.59 47.064 1777.59 61.144C1777.59 75.224 1786.94 85.464 1801.15 85.464ZM1858.58 103V19.288H1892.5C1914.64 19.288 1924.5 31.32 1924.5 47.96C1924.5 59.736 1919.5 69.336 1908.75 73.816L1927.57 103H1902.99L1888.14 76.76H1879.31V103H1858.58ZM1879.31 57.56H1892.75C1901.07 57.56 1903.5 53.464 1903.5 47.96C1903.5 42.456 1901.07 38.488 1892.75 38.488H1879.31V57.56ZM1936.41 103V52.824C1936.41 31.192 1949.21 17.624 1972.25 17.624C1995.29 17.624 2008.09 31.192 2008.09 52.824V103H1987.35V52.824C1987.35 42.584 1982.49 36.824 1972.25 36.824C1962.01 36.824 1957.14 42.584 1957.14 52.824V103H1936.41ZM2023.33 103V19.288H2085.15V38.488H2044.06V52.184H2077.73V68.824H2044.06V83.8H2085.15V103H2023.33Z" fill="#A6D2D3"/>
<path d="M1674.58 687V603.288H1695.31V667.8H1734.86V687H1674.58ZM1746.83 687V603.288H1767.56V687H1746.83ZM1825.02 688.664C1798.91 688.664 1780.48 670.232 1780.48 645.144C1780.48 620.056 1798.91 601.624 1825.02 601.624C1847.42 601.624 1864.32 615.192 1868.54 635.032H1846.65C1843.33 626.456 1835.52 620.824 1825.02 620.824C1810.81 620.824 1801.47 631.064 1801.47 645.144C1801.47 659.224 1810.81 669.464 1825.02 669.464C1835.52 669.464 1843.33 663.832 1846.65 655.256H1868.54C1864.32 675.096 1847.42 688.664 1825.02 688.664ZM1921.15 688.664C1895.03 688.664 1876.6 670.232 1876.6 645.144C1876.6 620.056 1895.03 601.624 1921.15 601.624C1947.26 601.624 1965.69 620.056 1965.69 645.144C1965.69 670.232 1947.26 688.664 1921.15 688.664ZM1921.15 669.464C1935.35 669.464 1944.7 659.224 1944.7 645.144C1944.7 631.064 1935.35 620.824 1921.15 620.824C1906.94 620.824 1897.59 631.064 1897.59 645.144C1897.59 659.224 1906.94 669.464 1921.15 669.464ZM1978.58 687V603.288H2012.5C2034.64 603.288 2044.5 615.32 2044.5 631.96C2044.5 643.736 2039.5 653.336 2028.75 657.816L2047.57 687H2022.99L2008.14 660.76H1999.31V687H1978.58ZM1999.31 641.56H2012.75C2021.07 641.56 2023.5 637.464 2023.5 631.96C2023.5 626.456 2021.07 622.488 2012.75 622.488H1999.31V641.56ZM2056.41 687V636.824C2056.41 615.192 2069.21 601.624 2092.25 601.624C2115.29 601.624 2128.09 615.192 2128.09 636.824V687H2107.35V636.824C2107.35 626.584 2102.49 620.824 2092.25 620.824C2082.01 620.824 2077.14 626.584 2077.14 636.824V687H2056.41ZM2143.33 687V603.288H2205.15V622.488H2164.06V636.184H2197.73V652.824H2164.06V667.8H2205.15V687H2143.33Z" fill="#A6D2D3"/>
<path d="M1774.58 401V317.288H1795.31V381.8H1834.86V401H1774.58ZM1846.83 401V317.288H1867.56V401H1846.83ZM1925.02 402.664C1898.91 402.664 1880.48 384.232 1880.48 359.144C1880.48 334.056 1898.91 315.624 1925.02 315.624C1947.42 315.624 1964.32 329.192 1968.54 349.032H1946.65C1943.33 340.456 1935.52 334.824 1925.02 334.824C1910.81 334.824 1901.47 345.064 1901.47 359.144C1901.47 373.224 1910.81 383.464 1925.02 383.464C1935.52 383.464 1943.33 377.832 1946.65 369.256H1968.54C1964.32 389.096 1947.42 402.664 1925.02 402.664ZM2021.15 402.664C1995.03 402.664 1976.6 384.232 1976.6 359.144C1976.6 334.056 1995.03 315.624 2021.15 315.624C2047.26 315.624 2065.69 334.056 2065.69 359.144C2065.69 384.232 2047.26 402.664 2021.15 402.664ZM2021.15 383.464C2035.35 383.464 2044.7 373.224 2044.7 359.144C2044.7 345.064 2035.35 334.824 2021.15 334.824C2006.94 334.824 1997.59 345.064 1997.59 359.144C1997.59 373.224 2006.94 383.464 2021.15 383.464ZM2078.58 401V317.288H2112.5C2134.64 317.288 2144.5 329.32 2144.5 345.96C2144.5 357.736 2139.5 367.336 2128.75 371.816L2147.57 401H2122.99L2108.14 374.76H2099.31V401H2078.58ZM2099.31 355.56H2112.75C2121.07 355.56 2123.5 351.464 2123.5 345.96C2123.5 340.456 2121.07 336.488 2112.75 336.488H2099.31V355.56ZM2156.41 401V350.824C2156.41 329.192 2169.21 315.624 2192.25 315.624C2215.29 315.624 2228.09 329.192 2228.09 350.824V401H2207.35V350.824C2207.35 340.584 2202.49 334.824 2192.25 334.824C2182.01 334.824 2177.14 340.584 2177.14 350.824V401H2156.41ZM2243.33 401V317.288H2305.15V336.488H2264.06V350.184H2297.73V366.824H2264.06V381.8H2305.15V401H2243.33Z" fill="#A6D2D3"/>
<path d="M2724.58 103V19.288H2745.31V83.8H2784.86V103H2724.58ZM2796.83 103V19.288H2817.56V103H2796.83ZM2875.02 104.664C2848.91 104.664 2830.48 86.232 2830.48 61.144C2830.48 36.056 2848.91 17.624 2875.02 17.624C2897.42 17.624 2914.32 31.192 2918.54 51.032H2896.65C2893.33 42.456 2885.52 36.824 2875.02 36.824C2860.81 36.824 2851.47 47.064 2851.47 61.144C2851.47 75.224 2860.81 85.464 2875.02 85.464C2885.52 85.464 2893.33 79.832 2896.65 71.256H2918.54C2914.32 91.096 2897.42 104.664 2875.02 104.664ZM2971.15 104.664C2945.03 104.664 2926.6 86.232 2926.6 61.144C2926.6 36.056 2945.03 17.624 2971.15 17.624C2997.26 17.624 3015.69 36.056 3015.69 61.144C3015.69 86.232 2997.26 104.664 2971.15 104.664ZM2971.15 85.464C2985.35 85.464 2994.7 75.224 2994.7 61.144C2994.7 47.064 2985.35 36.824 2971.15 36.824C2956.94 36.824 2947.59 47.064 2947.59 61.144C2947.59 75.224 2956.94 85.464 2971.15 85.464ZM3028.58 103V19.288H3062.5C3084.64 19.288 3094.5 31.32 3094.5 47.96C3094.5 59.736 3089.5 69.336 3078.75 73.816L3097.57 103H3072.99L3058.14 76.76H3049.31V103H3028.58ZM3049.31 57.56H3062.75C3071.07 57.56 3073.5 53.464 3073.5 47.96C3073.5 42.456 3071.07 38.488 3062.75 38.488H3049.31V57.56ZM3106.41 103V52.824C3106.41 31.192 3119.21 17.624 3142.25 17.624C3165.29 17.624 3178.09 31.192 3178.09 52.824V103H3157.35V52.824C3157.35 42.584 3152.49 36.824 3142.25 36.824C3132.01 36.824 3127.14 42.584 3127.14 52.824V103H3106.41ZM3193.33 103V19.288H3255.15V38.488H3214.06V52.184H3247.73V68.824H3214.06V83.8H3255.15V103H3193.33Z" fill="#A6D2D3"/>
<path d="M2844.58 687V603.288H2865.31V667.8H2904.86V687H2844.58ZM2916.83 687V603.288H2937.56V687H2916.83ZM2995.02 688.664C2968.91 688.664 2950.48 670.232 2950.48 645.144C2950.48 620.056 2968.91 601.624 2995.02 601.624C3017.42 601.624 3034.32 615.192 3038.54 635.032H3016.65C3013.33 626.456 3005.52 620.824 2995.02 620.824C2980.81 620.824 2971.47 631.064 2971.47 645.144C2971.47 659.224 2980.81 669.464 2995.02 669.464C3005.52 669.464 3013.33 663.832 3016.65 655.256H3038.54C3034.32 675.096 3017.42 688.664 2995.02 688.664ZM3091.15 688.664C3065.03 688.664 3046.6 670.232 3046.6 645.144C3046.6 620.056 3065.03 601.624 3091.15 601.624C3117.26 601.624 3135.69 620.056 3135.69 645.144C3135.69 670.232 3117.26 688.664 3091.15 688.664ZM3091.15 669.464C3105.35 669.464 3114.7 659.224 3114.7 645.144C3114.7 631.064 3105.35 620.824 3091.15 620.824C3076.94 620.824 3067.59 631.064 3067.59 645.144C3067.59 659.224 3076.94 669.464 3091.15 669.464ZM3148.58 687V603.288H3182.5C3204.64 603.288 3214.5 615.32 3214.5 631.96C3214.5 643.736 3209.5 653.336 3198.75 657.816L3217.57 687H3192.99L3178.14 660.76H3169.31V687H3148.58ZM3169.31 641.56H3182.75C3191.07 641.56 3193.5 637.464 3193.5 631.96C3193.5 626.456 3191.07 622.488 3182.75 622.488H3169.31V641.56ZM3226.41 687V636.824C3226.41 615.192 3239.21 601.624 3262.25 601.624C3285.29 601.624 3298.09 615.192 3298.09 636.824V687H3277.35V636.824C3277.35 626.584 3272.49 620.824 3262.25 620.824C3252.01 620.824 3247.14 626.584 3247.14 636.824V687H3226.41ZM3313.33 687V603.288H3375.15V622.488H3334.06V636.184H3367.73V652.824H3334.06V667.8H3375.15V687H3313.33Z" fill="#A6D2D3"/>
<path d="M2944.58 401V317.288H2965.31V381.8H3004.86V401H2944.58ZM3016.83 401V317.288H3037.56V401H3016.83ZM3095.02 402.664C3068.91 402.664 3050.48 384.232 3050.48 359.144C3050.48 334.056 3068.91 315.624 3095.02 315.624C3117.42 315.624 3134.32 329.192 3138.54 349.032H3116.65C3113.33 340.456 3105.52 334.824 3095.02 334.824C3080.81 334.824 3071.47 345.064 3071.47 359.144C3071.47 373.224 3080.81 383.464 3095.02 383.464C3105.52 383.464 3113.33 377.832 3116.65 369.256H3138.54C3134.32 389.096 3117.42 402.664 3095.02 402.664ZM3191.15 402.664C3165.03 402.664 3146.6 384.232 3146.6 359.144C3146.6 334.056 3165.03 315.624 3191.15 315.624C3217.26 315.624 3235.69 334.056 3235.69 359.144C3235.69 384.232 3217.26 402.664 3191.15 402.664ZM3191.15 383.464C3205.35 383.464 3214.7 373.224 3214.7 359.144C3214.7 345.064 3205.35 334.824 3191.15 334.824C3176.94 334.824 3167.59 345.064 3167.59 359.144C3167.59 373.224 3176.94 383.464 3191.15 383.464ZM3248.58 401V317.288H3282.5C3304.64 317.288 3314.5 329.32 3314.5 345.96C3314.5 357.736 3309.5 367.336 3298.75 371.816L3317.57 401H3292.99L3278.14 374.76H3269.31V401H3248.58ZM3269.31 355.56H3282.75C3291.07 355.56 3293.5 351.464 3293.5 345.96C3293.5 340.456 3291.07 336.488 3282.75 336.488H3269.31V355.56ZM3326.41 401V350.824C3326.41 329.192 3339.21 315.624 3362.25 315.624C3385.29 315.624 3398.09 329.192 3398.09 350.824V401H3377.35V350.824C3377.35 340.584 3372.49 334.824 3362.25 334.824C3352.01 334.824 3347.14 340.584 3347.14 350.824V401H3326.41ZM3413.33 401V317.288H3475.15V336.488H3434.06V350.184H3467.73V366.824H3434.06V381.8H3475.15V401H3413.33Z" fill="#A6D2D3"/>
<path d="M370.576 103V19.288H391.312V83.8H430.864V103H370.576ZM442.826 103V19.288H463.562V103H442.826ZM521.021 104.664C494.909 104.664 476.477 86.232 476.477 61.144C476.477 36.056 494.909 17.624 521.021 17.624C543.421 17.624 560.317 31.192 564.541 51.032H542.653C539.325 42.456 531.517 36.824 521.021 36.824C506.813 36.824 497.469 47.064 497.469 61.144C497.469 75.224 506.813 85.464 521.021 85.464C531.517 85.464 539.325 79.832 542.653 71.256H564.541C560.317 91.096 543.421 104.664 521.021 104.664ZM617.146 104.664C591.034 104.664 572.602 86.232 572.602 61.144C572.602 36.056 591.034 17.624 617.146 17.624C643.258 17.624 661.69 36.056 661.69 61.144C661.69 86.232 643.258 104.664 617.146 104.664ZM617.146 85.464C631.354 85.464 640.698 75.224 640.698 61.144C640.698 47.064 631.354 36.824 617.146 36.824C602.938 36.824 593.594 47.064 593.594 61.144C593.594 75.224 602.938 85.464 617.146 85.464ZM674.576 103V19.288H708.496C730.64 19.288 740.496 31.32 740.496 47.96C740.496 59.736 735.504 69.336 724.752 73.816L743.568 103H718.992L704.144 76.76H695.312V103H674.576ZM695.312 57.56H708.752C717.072 57.56 719.504 53.464 719.504 47.96C719.504 42.456 717.072 38.488 708.752 38.488H695.312V57.56ZM752.406 103V52.824C752.406 31.192 765.206 17.624 788.246 17.624C811.286 17.624 824.086 31.192 824.086 52.824V103H803.35V52.824C803.35 42.584 798.486 36.824 788.246 36.824C778.006 36.824 773.142 42.584 773.142 52.824V103H752.406ZM839.326 103V19.288H901.15V38.488H860.062V52.184H893.726V68.824H860.062V83.8H901.15V103H839.326Z" fill="#A6D2D3"/>
<path d="M490.576 687V603.288H511.312V667.8H550.864V687H490.576ZM562.826 687V603.288H583.562V687H562.826ZM641.021 688.664C614.909 688.664 596.477 670.232 596.477 645.144C596.477 620.056 614.909 601.624 641.021 601.624C663.421 601.624 680.317 615.192 684.541 635.032H662.653C659.325 626.456 651.517 620.824 641.021 620.824C626.813 620.824 617.469 631.064 617.469 645.144C617.469 659.224 626.813 669.464 641.021 669.464C651.517 669.464 659.325 663.832 662.653 655.256H684.541C680.317 675.096 663.421 688.664 641.021 688.664ZM737.146 688.664C711.034 688.664 692.602 670.232 692.602 645.144C692.602 620.056 711.034 601.624 737.146 601.624C763.258 601.624 781.69 620.056 781.69 645.144C781.69 670.232 763.258 688.664 737.146 688.664ZM737.146 669.464C751.354 669.464 760.698 659.224 760.698 645.144C760.698 631.064 751.354 620.824 737.146 620.824C722.938 620.824 713.594 631.064 713.594 645.144C713.594 659.224 722.938 669.464 737.146 669.464ZM794.576 687V603.288H828.496C850.64 603.288 860.496 615.32 860.496 631.96C860.496 643.736 855.504 653.336 844.752 657.816L863.568 687H838.992L824.144 660.76H815.312V687H794.576ZM815.312 641.56H828.752C837.072 641.56 839.504 637.464 839.504 631.96C839.504 626.456 837.072 622.488 828.752 622.488H815.312V641.56ZM872.406 687V636.824C872.406 615.192 885.206 601.624 908.246 601.624C931.286 601.624 944.086 615.192 944.086 636.824V687H923.35V636.824C923.35 626.584 918.486 620.824 908.246 620.824C898.006 620.824 893.142 626.584 893.142 636.824V687H872.406ZM959.326 687V603.288H1021.15V622.488H980.062V636.184H1013.73V652.824H980.062V667.8H1021.15V687H959.326Z" fill="#A6D2D3"/>
<path d="M590.576 401V317.288H611.312V381.8H650.864V401H590.576ZM662.826 401V317.288H683.562V401H662.826ZM741.021 402.664C714.909 402.664 696.477 384.232 696.477 359.144C696.477 334.056 714.909 315.624 741.021 315.624C763.421 315.624 780.317 329.192 784.541 349.032H762.653C759.325 340.456 751.517 334.824 741.021 334.824C726.813 334.824 717.469 345.064 717.469 359.144C717.469 373.224 726.813 383.464 741.021 383.464C751.517 383.464 759.325 377.832 762.653 369.256H784.541C780.317 389.096 763.421 402.664 741.021 402.664ZM837.146 402.664C811.034 402.664 792.602 384.232 792.602 359.144C792.602 334.056 811.034 315.624 837.146 315.624C863.258 315.624 881.69 334.056 881.69 359.144C881.69 384.232 863.258 402.664 837.146 402.664ZM837.146 383.464C851.354 383.464 860.698 373.224 860.698 359.144C860.698 345.064 851.354 334.824 837.146 334.824C822.938 334.824 813.594 345.064 813.594 359.144C813.594 373.224 822.938 383.464 837.146 383.464ZM894.576 401V317.288H928.496C950.64 317.288 960.496 329.32 960.496 345.96C960.496 357.736 955.504 367.336 944.752 371.816L963.568 401H938.992L924.144 374.76H915.312V401H894.576ZM915.312 355.56H928.752C937.072 355.56 939.504 351.464 939.504 345.96C939.504 340.456 937.072 336.488 928.752 336.488H915.312V355.56ZM972.406 401V350.824C972.406 329.192 985.206 315.624 1008.25 315.624C1031.29 315.624 1044.09 329.192 1044.09 350.824V401H1023.35V350.824C1023.35 340.584 1018.49 334.824 1008.25 334.824C998.006 334.824 993.142 340.584 993.142 350.824V401H972.406ZM1059.33 401V317.288H1121.15V336.488H1080.06V350.184H1113.73V366.824H1080.06V381.8H1121.15V401H1059.33Z" fill="#A6D2D3"/>
</g>
<defs>
<clipPath id="clip0_114_176">
<rect width="4012" height="723" fill="white"/>
</clipPath>
</defs>
</svg>
