<svg width="2377" height="723" viewBox="0 0 2377 723" fill="none" xmlns="http://www.w3.org/2000/svg">
<g style="mix-blend-mode:hard-light" opacity="0.85" clip-path="url(#clip0_129_633)">
<path d="M76.576 271V187.288H97.312V251.8H136.864V271H76.576ZM148.826 271V187.288H169.562V271H148.826ZM227.021 272.664C200.909 272.664 182.477 254.232 182.477 229.144C182.477 204.056 200.909 185.624 227.021 185.624C249.421 185.624 266.317 199.192 270.541 219.032H248.653C245.325 210.456 237.517 204.824 227.021 204.824C212.813 204.824 203.469 215.064 203.469 229.144C203.469 243.224 212.813 253.464 227.021 253.464C237.517 253.464 245.325 247.832 248.653 239.256H270.541C266.317 259.096 249.421 272.664 227.021 272.664ZM323.146 272.664C297.034 272.664 278.602 254.232 278.602 229.144C278.602 204.056 297.034 185.624 323.146 185.624C349.258 185.624 367.69 204.056 367.69 229.144C367.69 254.232 349.258 272.664 323.146 272.664ZM323.146 253.464C337.354 253.464 346.698 243.224 346.698 229.144C346.698 215.064 337.354 204.824 323.146 204.824C308.938 204.824 299.594 215.064 299.594 229.144C299.594 243.224 308.938 253.464 323.146 253.464ZM380.576 271V187.288H414.496C436.64 187.288 446.496 199.32 446.496 215.96C446.496 227.736 441.504 237.336 430.752 241.816L449.568 271H424.992L410.144 244.76H401.312V271H380.576ZM401.312 225.56H414.752C423.072 225.56 425.504 221.464 425.504 215.96C425.504 210.456 423.072 206.488 414.752 206.488H401.312V225.56ZM458.406 271V220.824C458.406 199.192 471.206 185.624 494.246 185.624C517.286 185.624 530.086 199.192 530.086 220.824V271H509.35V220.824C509.35 210.584 504.486 204.824 494.246 204.824C484.006 204.824 479.142 210.584 479.142 220.824V271H458.406ZM545.326 271V187.288H607.15V206.488H566.062V220.184H599.726V236.824H566.062V251.8H607.15V271H545.326Z" fill="#927F28"/>
<path d="M311.576 567V483.288H332.312V547.8H371.864V567H311.576ZM383.826 567V483.288H404.562V567H383.826ZM462.021 568.664C435.909 568.664 417.477 550.232 417.477 525.144C417.477 500.056 435.909 481.624 462.021 481.624C484.421 481.624 501.317 495.192 505.541 515.032H483.653C480.325 506.456 472.517 500.824 462.021 500.824C447.813 500.824 438.469 511.064 438.469 525.144C438.469 539.224 447.813 549.464 462.021 549.464C472.517 549.464 480.325 543.832 483.653 535.256H505.541C501.317 555.096 484.421 568.664 462.021 568.664ZM558.146 568.664C532.034 568.664 513.602 550.232 513.602 525.144C513.602 500.056 532.034 481.624 558.146 481.624C584.258 481.624 602.69 500.056 602.69 525.144C602.69 550.232 584.258 568.664 558.146 568.664ZM558.146 549.464C572.354 549.464 581.698 539.224 581.698 525.144C581.698 511.064 572.354 500.824 558.146 500.824C543.938 500.824 534.594 511.064 534.594 525.144C534.594 539.224 543.938 549.464 558.146 549.464ZM615.576 567V483.288H649.496C671.64 483.288 681.496 495.32 681.496 511.96C681.496 523.736 676.504 533.336 665.752 537.816L684.568 567H659.992L645.144 540.76H636.312V567H615.576ZM636.312 521.56H649.752C658.072 521.56 660.504 517.464 660.504 511.96C660.504 506.456 658.072 502.488 649.752 502.488H636.312V521.56ZM693.406 567V516.824C693.406 495.192 706.206 481.624 729.246 481.624C752.286 481.624 765.086 495.192 765.086 516.824V567H744.35V516.824C744.35 506.584 739.486 500.824 729.246 500.824C719.006 500.824 714.142 506.584 714.142 516.824V567H693.406ZM780.326 567V483.288H842.15V502.488H801.062V516.184H834.726V532.824H801.062V547.8H842.15V567H780.326Z" fill="#927F28"/>
<path d="M1248.58 271V187.288H1269.31V251.8H1308.86V271H1248.58ZM1320.83 271V187.288H1341.56V271H1320.83ZM1399.02 272.664C1372.91 272.664 1354.48 254.232 1354.48 229.144C1354.48 204.056 1372.91 185.624 1399.02 185.624C1421.42 185.624 1438.32 199.192 1442.54 219.032H1420.65C1417.33 210.456 1409.52 204.824 1399.02 204.824C1384.81 204.824 1375.47 215.064 1375.47 229.144C1375.47 243.224 1384.81 253.464 1399.02 253.464C1409.52 253.464 1417.33 247.832 1420.65 239.256H1442.54C1438.32 259.096 1421.42 272.664 1399.02 272.664ZM1495.15 272.664C1469.03 272.664 1450.6 254.232 1450.6 229.144C1450.6 204.056 1469.03 185.624 1495.15 185.624C1521.26 185.624 1539.69 204.056 1539.69 229.144C1539.69 254.232 1521.26 272.664 1495.15 272.664ZM1495.15 253.464C1509.35 253.464 1518.7 243.224 1518.7 229.144C1518.7 215.064 1509.35 204.824 1495.15 204.824C1480.94 204.824 1471.59 215.064 1471.59 229.144C1471.59 243.224 1480.94 253.464 1495.15 253.464ZM1552.58 271V187.288H1586.5C1608.64 187.288 1618.5 199.32 1618.5 215.96C1618.5 227.736 1613.5 237.336 1602.75 241.816L1621.57 271H1596.99L1582.14 244.76H1573.31V271H1552.58ZM1573.31 225.56H1586.75C1595.07 225.56 1597.5 221.464 1597.5 215.96C1597.5 210.456 1595.07 206.488 1586.75 206.488H1573.31V225.56ZM1630.41 271V220.824C1630.41 199.192 1643.21 185.624 1666.25 185.624C1689.29 185.624 1702.09 199.192 1702.09 220.824V271H1681.35V220.824C1681.35 210.584 1676.49 204.824 1666.25 204.824C1656.01 204.824 1651.14 210.584 1651.14 220.824V271H1630.41ZM1717.33 271V187.288H1779.15V206.488H1738.06V220.184H1771.73V236.824H1738.06V251.8H1779.15V271H1717.33Z" fill="#927F28"/>
<path d="M1483.58 567V483.288H1504.31V547.8H1543.86V567H1483.58ZM1555.83 567V483.288H1576.56V567H1555.83ZM1634.02 568.664C1607.91 568.664 1589.48 550.232 1589.48 525.144C1589.48 500.056 1607.91 481.624 1634.02 481.624C1656.42 481.624 1673.32 495.192 1677.54 515.032H1655.65C1652.33 506.456 1644.52 500.824 1634.02 500.824C1619.81 500.824 1610.47 511.064 1610.47 525.144C1610.47 539.224 1619.81 549.464 1634.02 549.464C1644.52 549.464 1652.33 543.832 1655.65 535.256H1677.54C1673.32 555.096 1656.42 568.664 1634.02 568.664ZM1730.15 568.664C1704.03 568.664 1685.6 550.232 1685.6 525.144C1685.6 500.056 1704.03 481.624 1730.15 481.624C1756.26 481.624 1774.69 500.056 1774.69 525.144C1774.69 550.232 1756.26 568.664 1730.15 568.664ZM1730.15 549.464C1744.35 549.464 1753.7 539.224 1753.7 525.144C1753.7 511.064 1744.35 500.824 1730.15 500.824C1715.94 500.824 1706.59 511.064 1706.59 525.144C1706.59 539.224 1715.94 549.464 1730.15 549.464ZM1787.58 567V483.288H1821.5C1843.64 483.288 1853.5 495.32 1853.5 511.96C1853.5 523.736 1848.5 533.336 1837.75 537.816L1856.57 567H1831.99L1817.14 540.76H1808.31V567H1787.58ZM1808.31 521.56H1821.75C1830.07 521.56 1832.5 517.464 1832.5 511.96C1832.5 506.456 1830.07 502.488 1821.75 502.488H1808.31V521.56ZM1865.41 567V516.824C1865.41 495.192 1878.21 481.624 1901.25 481.624C1924.29 481.624 1937.09 495.192 1937.09 516.824V567H1916.35V516.824C1916.35 506.584 1911.49 500.824 1901.25 500.824C1891.01 500.824 1886.14 506.584 1886.14 516.824V567H1865.41ZM1952.33 567V483.288H2014.15V502.488H1973.06V516.184H2006.73V532.824H1973.06V547.8H2014.15V567H1952.33Z" fill="#927F28"/>
<path d="M77.576 256V172.288H98.312V236.8H137.864V256H77.576ZM149.826 256V172.288H170.562V256H149.826ZM228.021 257.664C201.909 257.664 183.477 239.232 183.477 214.144C183.477 189.056 201.909 170.624 228.021 170.624C250.421 170.624 267.317 184.192 271.541 204.032H249.653C246.325 195.456 238.517 189.824 228.021 189.824C213.813 189.824 204.469 200.064 204.469 214.144C204.469 228.224 213.813 238.464 228.021 238.464C238.517 238.464 246.325 232.832 249.653 224.256H271.541C267.317 244.096 250.421 257.664 228.021 257.664ZM324.146 257.664C298.034 257.664 279.602 239.232 279.602 214.144C279.602 189.056 298.034 170.624 324.146 170.624C350.258 170.624 368.69 189.056 368.69 214.144C368.69 239.232 350.258 257.664 324.146 257.664ZM324.146 238.464C338.354 238.464 347.698 228.224 347.698 214.144C347.698 200.064 338.354 189.824 324.146 189.824C309.938 189.824 300.594 200.064 300.594 214.144C300.594 228.224 309.938 238.464 324.146 238.464ZM381.576 256V172.288H415.496C437.64 172.288 447.496 184.32 447.496 200.96C447.496 212.736 442.504 222.336 431.752 226.816L450.568 256H425.992L411.144 229.76H402.312V256H381.576ZM402.312 210.56H415.752C424.072 210.56 426.504 206.464 426.504 200.96C426.504 195.456 424.072 191.488 415.752 191.488H402.312V210.56ZM459.406 256V205.824C459.406 184.192 472.206 170.624 495.246 170.624C518.286 170.624 531.086 184.192 531.086 205.824V256H510.35V205.824C510.35 195.584 505.486 189.824 495.246 189.824C485.006 189.824 480.142 195.584 480.142 205.824V256H459.406ZM546.326 256V172.288H608.15V191.488H567.062V205.184H600.726V221.824H567.062V236.8H608.15V256H546.326Z" fill="#BAAA41"/>
<path d="M312.576 552V468.288H333.312V532.8H372.864V552H312.576ZM384.826 552V468.288H405.562V552H384.826ZM463.021 553.664C436.909 553.664 418.477 535.232 418.477 510.144C418.477 485.056 436.909 466.624 463.021 466.624C485.421 466.624 502.317 480.192 506.541 500.032H484.653C481.325 491.456 473.517 485.824 463.021 485.824C448.813 485.824 439.469 496.064 439.469 510.144C439.469 524.224 448.813 534.464 463.021 534.464C473.517 534.464 481.325 528.832 484.653 520.256H506.541C502.317 540.096 485.421 553.664 463.021 553.664ZM559.146 553.664C533.034 553.664 514.602 535.232 514.602 510.144C514.602 485.056 533.034 466.624 559.146 466.624C585.258 466.624 603.69 485.056 603.69 510.144C603.69 535.232 585.258 553.664 559.146 553.664ZM559.146 534.464C573.354 534.464 582.698 524.224 582.698 510.144C582.698 496.064 573.354 485.824 559.146 485.824C544.938 485.824 535.594 496.064 535.594 510.144C535.594 524.224 544.938 534.464 559.146 534.464ZM616.576 552V468.288H650.496C672.64 468.288 682.496 480.32 682.496 496.96C682.496 508.736 677.504 518.336 666.752 522.816L685.568 552H660.992L646.144 525.76H637.312V552H616.576ZM637.312 506.56H650.752C659.072 506.56 661.504 502.464 661.504 496.96C661.504 491.456 659.072 487.488 650.752 487.488H637.312V506.56ZM694.406 552V501.824C694.406 480.192 707.206 466.624 730.246 466.624C753.286 466.624 766.086 480.192 766.086 501.824V552H745.35V501.824C745.35 491.584 740.486 485.824 730.246 485.824C720.006 485.824 715.142 491.584 715.142 501.824V552H694.406ZM781.326 552V468.288H843.15V487.488H802.062V501.184H835.726V517.824H802.062V532.8H843.15V552H781.326Z" fill="#BAAA41"/>
<path d="M1249.58 256V172.288H1270.31V236.8H1309.86V256H1249.58ZM1321.83 256V172.288H1342.56V256H1321.83ZM1400.02 257.664C1373.91 257.664 1355.48 239.232 1355.48 214.144C1355.48 189.056 1373.91 170.624 1400.02 170.624C1422.42 170.624 1439.32 184.192 1443.54 204.032H1421.65C1418.33 195.456 1410.52 189.824 1400.02 189.824C1385.81 189.824 1376.47 200.064 1376.47 214.144C1376.47 228.224 1385.81 238.464 1400.02 238.464C1410.52 238.464 1418.33 232.832 1421.65 224.256H1443.54C1439.32 244.096 1422.42 257.664 1400.02 257.664ZM1496.15 257.664C1470.03 257.664 1451.6 239.232 1451.6 214.144C1451.6 189.056 1470.03 170.624 1496.15 170.624C1522.26 170.624 1540.69 189.056 1540.69 214.144C1540.69 239.232 1522.26 257.664 1496.15 257.664ZM1496.15 238.464C1510.35 238.464 1519.7 228.224 1519.7 214.144C1519.7 200.064 1510.35 189.824 1496.15 189.824C1481.94 189.824 1472.59 200.064 1472.59 214.144C1472.59 228.224 1481.94 238.464 1496.15 238.464ZM1553.58 256V172.288H1587.5C1609.64 172.288 1619.5 184.32 1619.5 200.96C1619.5 212.736 1614.5 222.336 1603.75 226.816L1622.57 256H1597.99L1583.14 229.76H1574.31V256H1553.58ZM1574.31 210.56H1587.75C1596.07 210.56 1598.5 206.464 1598.5 200.96C1598.5 195.456 1596.07 191.488 1587.75 191.488H1574.31V210.56ZM1631.41 256V205.824C1631.41 184.192 1644.21 170.624 1667.25 170.624C1690.29 170.624 1703.09 184.192 1703.09 205.824V256H1682.35V205.824C1682.35 195.584 1677.49 189.824 1667.25 189.824C1657.01 189.824 1652.14 195.584 1652.14 205.824V256H1631.41ZM1718.33 256V172.288H1780.15V191.488H1739.06V205.184H1772.73V221.824H1739.06V236.8H1780.15V256H1718.33Z" fill="#BAAA41"/>
<path d="M1484.58 552V468.288H1505.31V532.8H1544.86V552H1484.58ZM1556.83 552V468.288H1577.56V552H1556.83ZM1635.02 553.664C1608.91 553.664 1590.48 535.232 1590.48 510.144C1590.48 485.056 1608.91 466.624 1635.02 466.624C1657.42 466.624 1674.32 480.192 1678.54 500.032H1656.65C1653.33 491.456 1645.52 485.824 1635.02 485.824C1620.81 485.824 1611.47 496.064 1611.47 510.144C1611.47 524.224 1620.81 534.464 1635.02 534.464C1645.52 534.464 1653.33 528.832 1656.65 520.256H1678.54C1674.32 540.096 1657.42 553.664 1635.02 553.664ZM1731.15 553.664C1705.03 553.664 1686.6 535.232 1686.6 510.144C1686.6 485.056 1705.03 466.624 1731.15 466.624C1757.26 466.624 1775.69 485.056 1775.69 510.144C1775.69 535.232 1757.26 553.664 1731.15 553.664ZM1731.15 534.464C1745.35 534.464 1754.7 524.224 1754.7 510.144C1754.7 496.064 1745.35 485.824 1731.15 485.824C1716.94 485.824 1707.59 496.064 1707.59 510.144C1707.59 524.224 1716.94 534.464 1731.15 534.464ZM1788.58 552V468.288H1822.5C1844.64 468.288 1854.5 480.32 1854.5 496.96C1854.5 508.736 1849.5 518.336 1838.75 522.816L1857.57 552H1832.99L1818.14 525.76H1809.31V552H1788.58ZM1809.31 506.56H1822.75C1831.07 506.56 1833.5 502.464 1833.5 496.96C1833.5 491.456 1831.07 487.488 1822.75 487.488H1809.31V506.56ZM1866.41 552V501.824C1866.41 480.192 1879.21 466.624 1902.25 466.624C1925.29 466.624 1938.09 480.192 1938.09 501.824V552H1917.35V501.824C1917.35 491.584 1912.49 485.824 1902.25 485.824C1892.01 485.824 1887.14 491.584 1887.14 501.824V552H1866.41ZM1953.33 552V468.288H2015.15V487.488H1974.06V501.184H2007.73V517.824H1974.06V532.8H2015.15V552H1953.33Z" fill="#BAAA41"/>
<path d="M668.576 264V180.288H689.312V244.8H728.864V264H668.576ZM740.826 264V180.288H761.562V264H740.826ZM819.021 265.664C792.909 265.664 774.477 247.232 774.477 222.144C774.477 197.056 792.909 178.624 819.021 178.624C841.421 178.624 858.317 192.192 862.541 212.032H840.653C837.325 203.456 829.517 197.824 819.021 197.824C804.813 197.824 795.469 208.064 795.469 222.144C795.469 236.224 804.813 246.464 819.021 246.464C829.517 246.464 837.325 240.832 840.653 232.256H862.541C858.317 252.096 841.421 265.664 819.021 265.664ZM915.146 265.664C889.034 265.664 870.602 247.232 870.602 222.144C870.602 197.056 889.034 178.624 915.146 178.624C941.258 178.624 959.69 197.056 959.69 222.144C959.69 247.232 941.258 265.664 915.146 265.664ZM915.146 246.464C929.354 246.464 938.698 236.224 938.698 222.144C938.698 208.064 929.354 197.824 915.146 197.824C900.938 197.824 891.594 208.064 891.594 222.144C891.594 236.224 900.938 246.464 915.146 246.464ZM972.576 264V180.288H1006.5C1028.64 180.288 1038.5 192.32 1038.5 208.96C1038.5 220.736 1033.5 230.336 1022.75 234.816L1041.57 264H1016.99L1002.14 237.76H993.312V264H972.576ZM993.312 218.56H1006.75C1015.07 218.56 1017.5 214.464 1017.5 208.96C1017.5 203.456 1015.07 199.488 1006.75 199.488H993.312V218.56ZM1050.41 264V213.824C1050.41 192.192 1063.21 178.624 1086.25 178.624C1109.29 178.624 1122.09 192.192 1122.09 213.824V264H1101.35V213.824C1101.35 203.584 1096.49 197.824 1086.25 197.824C1076.01 197.824 1071.14 203.584 1071.14 213.824V264H1050.41ZM1137.33 264V180.288H1199.15V199.488H1158.06V213.184H1191.73V229.824H1158.06V244.8H1199.15V264H1137.33Z" fill="#C04A84"/>
<path d="M903.576 560V476.288H924.312V540.8H963.864V560H903.576ZM975.826 560V476.288H996.562V560H975.826ZM1054.02 561.664C1027.91 561.664 1009.48 543.232 1009.48 518.144C1009.48 493.056 1027.91 474.624 1054.02 474.624C1076.42 474.624 1093.32 488.192 1097.54 508.032H1075.65C1072.33 499.456 1064.52 493.824 1054.02 493.824C1039.81 493.824 1030.47 504.064 1030.47 518.144C1030.47 532.224 1039.81 542.464 1054.02 542.464C1064.52 542.464 1072.33 536.832 1075.65 528.256H1097.54C1093.32 548.096 1076.42 561.664 1054.02 561.664ZM1150.15 561.664C1124.03 561.664 1105.6 543.232 1105.6 518.144C1105.6 493.056 1124.03 474.624 1150.15 474.624C1176.26 474.624 1194.69 493.056 1194.69 518.144C1194.69 543.232 1176.26 561.664 1150.15 561.664ZM1150.15 542.464C1164.35 542.464 1173.7 532.224 1173.7 518.144C1173.7 504.064 1164.35 493.824 1150.15 493.824C1135.94 493.824 1126.59 504.064 1126.59 518.144C1126.59 532.224 1135.94 542.464 1150.15 542.464ZM1207.58 560V476.288H1241.5C1263.64 476.288 1273.5 488.32 1273.5 504.96C1273.5 516.736 1268.5 526.336 1257.75 530.816L1276.57 560H1251.99L1237.14 533.76H1228.31V560H1207.58ZM1228.31 514.56H1241.75C1250.07 514.56 1252.5 510.464 1252.5 504.96C1252.5 499.456 1250.07 495.488 1241.75 495.488H1228.31V514.56ZM1285.41 560V509.824C1285.41 488.192 1298.21 474.624 1321.25 474.624C1344.29 474.624 1357.09 488.192 1357.09 509.824V560H1336.35V509.824C1336.35 499.584 1331.49 493.824 1321.25 493.824C1311.01 493.824 1306.14 499.584 1306.14 509.824V560H1285.41ZM1372.33 560V476.288H1434.15V495.488H1393.06V509.184H1426.73V525.824H1393.06V540.8H1434.15V560H1372.33Z" fill="#C04A84"/>
<path d="M1840.58 264V180.288H1861.31V244.8H1900.86V264H1840.58ZM1912.83 264V180.288H1933.56V264H1912.83ZM1991.02 265.664C1964.91 265.664 1946.48 247.232 1946.48 222.144C1946.48 197.056 1964.91 178.624 1991.02 178.624C2013.42 178.624 2030.32 192.192 2034.54 212.032H2012.65C2009.33 203.456 2001.52 197.824 1991.02 197.824C1976.81 197.824 1967.47 208.064 1967.47 222.144C1967.47 236.224 1976.81 246.464 1991.02 246.464C2001.52 246.464 2009.33 240.832 2012.65 232.256H2034.54C2030.32 252.096 2013.42 265.664 1991.02 265.664ZM2087.15 265.664C2061.03 265.664 2042.6 247.232 2042.6 222.144C2042.6 197.056 2061.03 178.624 2087.15 178.624C2113.26 178.624 2131.69 197.056 2131.69 222.144C2131.69 247.232 2113.26 265.664 2087.15 265.664ZM2087.15 246.464C2101.35 246.464 2110.7 236.224 2110.7 222.144C2110.7 208.064 2101.35 197.824 2087.15 197.824C2072.94 197.824 2063.59 208.064 2063.59 222.144C2063.59 236.224 2072.94 246.464 2087.15 246.464ZM2144.58 264V180.288H2178.5C2200.64 180.288 2210.5 192.32 2210.5 208.96C2210.5 220.736 2205.5 230.336 2194.75 234.816L2213.57 264H2188.99L2174.14 237.76H2165.31V264H2144.58ZM2165.31 218.56H2178.75C2187.07 218.56 2189.5 214.464 2189.5 208.96C2189.5 203.456 2187.07 199.488 2178.75 199.488H2165.31V218.56ZM2222.41 264V213.824C2222.41 192.192 2235.21 178.624 2258.25 178.624C2281.29 178.624 2294.09 192.192 2294.09 213.824V264H2273.35V213.824C2273.35 203.584 2268.49 197.824 2258.25 197.824C2248.01 197.824 2243.14 203.584 2243.14 213.824V264H2222.41ZM2309.33 264V180.288H2371.15V199.488H2330.06V213.184H2363.73V229.824H2330.06V244.8H2371.15V264H2309.33Z" fill="#C04A84"/>
<path d="M2075.58 560V476.288H2096.31V540.8H2135.86V560H2075.58ZM2147.83 560V476.288H2168.56V560H2147.83ZM2226.02 561.664C2199.91 561.664 2181.48 543.232 2181.48 518.144C2181.48 493.056 2199.91 474.624 2226.02 474.624C2248.42 474.624 2265.32 488.192 2269.54 508.032H2247.65C2244.33 499.456 2236.52 493.824 2226.02 493.824C2211.81 493.824 2202.47 504.064 2202.47 518.144C2202.47 532.224 2211.81 542.464 2226.02 542.464C2236.52 542.464 2244.33 536.832 2247.65 528.256H2269.54C2265.32 548.096 2248.42 561.664 2226.02 561.664ZM2322.15 561.664C2296.03 561.664 2277.6 543.232 2277.6 518.144C2277.6 493.056 2296.03 474.624 2322.15 474.624C2348.26 474.624 2366.69 493.056 2366.69 518.144C2366.69 543.232 2348.26 561.664 2322.15 561.664ZM2322.15 542.464C2336.35 542.464 2345.7 532.224 2345.7 518.144C2345.7 504.064 2336.35 493.824 2322.15 493.824C2307.94 493.824 2298.59 504.064 2298.59 518.144C2298.59 532.224 2307.94 542.464 2322.15 542.464ZM2379.58 560V476.288H2413.5C2435.64 476.288 2445.5 488.32 2445.5 504.96C2445.5 516.736 2440.5 526.336 2429.75 530.816L2448.57 560H2423.99L2409.14 533.76H2400.31V560H2379.58ZM2400.31 514.56H2413.75C2422.07 514.56 2424.5 510.464 2424.5 504.96C2424.5 499.456 2422.07 495.488 2413.75 495.488H2400.31V514.56ZM2457.41 560V509.824C2457.41 488.192 2470.21 474.624 2493.25 474.624C2516.29 474.624 2529.09 488.192 2529.09 509.824V560H2508.35V509.824C2508.35 499.584 2503.49 493.824 2493.25 493.824C2483.01 493.824 2478.14 499.584 2478.14 509.824V560H2457.41ZM2544.33 560V476.288H2606.15V495.488H2565.06V509.184H2598.73V525.824H2565.06V540.8H2606.15V560H2544.33Z" fill="#C04A84"/>
<path d="M-515.424 264V180.288H-494.688V244.8H-455.136V264H-515.424ZM-443.174 264V180.288H-422.438V264H-443.174ZM-364.979 265.664C-391.091 265.664 -409.523 247.232 -409.523 222.144C-409.523 197.056 -391.091 178.624 -364.979 178.624C-342.579 178.624 -325.683 192.192 -321.459 212.032H-343.347C-346.675 203.456 -354.483 197.824 -364.979 197.824C-379.187 197.824 -388.531 208.064 -388.531 222.144C-388.531 236.224 -379.187 246.464 -364.979 246.464C-354.483 246.464 -346.675 240.832 -343.347 232.256H-321.459C-325.683 252.096 -342.579 265.664 -364.979 265.664ZM-268.854 265.664C-294.966 265.664 -313.398 247.232 -313.398 222.144C-313.398 197.056 -294.966 178.624 -268.854 178.624C-242.742 178.624 -224.31 197.056 -224.31 222.144C-224.31 247.232 -242.742 265.664 -268.854 265.664ZM-268.854 246.464C-254.646 246.464 -245.302 236.224 -245.302 222.144C-245.302 208.064 -254.646 197.824 -268.854 197.824C-283.062 197.824 -292.406 208.064 -292.406 222.144C-292.406 236.224 -283.062 246.464 -268.854 246.464ZM-211.424 264V180.288H-177.504C-155.36 180.288 -145.504 192.32 -145.504 208.96C-145.504 220.736 -150.496 230.336 -161.248 234.816L-142.432 264H-167.008L-181.856 237.76H-190.688V264H-211.424ZM-190.688 218.56H-177.248C-168.928 218.56 -166.496 214.464 -166.496 208.96C-166.496 203.456 -168.928 199.488 -177.248 199.488H-190.688V218.56ZM-133.594 264V213.824C-133.594 192.192 -120.794 178.624 -97.754 178.624C-74.714 178.624 -61.914 192.192 -61.914 213.824V264H-82.65V213.824C-82.65 203.584 -87.514 197.824 -97.754 197.824C-107.994 197.824 -112.858 203.584 -112.858 213.824V264H-133.594ZM-46.674 264V180.288H15.15V199.488H-25.938V213.184H7.726V229.824H-25.938V244.8H15.15V264H-46.674Z" fill="#C04A84"/>
<path d="M-280.424 560V476.288H-259.688V540.8H-220.136V560H-280.424ZM-208.174 560V476.288H-187.438V560H-208.174ZM-129.979 561.664C-156.091 561.664 -174.523 543.232 -174.523 518.144C-174.523 493.056 -156.091 474.624 -129.979 474.624C-107.579 474.624 -90.683 488.192 -86.459 508.032H-108.347C-111.675 499.456 -119.483 493.824 -129.979 493.824C-144.187 493.824 -153.531 504.064 -153.531 518.144C-153.531 532.224 -144.187 542.464 -129.979 542.464C-119.483 542.464 -111.675 536.832 -108.347 528.256H-86.459C-90.683 548.096 -107.579 561.664 -129.979 561.664ZM-33.854 561.664C-59.966 561.664 -78.398 543.232 -78.398 518.144C-78.398 493.056 -59.966 474.624 -33.854 474.624C-7.742 474.624 10.69 493.056 10.69 518.144C10.69 543.232 -7.742 561.664 -33.854 561.664ZM-33.854 542.464C-19.646 542.464 -10.302 532.224 -10.302 518.144C-10.302 504.064 -19.646 493.824 -33.854 493.824C-48.062 493.824 -57.406 504.064 -57.406 518.144C-57.406 532.224 -48.062 542.464 -33.854 542.464ZM23.576 560V476.288H57.496C79.64 476.288 89.496 488.32 89.496 504.96C89.496 516.736 84.504 526.336 73.752 530.816L92.568 560H67.992L53.144 533.76H44.312V560H23.576ZM44.312 514.56H57.752C66.072 514.56 68.504 510.464 68.504 504.96C68.504 499.456 66.072 495.488 57.752 495.488H44.312V514.56ZM101.406 560V509.824C101.406 488.192 114.206 474.624 137.246 474.624C160.286 474.624 173.086 488.192 173.086 509.824V560H152.35V509.824C152.35 499.584 147.486 493.824 137.246 493.824C127.006 493.824 122.142 499.584 122.142 509.824V560H101.406ZM188.326 560V476.288H250.15V495.488H209.062V509.184H242.726V525.824H209.062V540.8H250.15V560H188.326Z" fill="#C04A84"/>
<path d="M669.576 249V165.288H690.312V229.8H729.864V249H669.576ZM741.826 249V165.288H762.562V249H741.826ZM820.021 250.664C793.909 250.664 775.477 232.232 775.477 207.144C775.477 182.056 793.909 163.624 820.021 163.624C842.421 163.624 859.317 177.192 863.541 197.032H841.653C838.325 188.456 830.517 182.824 820.021 182.824C805.813 182.824 796.469 193.064 796.469 207.144C796.469 221.224 805.813 231.464 820.021 231.464C830.517 231.464 838.325 225.832 841.653 217.256H863.541C859.317 237.096 842.421 250.664 820.021 250.664ZM916.146 250.664C890.034 250.664 871.602 232.232 871.602 207.144C871.602 182.056 890.034 163.624 916.146 163.624C942.258 163.624 960.69 182.056 960.69 207.144C960.69 232.232 942.258 250.664 916.146 250.664ZM916.146 231.464C930.354 231.464 939.698 221.224 939.698 207.144C939.698 193.064 930.354 182.824 916.146 182.824C901.938 182.824 892.594 193.064 892.594 207.144C892.594 221.224 901.938 231.464 916.146 231.464ZM973.576 249V165.288H1007.5C1029.64 165.288 1039.5 177.32 1039.5 193.96C1039.5 205.736 1034.5 215.336 1023.75 219.816L1042.57 249H1017.99L1003.14 222.76H994.312V249H973.576ZM994.312 203.56H1007.75C1016.07 203.56 1018.5 199.464 1018.5 193.96C1018.5 188.456 1016.07 184.488 1007.75 184.488H994.312V203.56ZM1051.41 249V198.824C1051.41 177.192 1064.21 163.624 1087.25 163.624C1110.29 163.624 1123.09 177.192 1123.09 198.824V249H1102.35V198.824C1102.35 188.584 1097.49 182.824 1087.25 182.824C1077.01 182.824 1072.14 188.584 1072.14 198.824V249H1051.41ZM1138.33 249V165.288H1200.15V184.488H1159.06V198.184H1192.73V214.824H1159.06V229.8H1200.15V249H1138.33Z" fill="#E471A8"/>
<path d="M904.576 545V461.288H925.312V525.8H964.864V545H904.576ZM976.826 545V461.288H997.562V545H976.826ZM1055.02 546.664C1028.91 546.664 1010.48 528.232 1010.48 503.144C1010.48 478.056 1028.91 459.624 1055.02 459.624C1077.42 459.624 1094.32 473.192 1098.54 493.032H1076.65C1073.33 484.456 1065.52 478.824 1055.02 478.824C1040.81 478.824 1031.47 489.064 1031.47 503.144C1031.47 517.224 1040.81 527.464 1055.02 527.464C1065.52 527.464 1073.33 521.832 1076.65 513.256H1098.54C1094.32 533.096 1077.42 546.664 1055.02 546.664ZM1151.15 546.664C1125.03 546.664 1106.6 528.232 1106.6 503.144C1106.6 478.056 1125.03 459.624 1151.15 459.624C1177.26 459.624 1195.69 478.056 1195.69 503.144C1195.69 528.232 1177.26 546.664 1151.15 546.664ZM1151.15 527.464C1165.35 527.464 1174.7 517.224 1174.7 503.144C1174.7 489.064 1165.35 478.824 1151.15 478.824C1136.94 478.824 1127.59 489.064 1127.59 503.144C1127.59 517.224 1136.94 527.464 1151.15 527.464ZM1208.58 545V461.288H1242.5C1264.64 461.288 1274.5 473.32 1274.5 489.96C1274.5 501.736 1269.5 511.336 1258.75 515.816L1277.57 545H1252.99L1238.14 518.76H1229.31V545H1208.58ZM1229.31 499.56H1242.75C1251.07 499.56 1253.5 495.464 1253.5 489.96C1253.5 484.456 1251.07 480.488 1242.75 480.488H1229.31V499.56ZM1286.41 545V494.824C1286.41 473.192 1299.21 459.624 1322.25 459.624C1345.29 459.624 1358.09 473.192 1358.09 494.824V545H1337.35V494.824C1337.35 484.584 1332.49 478.824 1322.25 478.824C1312.01 478.824 1307.14 484.584 1307.14 494.824V545H1286.41ZM1373.33 545V461.288H1435.15V480.488H1394.06V494.184H1427.73V510.824H1394.06V525.8H1435.15V545H1373.33Z" fill="#E471A8"/>
<path d="M1841.58 249V165.288H1862.31V229.8H1901.86V249H1841.58ZM1913.83 249V165.288H1934.56V249H1913.83ZM1992.02 250.664C1965.91 250.664 1947.48 232.232 1947.48 207.144C1947.48 182.056 1965.91 163.624 1992.02 163.624C2014.42 163.624 2031.32 177.192 2035.54 197.032H2013.65C2010.33 188.456 2002.52 182.824 1992.02 182.824C1977.81 182.824 1968.47 193.064 1968.47 207.144C1968.47 221.224 1977.81 231.464 1992.02 231.464C2002.52 231.464 2010.33 225.832 2013.65 217.256H2035.54C2031.32 237.096 2014.42 250.664 1992.02 250.664ZM2088.15 250.664C2062.03 250.664 2043.6 232.232 2043.6 207.144C2043.6 182.056 2062.03 163.624 2088.15 163.624C2114.26 163.624 2132.69 182.056 2132.69 207.144C2132.69 232.232 2114.26 250.664 2088.15 250.664ZM2088.15 231.464C2102.35 231.464 2111.7 221.224 2111.7 207.144C2111.7 193.064 2102.35 182.824 2088.15 182.824C2073.94 182.824 2064.59 193.064 2064.59 207.144C2064.59 221.224 2073.94 231.464 2088.15 231.464ZM2145.58 249V165.288H2179.5C2201.64 165.288 2211.5 177.32 2211.5 193.96C2211.5 205.736 2206.5 215.336 2195.75 219.816L2214.57 249H2189.99L2175.14 222.76H2166.31V249H2145.58ZM2166.31 203.56H2179.75C2188.07 203.56 2190.5 199.464 2190.5 193.96C2190.5 188.456 2188.07 184.488 2179.75 184.488H2166.31V203.56ZM2223.41 249V198.824C2223.41 177.192 2236.21 163.624 2259.25 163.624C2282.29 163.624 2295.09 177.192 2295.09 198.824V249H2274.35V198.824C2274.35 188.584 2269.49 182.824 2259.25 182.824C2249.01 182.824 2244.14 188.584 2244.14 198.824V249H2223.41ZM2310.33 249V165.288H2372.15V184.488H2331.06V198.184H2364.73V214.824H2331.06V229.8H2372.15V249H2310.33Z" fill="#E471A8"/>
<path d="M2076.58 545V461.288H2097.31V525.8H2136.86V545H2076.58ZM2148.83 545V461.288H2169.56V545H2148.83ZM2227.02 546.664C2200.91 546.664 2182.48 528.232 2182.48 503.144C2182.48 478.056 2200.91 459.624 2227.02 459.624C2249.42 459.624 2266.32 473.192 2270.54 493.032H2248.65C2245.33 484.456 2237.52 478.824 2227.02 478.824C2212.81 478.824 2203.47 489.064 2203.47 503.144C2203.47 517.224 2212.81 527.464 2227.02 527.464C2237.52 527.464 2245.33 521.832 2248.65 513.256H2270.54C2266.32 533.096 2249.42 546.664 2227.02 546.664ZM2323.15 546.664C2297.03 546.664 2278.6 528.232 2278.6 503.144C2278.6 478.056 2297.03 459.624 2323.15 459.624C2349.26 459.624 2367.69 478.056 2367.69 503.144C2367.69 528.232 2349.26 546.664 2323.15 546.664ZM2323.15 527.464C2337.35 527.464 2346.7 517.224 2346.7 503.144C2346.7 489.064 2337.35 478.824 2323.15 478.824C2308.94 478.824 2299.59 489.064 2299.59 503.144C2299.59 517.224 2308.94 527.464 2323.15 527.464ZM2380.58 545V461.288H2414.5C2436.64 461.288 2446.5 473.32 2446.5 489.96C2446.5 501.736 2441.5 511.336 2430.75 515.816L2449.57 545H2424.99L2410.14 518.76H2401.31V545H2380.58ZM2401.31 499.56H2414.75C2423.07 499.56 2425.5 495.464 2425.5 489.96C2425.5 484.456 2423.07 480.488 2414.75 480.488H2401.31V499.56ZM2458.41 545V494.824C2458.41 473.192 2471.21 459.624 2494.25 459.624C2517.29 459.624 2530.09 473.192 2530.09 494.824V545H2509.35V494.824C2509.35 484.584 2504.49 478.824 2494.25 478.824C2484.01 478.824 2479.14 484.584 2479.14 494.824V545H2458.41ZM2545.33 545V461.288H2607.15V480.488H2566.06V494.184H2599.73V510.824H2566.06V525.8H2607.15V545H2545.33Z" fill="#E471A8"/>
<path d="M-514.424 249V165.288H-493.688V229.8H-454.136V249H-514.424ZM-442.174 249V165.288H-421.438V249H-442.174ZM-363.979 250.664C-390.091 250.664 -408.523 232.232 -408.523 207.144C-408.523 182.056 -390.091 163.624 -363.979 163.624C-341.579 163.624 -324.683 177.192 -320.459 197.032H-342.347C-345.675 188.456 -353.483 182.824 -363.979 182.824C-378.187 182.824 -387.531 193.064 -387.531 207.144C-387.531 221.224 -378.187 231.464 -363.979 231.464C-353.483 231.464 -345.675 225.832 -342.347 217.256H-320.459C-324.683 237.096 -341.579 250.664 -363.979 250.664ZM-267.854 250.664C-293.966 250.664 -312.398 232.232 -312.398 207.144C-312.398 182.056 -293.966 163.624 -267.854 163.624C-241.742 163.624 -223.31 182.056 -223.31 207.144C-223.31 232.232 -241.742 250.664 -267.854 250.664ZM-267.854 231.464C-253.646 231.464 -244.302 221.224 -244.302 207.144C-244.302 193.064 -253.646 182.824 -267.854 182.824C-282.062 182.824 -291.406 193.064 -291.406 207.144C-291.406 221.224 -282.062 231.464 -267.854 231.464ZM-210.424 249V165.288H-176.504C-154.36 165.288 -144.504 177.32 -144.504 193.96C-144.504 205.736 -149.496 215.336 -160.248 219.816L-141.432 249H-166.008L-180.856 222.76H-189.688V249H-210.424ZM-189.688 203.56H-176.248C-167.928 203.56 -165.496 199.464 -165.496 193.96C-165.496 188.456 -167.928 184.488 -176.248 184.488H-189.688V203.56ZM-132.594 249V198.824C-132.594 177.192 -119.794 163.624 -96.754 163.624C-73.714 163.624 -60.914 177.192 -60.914 198.824V249H-81.65V198.824C-81.65 188.584 -86.514 182.824 -96.754 182.824C-106.994 182.824 -111.858 188.584 -111.858 198.824V249H-132.594ZM-45.674 249V165.288H16.15V184.488H-24.938V198.184H8.726V214.824H-24.938V229.8H16.15V249H-45.674Z" fill="#E471A8"/>
<path d="M-279.424 545V461.288H-258.688V525.8H-219.136V545H-279.424ZM-207.174 545V461.288H-186.438V545H-207.174ZM-128.979 546.664C-155.091 546.664 -173.523 528.232 -173.523 503.144C-173.523 478.056 -155.091 459.624 -128.979 459.624C-106.579 459.624 -89.683 473.192 -85.459 493.032H-107.347C-110.675 484.456 -118.483 478.824 -128.979 478.824C-143.187 478.824 -152.531 489.064 -152.531 503.144C-152.531 517.224 -143.187 527.464 -128.979 527.464C-118.483 527.464 -110.675 521.832 -107.347 513.256H-85.459C-89.683 533.096 -106.579 546.664 -128.979 546.664ZM-32.854 546.664C-58.966 546.664 -77.398 528.232 -77.398 503.144C-77.398 478.056 -58.966 459.624 -32.854 459.624C-6.742 459.624 11.69 478.056 11.69 503.144C11.69 528.232 -6.742 546.664 -32.854 546.664ZM-32.854 527.464C-18.646 527.464 -9.30199 517.224 -9.30199 503.144C-9.30199 489.064 -18.646 478.824 -32.854 478.824C-47.062 478.824 -56.406 489.064 -56.406 503.144C-56.406 517.224 -47.062 527.464 -32.854 527.464ZM24.576 545V461.288H58.496C80.64 461.288 90.496 473.32 90.496 489.96C90.496 501.736 85.504 511.336 74.752 515.816L93.568 545H68.992L54.144 518.76H45.312V545H24.576ZM45.312 499.56H58.752C67.072 499.56 69.504 495.464 69.504 489.96C69.504 484.456 67.072 480.488 58.752 480.488H45.312V499.56ZM102.406 545V494.824C102.406 473.192 115.206 459.624 138.246 459.624C161.286 459.624 174.086 473.192 174.086 494.824V545H153.35V494.824C153.35 484.584 148.486 478.824 138.246 478.824C128.006 478.824 123.142 484.584 123.142 494.824V545H102.406ZM189.326 545V461.288H251.15V480.488H210.062V494.184H243.726V510.824H210.062V525.8H251.15V545H189.326Z" fill="#E471A8"/>
<path d="M357.576 113V29.288H378.312V93.8H417.864V113H357.576ZM429.826 113V29.288H450.562V113H429.826ZM508.021 114.664C481.909 114.664 463.477 96.232 463.477 71.144C463.477 46.056 481.909 27.624 508.021 27.624C530.421 27.624 547.317 41.192 551.541 61.032H529.653C526.325 52.456 518.517 46.824 508.021 46.824C493.813 46.824 484.469 57.064 484.469 71.144C484.469 85.224 493.813 95.464 508.021 95.464C518.517 95.464 526.325 89.832 529.653 81.256H551.541C547.317 101.096 530.421 114.664 508.021 114.664ZM604.146 114.664C578.034 114.664 559.602 96.232 559.602 71.144C559.602 46.056 578.034 27.624 604.146 27.624C630.258 27.624 648.69 46.056 648.69 71.144C648.69 96.232 630.258 114.664 604.146 114.664ZM604.146 95.464C618.354 95.464 627.698 85.224 627.698 71.144C627.698 57.064 618.354 46.824 604.146 46.824C589.938 46.824 580.594 57.064 580.594 71.144C580.594 85.224 589.938 95.464 604.146 95.464ZM661.576 113V29.288H695.496C717.64 29.288 727.496 41.32 727.496 57.96C727.496 69.736 722.504 79.336 711.752 83.816L730.568 113H705.992L691.144 86.76H682.312V113H661.576ZM682.312 67.56H695.752C704.072 67.56 706.504 63.464 706.504 57.96C706.504 52.456 704.072 48.488 695.752 48.488H682.312V67.56ZM739.406 113V62.824C739.406 41.192 752.206 27.624 775.246 27.624C798.286 27.624 811.086 41.192 811.086 62.824V113H790.35V62.824C790.35 52.584 785.486 46.824 775.246 46.824C765.006 46.824 760.142 52.584 760.142 62.824V113H739.406ZM826.326 113V29.288H888.15V48.488H847.062V62.184H880.726V78.824H847.062V93.8H888.15V113H826.326Z" fill="#E99B59"/>
<path d="M477.576 697V613.288H498.312V677.8H537.864V697H477.576ZM549.826 697V613.288H570.562V697H549.826ZM628.021 698.664C601.909 698.664 583.477 680.232 583.477 655.144C583.477 630.056 601.909 611.624 628.021 611.624C650.421 611.624 667.317 625.192 671.541 645.032H649.653C646.325 636.456 638.517 630.824 628.021 630.824C613.813 630.824 604.469 641.064 604.469 655.144C604.469 669.224 613.813 679.464 628.021 679.464C638.517 679.464 646.325 673.832 649.653 665.256H671.541C667.317 685.096 650.421 698.664 628.021 698.664ZM724.146 698.664C698.034 698.664 679.602 680.232 679.602 655.144C679.602 630.056 698.034 611.624 724.146 611.624C750.258 611.624 768.69 630.056 768.69 655.144C768.69 680.232 750.258 698.664 724.146 698.664ZM724.146 679.464C738.354 679.464 747.698 669.224 747.698 655.144C747.698 641.064 738.354 630.824 724.146 630.824C709.938 630.824 700.594 641.064 700.594 655.144C700.594 669.224 709.938 679.464 724.146 679.464ZM781.576 697V613.288H815.496C837.64 613.288 847.496 625.32 847.496 641.96C847.496 653.736 842.504 663.336 831.752 667.816L850.568 697H825.992L811.144 670.76H802.312V697H781.576ZM802.312 651.56H815.752C824.072 651.56 826.504 647.464 826.504 641.96C826.504 636.456 824.072 632.488 815.752 632.488H802.312V651.56ZM859.406 697V646.824C859.406 625.192 872.206 611.624 895.246 611.624C918.286 611.624 931.086 625.192 931.086 646.824V697H910.35V646.824C910.35 636.584 905.486 630.824 895.246 630.824C885.006 630.824 880.142 636.584 880.142 646.824V697H859.406ZM946.326 697V613.288H1008.15V632.488H967.062V646.184H1000.73V662.824H967.062V677.8H1008.15V697H946.326Z" fill="#E99B59"/>
<path d="M577.576 411V327.288H598.312V391.8H637.864V411H577.576ZM649.826 411V327.288H670.562V411H649.826ZM728.021 412.664C701.909 412.664 683.477 394.232 683.477 369.144C683.477 344.056 701.909 325.624 728.021 325.624C750.421 325.624 767.317 339.192 771.541 359.032H749.653C746.325 350.456 738.517 344.824 728.021 344.824C713.813 344.824 704.469 355.064 704.469 369.144C704.469 383.224 713.813 393.464 728.021 393.464C738.517 393.464 746.325 387.832 749.653 379.256H771.541C767.317 399.096 750.421 412.664 728.021 412.664ZM824.146 412.664C798.034 412.664 779.602 394.232 779.602 369.144C779.602 344.056 798.034 325.624 824.146 325.624C850.258 325.624 868.69 344.056 868.69 369.144C868.69 394.232 850.258 412.664 824.146 412.664ZM824.146 393.464C838.354 393.464 847.698 383.224 847.698 369.144C847.698 355.064 838.354 344.824 824.146 344.824C809.938 344.824 800.594 355.064 800.594 369.144C800.594 383.224 809.938 393.464 824.146 393.464ZM881.576 411V327.288H915.496C937.64 327.288 947.496 339.32 947.496 355.96C947.496 367.736 942.504 377.336 931.752 381.816L950.568 411H925.992L911.144 384.76H902.312V411H881.576ZM902.312 365.56H915.752C924.072 365.56 926.504 361.464 926.504 355.96C926.504 350.456 924.072 346.488 915.752 346.488H902.312V365.56ZM959.406 411V360.824C959.406 339.192 972.206 325.624 995.246 325.624C1018.29 325.624 1031.09 339.192 1031.09 360.824V411H1010.35V360.824C1010.35 350.584 1005.49 344.824 995.246 344.824C985.006 344.824 980.142 350.584 980.142 360.824V411H959.406ZM1046.33 411V327.288H1108.15V346.488H1067.06V360.184H1100.73V376.824H1067.06V391.8H1108.15V411H1046.33Z" fill="#E99B59"/>
<path d="M1527.58 113V29.288H1548.31V93.8H1587.86V113H1527.58ZM1599.83 113V29.288H1620.56V113H1599.83ZM1678.02 114.664C1651.91 114.664 1633.48 96.232 1633.48 71.144C1633.48 46.056 1651.91 27.624 1678.02 27.624C1700.42 27.624 1717.32 41.192 1721.54 61.032H1699.65C1696.33 52.456 1688.52 46.824 1678.02 46.824C1663.81 46.824 1654.47 57.064 1654.47 71.144C1654.47 85.224 1663.81 95.464 1678.02 95.464C1688.52 95.464 1696.33 89.832 1699.65 81.256H1721.54C1717.32 101.096 1700.42 114.664 1678.02 114.664ZM1774.15 114.664C1748.03 114.664 1729.6 96.232 1729.6 71.144C1729.6 46.056 1748.03 27.624 1774.15 27.624C1800.26 27.624 1818.69 46.056 1818.69 71.144C1818.69 96.232 1800.26 114.664 1774.15 114.664ZM1774.15 95.464C1788.35 95.464 1797.7 85.224 1797.7 71.144C1797.7 57.064 1788.35 46.824 1774.15 46.824C1759.94 46.824 1750.59 57.064 1750.59 71.144C1750.59 85.224 1759.94 95.464 1774.15 95.464ZM1831.58 113V29.288H1865.5C1887.64 29.288 1897.5 41.32 1897.5 57.96C1897.5 69.736 1892.5 79.336 1881.75 83.816L1900.57 113H1875.99L1861.14 86.76H1852.31V113H1831.58ZM1852.31 67.56H1865.75C1874.07 67.56 1876.5 63.464 1876.5 57.96C1876.5 52.456 1874.07 48.488 1865.75 48.488H1852.31V67.56ZM1909.41 113V62.824C1909.41 41.192 1922.21 27.624 1945.25 27.624C1968.29 27.624 1981.09 41.192 1981.09 62.824V113H1960.35V62.824C1960.35 52.584 1955.49 46.824 1945.25 46.824C1935.01 46.824 1930.14 52.584 1930.14 62.824V113H1909.41ZM1996.33 113V29.288H2058.15V48.488H2017.06V62.184H2050.73V78.824H2017.06V93.8H2058.15V113H1996.33Z" fill="#E99B59"/>
<path d="M1647.58 697V613.288H1668.31V677.8H1707.86V697H1647.58ZM1719.83 697V613.288H1740.56V697H1719.83ZM1798.02 698.664C1771.91 698.664 1753.48 680.232 1753.48 655.144C1753.48 630.056 1771.91 611.624 1798.02 611.624C1820.42 611.624 1837.32 625.192 1841.54 645.032H1819.65C1816.33 636.456 1808.52 630.824 1798.02 630.824C1783.81 630.824 1774.47 641.064 1774.47 655.144C1774.47 669.224 1783.81 679.464 1798.02 679.464C1808.52 679.464 1816.33 673.832 1819.65 665.256H1841.54C1837.32 685.096 1820.42 698.664 1798.02 698.664ZM1894.15 698.664C1868.03 698.664 1849.6 680.232 1849.6 655.144C1849.6 630.056 1868.03 611.624 1894.15 611.624C1920.26 611.624 1938.69 630.056 1938.69 655.144C1938.69 680.232 1920.26 698.664 1894.15 698.664ZM1894.15 679.464C1908.35 679.464 1917.7 669.224 1917.7 655.144C1917.7 641.064 1908.35 630.824 1894.15 630.824C1879.94 630.824 1870.59 641.064 1870.59 655.144C1870.59 669.224 1879.94 679.464 1894.15 679.464ZM1951.58 697V613.288H1985.5C2007.64 613.288 2017.5 625.32 2017.5 641.96C2017.5 653.736 2012.5 663.336 2001.75 667.816L2020.57 697H1995.99L1981.14 670.76H1972.31V697H1951.58ZM1972.31 651.56H1985.75C1994.07 651.56 1996.5 647.464 1996.5 641.96C1996.5 636.456 1994.07 632.488 1985.75 632.488H1972.31V651.56ZM2029.41 697V646.824C2029.41 625.192 2042.21 611.624 2065.25 611.624C2088.29 611.624 2101.09 625.192 2101.09 646.824V697H2080.35V646.824C2080.35 636.584 2075.49 630.824 2065.25 630.824C2055.01 630.824 2050.14 636.584 2050.14 646.824V697H2029.41ZM2116.33 697V613.288H2178.15V632.488H2137.06V646.184H2170.73V662.824H2137.06V677.8H2178.15V697H2116.33Z" fill="#E99B59"/>
<path d="M1747.58 411V327.288H1768.31V391.8H1807.86V411H1747.58ZM1819.83 411V327.288H1840.56V411H1819.83ZM1898.02 412.664C1871.91 412.664 1853.48 394.232 1853.48 369.144C1853.48 344.056 1871.91 325.624 1898.02 325.624C1920.42 325.624 1937.32 339.192 1941.54 359.032H1919.65C1916.33 350.456 1908.52 344.824 1898.02 344.824C1883.81 344.824 1874.47 355.064 1874.47 369.144C1874.47 383.224 1883.81 393.464 1898.02 393.464C1908.52 393.464 1916.33 387.832 1919.65 379.256H1941.54C1937.32 399.096 1920.42 412.664 1898.02 412.664ZM1994.15 412.664C1968.03 412.664 1949.6 394.232 1949.6 369.144C1949.6 344.056 1968.03 325.624 1994.15 325.624C2020.26 325.624 2038.69 344.056 2038.69 369.144C2038.69 394.232 2020.26 412.664 1994.15 412.664ZM1994.15 393.464C2008.35 393.464 2017.7 383.224 2017.7 369.144C2017.7 355.064 2008.35 344.824 1994.15 344.824C1979.94 344.824 1970.59 355.064 1970.59 369.144C1970.59 383.224 1979.94 393.464 1994.15 393.464ZM2051.58 411V327.288H2085.5C2107.64 327.288 2117.5 339.32 2117.5 355.96C2117.5 367.736 2112.5 377.336 2101.75 381.816L2120.57 411H2095.99L2081.14 384.76H2072.31V411H2051.58ZM2072.31 365.56H2085.75C2094.07 365.56 2096.5 361.464 2096.5 355.96C2096.5 350.456 2094.07 346.488 2085.75 346.488H2072.31V365.56ZM2129.41 411V360.824C2129.41 339.192 2142.21 325.624 2165.25 325.624C2188.29 325.624 2201.09 339.192 2201.09 360.824V411H2180.35V360.824C2180.35 350.584 2175.49 344.824 2165.25 344.824C2155.01 344.824 2150.14 350.584 2150.14 360.824V411H2129.41ZM2216.33 411V327.288H2278.15V346.488H2237.06V360.184H2270.73V376.824H2237.06V391.8H2278.15V411H2216.33Z" fill="#E99B59"/>
<path d="M358.576 98V14.288H379.312V78.8H418.864V98H358.576ZM430.826 98V14.288H451.562V98H430.826ZM509.021 99.664C482.909 99.664 464.477 81.232 464.477 56.144C464.477 31.056 482.909 12.624 509.021 12.624C531.421 12.624 548.317 26.192 552.541 46.032H530.653C527.325 37.456 519.517 31.824 509.021 31.824C494.813 31.824 485.469 42.064 485.469 56.144C485.469 70.224 494.813 80.464 509.021 80.464C519.517 80.464 527.325 74.832 530.653 66.256H552.541C548.317 86.096 531.421 99.664 509.021 99.664ZM605.146 99.664C579.034 99.664 560.602 81.232 560.602 56.144C560.602 31.056 579.034 12.624 605.146 12.624C631.258 12.624 649.69 31.056 649.69 56.144C649.69 81.232 631.258 99.664 605.146 99.664ZM605.146 80.464C619.354 80.464 628.698 70.224 628.698 56.144C628.698 42.064 619.354 31.824 605.146 31.824C590.938 31.824 581.594 42.064 581.594 56.144C581.594 70.224 590.938 80.464 605.146 80.464ZM662.576 98V14.288H696.496C718.64 14.288 728.496 26.32 728.496 42.96C728.496 54.736 723.504 64.336 712.752 68.816L731.568 98H706.992L692.144 71.76H683.312V98H662.576ZM683.312 52.56H696.752C705.072 52.56 707.504 48.464 707.504 42.96C707.504 37.456 705.072 33.488 696.752 33.488H683.312V52.56ZM740.406 98V47.824C740.406 26.192 753.206 12.624 776.246 12.624C799.286 12.624 812.086 26.192 812.086 47.824V98H791.35V47.824C791.35 37.584 786.486 31.824 776.246 31.824C766.006 31.824 761.142 37.584 761.142 47.824V98H740.406ZM827.326 98V14.288H889.15V33.488H848.062V47.184H881.726V63.824H848.062V78.8H889.15V98H827.326Z" fill="#EFC24C"/>
<path d="M478.576 682V598.288H499.312V662.8H538.864V682H478.576ZM550.826 682V598.288H571.562V682H550.826ZM629.021 683.664C602.909 683.664 584.477 665.232 584.477 640.144C584.477 615.056 602.909 596.624 629.021 596.624C651.421 596.624 668.317 610.192 672.541 630.032H650.653C647.325 621.456 639.517 615.824 629.021 615.824C614.813 615.824 605.469 626.064 605.469 640.144C605.469 654.224 614.813 664.464 629.021 664.464C639.517 664.464 647.325 658.832 650.653 650.256H672.541C668.317 670.096 651.421 683.664 629.021 683.664ZM725.146 683.664C699.034 683.664 680.602 665.232 680.602 640.144C680.602 615.056 699.034 596.624 725.146 596.624C751.258 596.624 769.69 615.056 769.69 640.144C769.69 665.232 751.258 683.664 725.146 683.664ZM725.146 664.464C739.354 664.464 748.698 654.224 748.698 640.144C748.698 626.064 739.354 615.824 725.146 615.824C710.938 615.824 701.594 626.064 701.594 640.144C701.594 654.224 710.938 664.464 725.146 664.464ZM782.576 682V598.288H816.496C838.64 598.288 848.496 610.32 848.496 626.96C848.496 638.736 843.504 648.336 832.752 652.816L851.568 682H826.992L812.144 655.76H803.312V682H782.576ZM803.312 636.56H816.752C825.072 636.56 827.504 632.464 827.504 626.96C827.504 621.456 825.072 617.488 816.752 617.488H803.312V636.56ZM860.406 682V631.824C860.406 610.192 873.206 596.624 896.246 596.624C919.286 596.624 932.086 610.192 932.086 631.824V682H911.35V631.824C911.35 621.584 906.486 615.824 896.246 615.824C886.006 615.824 881.142 621.584 881.142 631.824V682H860.406ZM947.326 682V598.288H1009.15V617.488H968.062V631.184H1001.73V647.824H968.062V662.8H1009.15V682H947.326Z" fill="#EFC24C"/>
<path d="M578.576 396V312.288H599.312V376.8H638.864V396H578.576ZM650.826 396V312.288H671.562V396H650.826ZM729.021 397.664C702.909 397.664 684.477 379.232 684.477 354.144C684.477 329.056 702.909 310.624 729.021 310.624C751.421 310.624 768.317 324.192 772.541 344.032H750.653C747.325 335.456 739.517 329.824 729.021 329.824C714.813 329.824 705.469 340.064 705.469 354.144C705.469 368.224 714.813 378.464 729.021 378.464C739.517 378.464 747.325 372.832 750.653 364.256H772.541C768.317 384.096 751.421 397.664 729.021 397.664ZM825.146 397.664C799.034 397.664 780.602 379.232 780.602 354.144C780.602 329.056 799.034 310.624 825.146 310.624C851.258 310.624 869.69 329.056 869.69 354.144C869.69 379.232 851.258 397.664 825.146 397.664ZM825.146 378.464C839.354 378.464 848.698 368.224 848.698 354.144C848.698 340.064 839.354 329.824 825.146 329.824C810.938 329.824 801.594 340.064 801.594 354.144C801.594 368.224 810.938 378.464 825.146 378.464ZM882.576 396V312.288H916.496C938.64 312.288 948.496 324.32 948.496 340.96C948.496 352.736 943.504 362.336 932.752 366.816L951.568 396H926.992L912.144 369.76H903.312V396H882.576ZM903.312 350.56H916.752C925.072 350.56 927.504 346.464 927.504 340.96C927.504 335.456 925.072 331.488 916.752 331.488H903.312V350.56ZM960.406 396V345.824C960.406 324.192 973.206 310.624 996.246 310.624C1019.29 310.624 1032.09 324.192 1032.09 345.824V396H1011.35V345.824C1011.35 335.584 1006.49 329.824 996.246 329.824C986.006 329.824 981.142 335.584 981.142 345.824V396H960.406ZM1047.33 396V312.288H1109.15V331.488H1068.06V345.184H1101.73V361.824H1068.06V376.8H1109.15V396H1047.33Z" fill="#EFC24C"/>
<path d="M1528.58 98V14.288H1549.31V78.8H1588.86V98H1528.58ZM1600.83 98V14.288H1621.56V98H1600.83ZM1679.02 99.664C1652.91 99.664 1634.48 81.232 1634.48 56.144C1634.48 31.056 1652.91 12.624 1679.02 12.624C1701.42 12.624 1718.32 26.192 1722.54 46.032H1700.65C1697.33 37.456 1689.52 31.824 1679.02 31.824C1664.81 31.824 1655.47 42.064 1655.47 56.144C1655.47 70.224 1664.81 80.464 1679.02 80.464C1689.52 80.464 1697.33 74.832 1700.65 66.256H1722.54C1718.32 86.096 1701.42 99.664 1679.02 99.664ZM1775.15 99.664C1749.03 99.664 1730.6 81.232 1730.6 56.144C1730.6 31.056 1749.03 12.624 1775.15 12.624C1801.26 12.624 1819.69 31.056 1819.69 56.144C1819.69 81.232 1801.26 99.664 1775.15 99.664ZM1775.15 80.464C1789.35 80.464 1798.7 70.224 1798.7 56.144C1798.7 42.064 1789.35 31.824 1775.15 31.824C1760.94 31.824 1751.59 42.064 1751.59 56.144C1751.59 70.224 1760.94 80.464 1775.15 80.464ZM1832.58 98V14.288H1866.5C1888.64 14.288 1898.5 26.32 1898.5 42.96C1898.5 54.736 1893.5 64.336 1882.75 68.816L1901.57 98H1876.99L1862.14 71.76H1853.31V98H1832.58ZM1853.31 52.56H1866.75C1875.07 52.56 1877.5 48.464 1877.5 42.96C1877.5 37.456 1875.07 33.488 1866.75 33.488H1853.31V52.56ZM1910.41 98V47.824C1910.41 26.192 1923.21 12.624 1946.25 12.624C1969.29 12.624 1982.09 26.192 1982.09 47.824V98H1961.35V47.824C1961.35 37.584 1956.49 31.824 1946.25 31.824C1936.01 31.824 1931.14 37.584 1931.14 47.824V98H1910.41ZM1997.33 98V14.288H2059.15V33.488H2018.06V47.184H2051.73V63.824H2018.06V78.8H2059.15V98H1997.33Z" fill="#EFC24C"/>
<path d="M1648.58 682V598.288H1669.31V662.8H1708.86V682H1648.58ZM1720.83 682V598.288H1741.56V682H1720.83ZM1799.02 683.664C1772.91 683.664 1754.48 665.232 1754.48 640.144C1754.48 615.056 1772.91 596.624 1799.02 596.624C1821.42 596.624 1838.32 610.192 1842.54 630.032H1820.65C1817.33 621.456 1809.52 615.824 1799.02 615.824C1784.81 615.824 1775.47 626.064 1775.47 640.144C1775.47 654.224 1784.81 664.464 1799.02 664.464C1809.52 664.464 1817.33 658.832 1820.65 650.256H1842.54C1838.32 670.096 1821.42 683.664 1799.02 683.664ZM1895.15 683.664C1869.03 683.664 1850.6 665.232 1850.6 640.144C1850.6 615.056 1869.03 596.624 1895.15 596.624C1921.26 596.624 1939.69 615.056 1939.69 640.144C1939.69 665.232 1921.26 683.664 1895.15 683.664ZM1895.15 664.464C1909.35 664.464 1918.7 654.224 1918.7 640.144C1918.7 626.064 1909.35 615.824 1895.15 615.824C1880.94 615.824 1871.59 626.064 1871.59 640.144C1871.59 654.224 1880.94 664.464 1895.15 664.464ZM1952.58 682V598.288H1986.5C2008.64 598.288 2018.5 610.32 2018.5 626.96C2018.5 638.736 2013.5 648.336 2002.75 652.816L2021.57 682H1996.99L1982.14 655.76H1973.31V682H1952.58ZM1973.31 636.56H1986.75C1995.07 636.56 1997.5 632.464 1997.5 626.96C1997.5 621.456 1995.07 617.488 1986.75 617.488H1973.31V636.56ZM2030.41 682V631.824C2030.41 610.192 2043.21 596.624 2066.25 596.624C2089.29 596.624 2102.09 610.192 2102.09 631.824V682H2081.35V631.824C2081.35 621.584 2076.49 615.824 2066.25 615.824C2056.01 615.824 2051.14 621.584 2051.14 631.824V682H2030.41ZM2117.33 682V598.288H2179.15V617.488H2138.06V631.184H2171.73V647.824H2138.06V662.8H2179.15V682H2117.33Z" fill="#EFC24C"/>
<path d="M1748.58 396V312.288H1769.31V376.8H1808.86V396H1748.58ZM1820.83 396V312.288H1841.56V396H1820.83ZM1899.02 397.664C1872.91 397.664 1854.48 379.232 1854.48 354.144C1854.48 329.056 1872.91 310.624 1899.02 310.624C1921.42 310.624 1938.32 324.192 1942.54 344.032H1920.65C1917.33 335.456 1909.52 329.824 1899.02 329.824C1884.81 329.824 1875.47 340.064 1875.47 354.144C1875.47 368.224 1884.81 378.464 1899.02 378.464C1909.52 378.464 1917.33 372.832 1920.65 364.256H1942.54C1938.32 384.096 1921.42 397.664 1899.02 397.664ZM1995.15 397.664C1969.03 397.664 1950.6 379.232 1950.6 354.144C1950.6 329.056 1969.03 310.624 1995.15 310.624C2021.26 310.624 2039.69 329.056 2039.69 354.144C2039.69 379.232 2021.26 397.664 1995.15 397.664ZM1995.15 378.464C2009.35 378.464 2018.7 368.224 2018.7 354.144C2018.7 340.064 2009.35 329.824 1995.15 329.824C1980.94 329.824 1971.59 340.064 1971.59 354.144C1971.59 368.224 1980.94 378.464 1995.15 378.464ZM2052.58 396V312.288H2086.5C2108.64 312.288 2118.5 324.32 2118.5 340.96C2118.5 352.736 2113.5 362.336 2102.75 366.816L2121.57 396H2096.99L2082.14 369.76H2073.31V396H2052.58ZM2073.31 350.56H2086.75C2095.07 350.56 2097.5 346.464 2097.5 340.96C2097.5 335.456 2095.07 331.488 2086.75 331.488H2073.31V350.56ZM2130.41 396V345.824C2130.41 324.192 2143.21 310.624 2166.25 310.624C2189.29 310.624 2202.09 324.192 2202.09 345.824V396H2181.35V345.824C2181.35 335.584 2176.49 329.824 2166.25 329.824C2156.01 329.824 2151.14 335.584 2151.14 345.824V396H2130.41ZM2217.33 396V312.288H2279.15V331.488H2238.06V345.184H2271.73V361.824H2238.06V376.8H2279.15V396H2217.33Z" fill="#EFC24C"/>
<path d="M949.576 118V34.288H970.312V98.8H1009.86V118H949.576ZM1021.83 118V34.288H1042.56V118H1021.83ZM1100.02 119.664C1073.91 119.664 1055.48 101.232 1055.48 76.144C1055.48 51.056 1073.91 32.624 1100.02 32.624C1122.42 32.624 1139.32 46.192 1143.54 66.032H1121.65C1118.33 57.456 1110.52 51.824 1100.02 51.824C1085.81 51.824 1076.47 62.064 1076.47 76.144C1076.47 90.224 1085.81 100.464 1100.02 100.464C1110.52 100.464 1118.33 94.832 1121.65 86.256H1143.54C1139.32 106.096 1122.42 119.664 1100.02 119.664ZM1196.15 119.664C1170.03 119.664 1151.6 101.232 1151.6 76.144C1151.6 51.056 1170.03 32.624 1196.15 32.624C1222.26 32.624 1240.69 51.056 1240.69 76.144C1240.69 101.232 1222.26 119.664 1196.15 119.664ZM1196.15 100.464C1210.35 100.464 1219.7 90.224 1219.7 76.144C1219.7 62.064 1210.35 51.824 1196.15 51.824C1181.94 51.824 1172.59 62.064 1172.59 76.144C1172.59 90.224 1181.94 100.464 1196.15 100.464ZM1253.58 118V34.288H1287.5C1309.64 34.288 1319.5 46.32 1319.5 62.96C1319.5 74.736 1314.5 84.336 1303.75 88.816L1322.57 118H1297.99L1283.14 91.76H1274.31V118H1253.58ZM1274.31 72.56H1287.75C1296.07 72.56 1298.5 68.464 1298.5 62.96C1298.5 57.456 1296.07 53.488 1287.75 53.488H1274.31V72.56ZM1331.41 118V67.824C1331.41 46.192 1344.21 32.624 1367.25 32.624C1390.29 32.624 1403.09 46.192 1403.09 67.824V118H1382.35V67.824C1382.35 57.584 1377.49 51.824 1367.25 51.824C1357.01 51.824 1352.14 57.584 1352.14 67.824V118H1331.41ZM1418.33 118V34.288H1480.15V53.488H1439.06V67.184H1472.73V83.824H1439.06V98.8H1480.15V118H1418.33Z" fill="#588DA2"/>
<path d="M1069.58 702V618.288H1090.31V682.8H1129.86V702H1069.58ZM1141.83 702V618.288H1162.56V702H1141.83ZM1220.02 703.664C1193.91 703.664 1175.48 685.232 1175.48 660.144C1175.48 635.056 1193.91 616.624 1220.02 616.624C1242.42 616.624 1259.32 630.192 1263.54 650.032H1241.65C1238.33 641.456 1230.52 635.824 1220.02 635.824C1205.81 635.824 1196.47 646.064 1196.47 660.144C1196.47 674.224 1205.81 684.464 1220.02 684.464C1230.52 684.464 1238.33 678.832 1241.65 670.256H1263.54C1259.32 690.096 1242.42 703.664 1220.02 703.664ZM1316.15 703.664C1290.03 703.664 1271.6 685.232 1271.6 660.144C1271.6 635.056 1290.03 616.624 1316.15 616.624C1342.26 616.624 1360.69 635.056 1360.69 660.144C1360.69 685.232 1342.26 703.664 1316.15 703.664ZM1316.15 684.464C1330.35 684.464 1339.7 674.224 1339.7 660.144C1339.7 646.064 1330.35 635.824 1316.15 635.824C1301.94 635.824 1292.59 646.064 1292.59 660.144C1292.59 674.224 1301.94 684.464 1316.15 684.464ZM1373.58 702V618.288H1407.5C1429.64 618.288 1439.5 630.32 1439.5 646.96C1439.5 658.736 1434.5 668.336 1423.75 672.816L1442.57 702H1417.99L1403.14 675.76H1394.31V702H1373.58ZM1394.31 656.56H1407.75C1416.07 656.56 1418.5 652.464 1418.5 646.96C1418.5 641.456 1416.07 637.488 1407.75 637.488H1394.31V656.56ZM1451.41 702V651.824C1451.41 630.192 1464.21 616.624 1487.25 616.624C1510.29 616.624 1523.09 630.192 1523.09 651.824V702H1502.35V651.824C1502.35 641.584 1497.49 635.824 1487.25 635.824C1477.01 635.824 1472.14 641.584 1472.14 651.824V702H1451.41ZM1538.33 702V618.288H1600.15V637.488H1559.06V651.184H1592.73V667.824H1559.06V682.8H1600.15V702H1538.33Z" fill="#588DA2"/>
<path d="M1169.58 416V332.288H1190.31V396.8H1229.86V416H1169.58ZM1241.83 416V332.288H1262.56V416H1241.83ZM1320.02 417.664C1293.91 417.664 1275.48 399.232 1275.48 374.144C1275.48 349.056 1293.91 330.624 1320.02 330.624C1342.42 330.624 1359.32 344.192 1363.54 364.032H1341.65C1338.33 355.456 1330.52 349.824 1320.02 349.824C1305.81 349.824 1296.47 360.064 1296.47 374.144C1296.47 388.224 1305.81 398.464 1320.02 398.464C1330.52 398.464 1338.33 392.832 1341.65 384.256H1363.54C1359.32 404.096 1342.42 417.664 1320.02 417.664ZM1416.15 417.664C1390.03 417.664 1371.6 399.232 1371.6 374.144C1371.6 349.056 1390.03 330.624 1416.15 330.624C1442.26 330.624 1460.69 349.056 1460.69 374.144C1460.69 399.232 1442.26 417.664 1416.15 417.664ZM1416.15 398.464C1430.35 398.464 1439.7 388.224 1439.7 374.144C1439.7 360.064 1430.35 349.824 1416.15 349.824C1401.94 349.824 1392.59 360.064 1392.59 374.144C1392.59 388.224 1401.94 398.464 1416.15 398.464ZM1473.58 416V332.288H1507.5C1529.64 332.288 1539.5 344.32 1539.5 360.96C1539.5 372.736 1534.5 382.336 1523.75 386.816L1542.57 416H1517.99L1503.14 389.76H1494.31V416H1473.58ZM1494.31 370.56H1507.75C1516.07 370.56 1518.5 366.464 1518.5 360.96C1518.5 355.456 1516.07 351.488 1507.75 351.488H1494.31V370.56ZM1551.41 416V365.824C1551.41 344.192 1564.21 330.624 1587.25 330.624C1610.29 330.624 1623.09 344.192 1623.09 365.824V416H1602.35V365.824C1602.35 355.584 1597.49 349.824 1587.25 349.824C1577.01 349.824 1572.14 355.584 1572.14 365.824V416H1551.41ZM1638.33 416V332.288H1700.15V351.488H1659.06V365.184H1692.73V381.824H1659.06V396.8H1700.15V416H1638.33Z" fill="#588DA2"/>
<path d="M2119.58 118V34.288H2140.31V98.8H2179.86V118H2119.58ZM2191.83 118V34.288H2212.56V118H2191.83ZM2270.02 119.664C2243.91 119.664 2225.48 101.232 2225.48 76.144C2225.48 51.056 2243.91 32.624 2270.02 32.624C2292.42 32.624 2309.32 46.192 2313.54 66.032H2291.65C2288.33 57.456 2280.52 51.824 2270.02 51.824C2255.81 51.824 2246.47 62.064 2246.47 76.144C2246.47 90.224 2255.81 100.464 2270.02 100.464C2280.52 100.464 2288.33 94.832 2291.65 86.256H2313.54C2309.32 106.096 2292.42 119.664 2270.02 119.664ZM2366.15 119.664C2340.03 119.664 2321.6 101.232 2321.6 76.144C2321.6 51.056 2340.03 32.624 2366.15 32.624C2392.26 32.624 2410.69 51.056 2410.69 76.144C2410.69 101.232 2392.26 119.664 2366.15 119.664ZM2366.15 100.464C2380.35 100.464 2389.7 90.224 2389.7 76.144C2389.7 62.064 2380.35 51.824 2366.15 51.824C2351.94 51.824 2342.59 62.064 2342.59 76.144C2342.59 90.224 2351.94 100.464 2366.15 100.464ZM2423.58 118V34.288H2457.5C2479.64 34.288 2489.5 46.32 2489.5 62.96C2489.5 74.736 2484.5 84.336 2473.75 88.816L2492.57 118H2467.99L2453.14 91.76H2444.31V118H2423.58ZM2444.31 72.56H2457.75C2466.07 72.56 2468.5 68.464 2468.5 62.96C2468.5 57.456 2466.07 53.488 2457.75 53.488H2444.31V72.56ZM2501.41 118V67.824C2501.41 46.192 2514.21 32.624 2537.25 32.624C2560.29 32.624 2573.09 46.192 2573.09 67.824V118H2552.35V67.824C2552.35 57.584 2547.49 51.824 2537.25 51.824C2527.01 51.824 2522.14 57.584 2522.14 67.824V118H2501.41ZM2588.33 118V34.288H2650.15V53.488H2609.06V67.184H2642.73V83.824H2609.06V98.8H2650.15V118H2588.33Z" fill="#588DA2"/>
<path d="M2239.58 702V618.288H2260.31V682.8H2299.86V702H2239.58ZM2311.83 702V618.288H2332.56V702H2311.83ZM2390.02 703.664C2363.91 703.664 2345.48 685.232 2345.48 660.144C2345.48 635.056 2363.91 616.624 2390.02 616.624C2412.42 616.624 2429.32 630.192 2433.54 650.032H2411.65C2408.33 641.456 2400.52 635.824 2390.02 635.824C2375.81 635.824 2366.47 646.064 2366.47 660.144C2366.47 674.224 2375.81 684.464 2390.02 684.464C2400.52 684.464 2408.33 678.832 2411.65 670.256H2433.54C2429.32 690.096 2412.42 703.664 2390.02 703.664ZM2486.15 703.664C2460.03 703.664 2441.6 685.232 2441.6 660.144C2441.6 635.056 2460.03 616.624 2486.15 616.624C2512.26 616.624 2530.69 635.056 2530.69 660.144C2530.69 685.232 2512.26 703.664 2486.15 703.664ZM2486.15 684.464C2500.35 684.464 2509.7 674.224 2509.7 660.144C2509.7 646.064 2500.35 635.824 2486.15 635.824C2471.94 635.824 2462.59 646.064 2462.59 660.144C2462.59 674.224 2471.94 684.464 2486.15 684.464ZM2543.58 702V618.288H2577.5C2599.64 618.288 2609.5 630.32 2609.5 646.96C2609.5 658.736 2604.5 668.336 2593.75 672.816L2612.57 702H2587.99L2573.14 675.76H2564.31V702H2543.58ZM2564.31 656.56H2577.75C2586.07 656.56 2588.5 652.464 2588.5 646.96C2588.5 641.456 2586.07 637.488 2577.75 637.488H2564.31V656.56ZM2621.41 702V651.824C2621.41 630.192 2634.21 616.624 2657.25 616.624C2680.29 616.624 2693.09 630.192 2693.09 651.824V702H2672.35V651.824C2672.35 641.584 2667.49 635.824 2657.25 635.824C2647.01 635.824 2642.14 641.584 2642.14 651.824V702H2621.41ZM2708.33 702V618.288H2770.15V637.488H2729.06V651.184H2762.73V667.824H2729.06V682.8H2770.15V702H2708.33Z" fill="#588DA2"/>
<path d="M2339.58 416V332.288H2360.31V396.8H2399.86V416H2339.58ZM2411.83 416V332.288H2432.56V416H2411.83ZM2490.02 417.664C2463.91 417.664 2445.48 399.232 2445.48 374.144C2445.48 349.056 2463.91 330.624 2490.02 330.624C2512.42 330.624 2529.32 344.192 2533.54 364.032H2511.65C2508.33 355.456 2500.52 349.824 2490.02 349.824C2475.81 349.824 2466.47 360.064 2466.47 374.144C2466.47 388.224 2475.81 398.464 2490.02 398.464C2500.52 398.464 2508.33 392.832 2511.65 384.256H2533.54C2529.32 404.096 2512.42 417.664 2490.02 417.664ZM2586.15 417.664C2560.03 417.664 2541.6 399.232 2541.6 374.144C2541.6 349.056 2560.03 330.624 2586.15 330.624C2612.26 330.624 2630.69 349.056 2630.69 374.144C2630.69 399.232 2612.26 417.664 2586.15 417.664ZM2586.15 398.464C2600.35 398.464 2609.7 388.224 2609.7 374.144C2609.7 360.064 2600.35 349.824 2586.15 349.824C2571.94 349.824 2562.59 360.064 2562.59 374.144C2562.59 388.224 2571.94 398.464 2586.15 398.464ZM2643.58 416V332.288H2677.5C2699.64 332.288 2709.5 344.32 2709.5 360.96C2709.5 372.736 2704.5 382.336 2693.75 386.816L2712.57 416H2687.99L2673.14 389.76H2664.31V416H2643.58ZM2664.31 370.56H2677.75C2686.07 370.56 2688.5 366.464 2688.5 360.96C2688.5 355.456 2686.07 351.488 2677.75 351.488H2664.31V370.56ZM2721.41 416V365.824C2721.41 344.192 2734.21 330.624 2757.25 330.624C2780.29 330.624 2793.09 344.192 2793.09 365.824V416H2772.35V365.824C2772.35 355.584 2767.49 349.824 2757.25 349.824C2747.01 349.824 2742.14 355.584 2742.14 365.824V416H2721.41ZM2808.33 416V332.288H2870.15V351.488H2829.06V365.184H2862.73V381.824H2829.06V396.8H2870.15V416H2808.33Z" fill="#588DA2"/>
<path d="M-234.424 118V34.288H-213.688V98.8H-174.136V118H-234.424ZM-162.174 118V34.288H-141.438V118H-162.174ZM-83.979 119.664C-110.091 119.664 -128.523 101.232 -128.523 76.144C-128.523 51.056 -110.091 32.624 -83.979 32.624C-61.579 32.624 -44.683 46.192 -40.459 66.032H-62.347C-65.675 57.456 -73.483 51.824 -83.979 51.824C-98.187 51.824 -107.531 62.064 -107.531 76.144C-107.531 90.224 -98.187 100.464 -83.979 100.464C-73.483 100.464 -65.675 94.832 -62.347 86.256H-40.459C-44.683 106.096 -61.579 119.664 -83.979 119.664ZM12.146 119.664C-13.966 119.664 -32.398 101.232 -32.398 76.144C-32.398 51.056 -13.966 32.624 12.146 32.624C38.258 32.624 56.69 51.056 56.69 76.144C56.69 101.232 38.258 119.664 12.146 119.664ZM12.146 100.464C26.354 100.464 35.698 90.224 35.698 76.144C35.698 62.064 26.354 51.824 12.146 51.824C-2.062 51.824 -11.406 62.064 -11.406 76.144C-11.406 90.224 -2.062 100.464 12.146 100.464ZM69.576 118V34.288H103.496C125.64 34.288 135.496 46.32 135.496 62.96C135.496 74.736 130.504 84.336 119.752 88.816L138.568 118H113.992L99.144 91.76H90.312V118H69.576ZM90.312 72.56H103.752C112.072 72.56 114.504 68.464 114.504 62.96C114.504 57.456 112.072 53.488 103.752 53.488H90.312V72.56ZM147.406 118V67.824C147.406 46.192 160.206 32.624 183.246 32.624C206.286 32.624 219.086 46.192 219.086 67.824V118H198.35V67.824C198.35 57.584 193.486 51.824 183.246 51.824C173.006 51.824 168.142 57.584 168.142 67.824V118H147.406ZM234.326 118V34.288H296.15V53.488H255.062V67.184H288.726V83.824H255.062V98.8H296.15V118H234.326Z" fill="#588DA2"/>
<path d="M-114.424 702V618.288H-93.688V682.8H-54.136V702H-114.424ZM-42.174 702V618.288H-21.438V702H-42.174ZM36.021 703.664C9.909 703.664 -8.523 685.232 -8.523 660.144C-8.523 635.056 9.909 616.624 36.021 616.624C58.421 616.624 75.317 630.192 79.541 650.032H57.653C54.325 641.456 46.517 635.824 36.021 635.824C21.813 635.824 12.469 646.064 12.469 660.144C12.469 674.224 21.813 684.464 36.021 684.464C46.517 684.464 54.325 678.832 57.653 670.256H79.541C75.317 690.096 58.421 703.664 36.021 703.664ZM132.146 703.664C106.034 703.664 87.602 685.232 87.602 660.144C87.602 635.056 106.034 616.624 132.146 616.624C158.258 616.624 176.69 635.056 176.69 660.144C176.69 685.232 158.258 703.664 132.146 703.664ZM132.146 684.464C146.354 684.464 155.698 674.224 155.698 660.144C155.698 646.064 146.354 635.824 132.146 635.824C117.938 635.824 108.594 646.064 108.594 660.144C108.594 674.224 117.938 684.464 132.146 684.464ZM189.576 702V618.288H223.496C245.64 618.288 255.496 630.32 255.496 646.96C255.496 658.736 250.504 668.336 239.752 672.816L258.568 702H233.992L219.144 675.76H210.312V702H189.576ZM210.312 656.56H223.752C232.072 656.56 234.504 652.464 234.504 646.96C234.504 641.456 232.072 637.488 223.752 637.488H210.312V656.56ZM267.406 702V651.824C267.406 630.192 280.206 616.624 303.246 616.624C326.286 616.624 339.086 630.192 339.086 651.824V702H318.35V651.824C318.35 641.584 313.486 635.824 303.246 635.824C293.006 635.824 288.142 641.584 288.142 651.824V702H267.406ZM354.326 702V618.288H416.15V637.488H375.062V651.184H408.726V667.824H375.062V682.8H416.15V702H354.326Z" fill="#588DA2"/>
<path d="M-14.424 416V332.288H6.312V396.8H45.864V416H-14.424ZM57.826 416V332.288H78.562V416H57.826ZM136.021 417.664C109.909 417.664 91.477 399.232 91.477 374.144C91.477 349.056 109.909 330.624 136.021 330.624C158.421 330.624 175.317 344.192 179.541 364.032H157.653C154.325 355.456 146.517 349.824 136.021 349.824C121.813 349.824 112.469 360.064 112.469 374.144C112.469 388.224 121.813 398.464 136.021 398.464C146.517 398.464 154.325 392.832 157.653 384.256H179.541C175.317 404.096 158.421 417.664 136.021 417.664ZM232.146 417.664C206.034 417.664 187.602 399.232 187.602 374.144C187.602 349.056 206.034 330.624 232.146 330.624C258.258 330.624 276.69 349.056 276.69 374.144C276.69 399.232 258.258 417.664 232.146 417.664ZM232.146 398.464C246.354 398.464 255.698 388.224 255.698 374.144C255.698 360.064 246.354 349.824 232.146 349.824C217.938 349.824 208.594 360.064 208.594 374.144C208.594 388.224 217.938 398.464 232.146 398.464ZM289.576 416V332.288H323.496C345.64 332.288 355.496 344.32 355.496 360.96C355.496 372.736 350.504 382.336 339.752 386.816L358.568 416H333.992L319.144 389.76H310.312V416H289.576ZM310.312 370.56H323.752C332.072 370.56 334.504 366.464 334.504 360.96C334.504 355.456 332.072 351.488 323.752 351.488H310.312V370.56ZM367.406 416V365.824C367.406 344.192 380.206 330.624 403.246 330.624C426.286 330.624 439.086 344.192 439.086 365.824V416H418.35V365.824C418.35 355.584 413.486 349.824 403.246 349.824C393.006 349.824 388.142 355.584 388.142 365.824V416H367.406ZM454.326 416V332.288H516.15V351.488H475.062V365.184H508.726V381.824H475.062V396.8H516.15V416H454.326Z" fill="#588DA2"/>
<path d="M950.576 103V19.288H971.312V83.8H1010.86V103H950.576ZM1022.83 103V19.288H1043.56V103H1022.83ZM1101.02 104.664C1074.91 104.664 1056.48 86.232 1056.48 61.144C1056.48 36.056 1074.91 17.624 1101.02 17.624C1123.42 17.624 1140.32 31.192 1144.54 51.032H1122.65C1119.33 42.456 1111.52 36.824 1101.02 36.824C1086.81 36.824 1077.47 47.064 1077.47 61.144C1077.47 75.224 1086.81 85.464 1101.02 85.464C1111.52 85.464 1119.33 79.832 1122.65 71.256H1144.54C1140.32 91.096 1123.42 104.664 1101.02 104.664ZM1197.15 104.664C1171.03 104.664 1152.6 86.232 1152.6 61.144C1152.6 36.056 1171.03 17.624 1197.15 17.624C1223.26 17.624 1241.69 36.056 1241.69 61.144C1241.69 86.232 1223.26 104.664 1197.15 104.664ZM1197.15 85.464C1211.35 85.464 1220.7 75.224 1220.7 61.144C1220.7 47.064 1211.35 36.824 1197.15 36.824C1182.94 36.824 1173.59 47.064 1173.59 61.144C1173.59 75.224 1182.94 85.464 1197.15 85.464ZM1254.58 103V19.288H1288.5C1310.64 19.288 1320.5 31.32 1320.5 47.96C1320.5 59.736 1315.5 69.336 1304.75 73.816L1323.57 103H1298.99L1284.14 76.76H1275.31V103H1254.58ZM1275.31 57.56H1288.75C1297.07 57.56 1299.5 53.464 1299.5 47.96C1299.5 42.456 1297.07 38.488 1288.75 38.488H1275.31V57.56ZM1332.41 103V52.824C1332.41 31.192 1345.21 17.624 1368.25 17.624C1391.29 17.624 1404.09 31.192 1404.09 52.824V103H1383.35V52.824C1383.35 42.584 1378.49 36.824 1368.25 36.824C1358.01 36.824 1353.14 42.584 1353.14 52.824V103H1332.41ZM1419.33 103V19.288H1481.15V38.488H1440.06V52.184H1473.73V68.824H1440.06V83.8H1481.15V103H1419.33Z" fill="#A6D2D3"/>
<path d="M1070.58 687V603.288H1091.31V667.8H1130.86V687H1070.58ZM1142.83 687V603.288H1163.56V687H1142.83ZM1221.02 688.664C1194.91 688.664 1176.48 670.232 1176.48 645.144C1176.48 620.056 1194.91 601.624 1221.02 601.624C1243.42 601.624 1260.32 615.192 1264.54 635.032H1242.65C1239.33 626.456 1231.52 620.824 1221.02 620.824C1206.81 620.824 1197.47 631.064 1197.47 645.144C1197.47 659.224 1206.81 669.464 1221.02 669.464C1231.52 669.464 1239.33 663.832 1242.65 655.256H1264.54C1260.32 675.096 1243.42 688.664 1221.02 688.664ZM1317.15 688.664C1291.03 688.664 1272.6 670.232 1272.6 645.144C1272.6 620.056 1291.03 601.624 1317.15 601.624C1343.26 601.624 1361.69 620.056 1361.69 645.144C1361.69 670.232 1343.26 688.664 1317.15 688.664ZM1317.15 669.464C1331.35 669.464 1340.7 659.224 1340.7 645.144C1340.7 631.064 1331.35 620.824 1317.15 620.824C1302.94 620.824 1293.59 631.064 1293.59 645.144C1293.59 659.224 1302.94 669.464 1317.15 669.464ZM1374.58 687V603.288H1408.5C1430.64 603.288 1440.5 615.32 1440.5 631.96C1440.5 643.736 1435.5 653.336 1424.75 657.816L1443.57 687H1418.99L1404.14 660.76H1395.31V687H1374.58ZM1395.31 641.56H1408.75C1417.07 641.56 1419.5 637.464 1419.5 631.96C1419.5 626.456 1417.07 622.488 1408.75 622.488H1395.31V641.56ZM1452.41 687V636.824C1452.41 615.192 1465.21 601.624 1488.25 601.624C1511.29 601.624 1524.09 615.192 1524.09 636.824V687H1503.35V636.824C1503.35 626.584 1498.49 620.824 1488.25 620.824C1478.01 620.824 1473.14 626.584 1473.14 636.824V687H1452.41ZM1539.33 687V603.288H1601.15V622.488H1560.06V636.184H1593.73V652.824H1560.06V667.8H1601.15V687H1539.33Z" fill="#A6D2D3"/>
<path d="M1170.58 401V317.288H1191.31V381.8H1230.86V401H1170.58ZM1242.83 401V317.288H1263.56V401H1242.83ZM1321.02 402.664C1294.91 402.664 1276.48 384.232 1276.48 359.144C1276.48 334.056 1294.91 315.624 1321.02 315.624C1343.42 315.624 1360.32 329.192 1364.54 349.032H1342.65C1339.33 340.456 1331.52 334.824 1321.02 334.824C1306.81 334.824 1297.47 345.064 1297.47 359.144C1297.47 373.224 1306.81 383.464 1321.02 383.464C1331.52 383.464 1339.33 377.832 1342.65 369.256H1364.54C1360.32 389.096 1343.42 402.664 1321.02 402.664ZM1417.15 402.664C1391.03 402.664 1372.6 384.232 1372.6 359.144C1372.6 334.056 1391.03 315.624 1417.15 315.624C1443.26 315.624 1461.69 334.056 1461.69 359.144C1461.69 384.232 1443.26 402.664 1417.15 402.664ZM1417.15 383.464C1431.35 383.464 1440.7 373.224 1440.7 359.144C1440.7 345.064 1431.35 334.824 1417.15 334.824C1402.94 334.824 1393.59 345.064 1393.59 359.144C1393.59 373.224 1402.94 383.464 1417.15 383.464ZM1474.58 401V317.288H1508.5C1530.64 317.288 1540.5 329.32 1540.5 345.96C1540.5 357.736 1535.5 367.336 1524.75 371.816L1543.57 401H1518.99L1504.14 374.76H1495.31V401H1474.58ZM1495.31 355.56H1508.75C1517.07 355.56 1519.5 351.464 1519.5 345.96C1519.5 340.456 1517.07 336.488 1508.75 336.488H1495.31V355.56ZM1552.41 401V350.824C1552.41 329.192 1565.21 315.624 1588.25 315.624C1611.29 315.624 1624.09 329.192 1624.09 350.824V401H1603.35V350.824C1603.35 340.584 1598.49 334.824 1588.25 334.824C1578.01 334.824 1573.14 340.584 1573.14 350.824V401H1552.41ZM1639.33 401V317.288H1701.15V336.488H1660.06V350.184H1693.73V366.824H1660.06V381.8H1701.15V401H1639.33Z" fill="#A6D2D3"/>
<path d="M2120.58 103V19.288H2141.31V83.8H2180.86V103H2120.58ZM2192.83 103V19.288H2213.56V103H2192.83ZM2271.02 104.664C2244.91 104.664 2226.48 86.232 2226.48 61.144C2226.48 36.056 2244.91 17.624 2271.02 17.624C2293.42 17.624 2310.32 31.192 2314.54 51.032H2292.65C2289.33 42.456 2281.52 36.824 2271.02 36.824C2256.81 36.824 2247.47 47.064 2247.47 61.144C2247.47 75.224 2256.81 85.464 2271.02 85.464C2281.52 85.464 2289.33 79.832 2292.65 71.256H2314.54C2310.32 91.096 2293.42 104.664 2271.02 104.664ZM2367.15 104.664C2341.03 104.664 2322.6 86.232 2322.6 61.144C2322.6 36.056 2341.03 17.624 2367.15 17.624C2393.26 17.624 2411.69 36.056 2411.69 61.144C2411.69 86.232 2393.26 104.664 2367.15 104.664ZM2367.15 85.464C2381.35 85.464 2390.7 75.224 2390.7 61.144C2390.7 47.064 2381.35 36.824 2367.15 36.824C2352.94 36.824 2343.59 47.064 2343.59 61.144C2343.59 75.224 2352.94 85.464 2367.15 85.464ZM2424.58 103V19.288H2458.5C2480.64 19.288 2490.5 31.32 2490.5 47.96C2490.5 59.736 2485.5 69.336 2474.75 73.816L2493.57 103H2468.99L2454.14 76.76H2445.31V103H2424.58ZM2445.31 57.56H2458.75C2467.07 57.56 2469.5 53.464 2469.5 47.96C2469.5 42.456 2467.07 38.488 2458.75 38.488H2445.31V57.56ZM2502.41 103V52.824C2502.41 31.192 2515.21 17.624 2538.25 17.624C2561.29 17.624 2574.09 31.192 2574.09 52.824V103H2553.35V52.824C2553.35 42.584 2548.49 36.824 2538.25 36.824C2528.01 36.824 2523.14 42.584 2523.14 52.824V103H2502.41ZM2589.33 103V19.288H2651.15V38.488H2610.06V52.184H2643.73V68.824H2610.06V83.8H2651.15V103H2589.33Z" fill="#A6D2D3"/>
<path d="M2240.58 687V603.288H2261.31V667.8H2300.86V687H2240.58ZM2312.83 687V603.288H2333.56V687H2312.83ZM2391.02 688.664C2364.91 688.664 2346.48 670.232 2346.48 645.144C2346.48 620.056 2364.91 601.624 2391.02 601.624C2413.42 601.624 2430.32 615.192 2434.54 635.032H2412.65C2409.33 626.456 2401.52 620.824 2391.02 620.824C2376.81 620.824 2367.47 631.064 2367.47 645.144C2367.47 659.224 2376.81 669.464 2391.02 669.464C2401.52 669.464 2409.33 663.832 2412.65 655.256H2434.54C2430.32 675.096 2413.42 688.664 2391.02 688.664ZM2487.15 688.664C2461.03 688.664 2442.6 670.232 2442.6 645.144C2442.6 620.056 2461.03 601.624 2487.15 601.624C2513.26 601.624 2531.69 620.056 2531.69 645.144C2531.69 670.232 2513.26 688.664 2487.15 688.664ZM2487.15 669.464C2501.35 669.464 2510.7 659.224 2510.7 645.144C2510.7 631.064 2501.35 620.824 2487.15 620.824C2472.94 620.824 2463.59 631.064 2463.59 645.144C2463.59 659.224 2472.94 669.464 2487.15 669.464ZM2544.58 687V603.288H2578.5C2600.64 603.288 2610.5 615.32 2610.5 631.96C2610.5 643.736 2605.5 653.336 2594.75 657.816L2613.57 687H2588.99L2574.14 660.76H2565.31V687H2544.58ZM2565.31 641.56H2578.75C2587.07 641.56 2589.5 637.464 2589.5 631.96C2589.5 626.456 2587.07 622.488 2578.75 622.488H2565.31V641.56ZM2622.41 687V636.824C2622.41 615.192 2635.21 601.624 2658.25 601.624C2681.29 601.624 2694.09 615.192 2694.09 636.824V687H2673.35V636.824C2673.35 626.584 2668.49 620.824 2658.25 620.824C2648.01 620.824 2643.14 626.584 2643.14 636.824V687H2622.41ZM2709.33 687V603.288H2771.15V622.488H2730.06V636.184H2763.73V652.824H2730.06V667.8H2771.15V687H2709.33Z" fill="#A6D2D3"/>
<path d="M2340.58 401V317.288H2361.31V381.8H2400.86V401H2340.58ZM2412.83 401V317.288H2433.56V401H2412.83ZM2491.02 402.664C2464.91 402.664 2446.48 384.232 2446.48 359.144C2446.48 334.056 2464.91 315.624 2491.02 315.624C2513.42 315.624 2530.32 329.192 2534.54 349.032H2512.65C2509.33 340.456 2501.52 334.824 2491.02 334.824C2476.81 334.824 2467.47 345.064 2467.47 359.144C2467.47 373.224 2476.81 383.464 2491.02 383.464C2501.52 383.464 2509.33 377.832 2512.65 369.256H2534.54C2530.32 389.096 2513.42 402.664 2491.02 402.664ZM2587.15 402.664C2561.03 402.664 2542.6 384.232 2542.6 359.144C2542.6 334.056 2561.03 315.624 2587.15 315.624C2613.26 315.624 2631.69 334.056 2631.69 359.144C2631.69 384.232 2613.26 402.664 2587.15 402.664ZM2587.15 383.464C2601.35 383.464 2610.7 373.224 2610.7 359.144C2610.7 345.064 2601.35 334.824 2587.15 334.824C2572.94 334.824 2563.59 345.064 2563.59 359.144C2563.59 373.224 2572.94 383.464 2587.15 383.464ZM2644.58 401V317.288H2678.5C2700.64 317.288 2710.5 329.32 2710.5 345.96C2710.5 357.736 2705.5 367.336 2694.75 371.816L2713.57 401H2688.99L2674.14 374.76H2665.31V401H2644.58ZM2665.31 355.56H2678.75C2687.07 355.56 2689.5 351.464 2689.5 345.96C2689.5 340.456 2687.07 336.488 2678.75 336.488H2665.31V355.56ZM2722.41 401V350.824C2722.41 329.192 2735.21 315.624 2758.25 315.624C2781.29 315.624 2794.09 329.192 2794.09 350.824V401H2773.35V350.824C2773.35 340.584 2768.49 334.824 2758.25 334.824C2748.01 334.824 2743.14 340.584 2743.14 350.824V401H2722.41ZM2809.33 401V317.288H2871.15V336.488H2830.06V350.184H2863.73V366.824H2830.06V381.8H2871.15V401H2809.33Z" fill="#A6D2D3"/>
<path d="M-233.424 103V19.288H-212.688V83.8H-173.136V103H-233.424ZM-161.174 103V19.288H-140.438V103H-161.174ZM-82.979 104.664C-109.091 104.664 -127.523 86.232 -127.523 61.144C-127.523 36.056 -109.091 17.624 -82.979 17.624C-60.579 17.624 -43.683 31.192 -39.459 51.032H-61.347C-64.675 42.456 -72.483 36.824 -82.979 36.824C-97.187 36.824 -106.531 47.064 -106.531 61.144C-106.531 75.224 -97.187 85.464 -82.979 85.464C-72.483 85.464 -64.675 79.832 -61.347 71.256H-39.459C-43.683 91.096 -60.579 104.664 -82.979 104.664ZM13.146 104.664C-12.966 104.664 -31.398 86.232 -31.398 61.144C-31.398 36.056 -12.966 17.624 13.146 17.624C39.258 17.624 57.69 36.056 57.69 61.144C57.69 86.232 39.258 104.664 13.146 104.664ZM13.146 85.464C27.354 85.464 36.698 75.224 36.698 61.144C36.698 47.064 27.354 36.824 13.146 36.824C-1.062 36.824 -10.406 47.064 -10.406 61.144C-10.406 75.224 -1.062 85.464 13.146 85.464ZM70.576 103V19.288H104.496C126.64 19.288 136.496 31.32 136.496 47.96C136.496 59.736 131.504 69.336 120.752 73.816L139.568 103H114.992L100.144 76.76H91.312V103H70.576ZM91.312 57.56H104.752C113.072 57.56 115.504 53.464 115.504 47.96C115.504 42.456 113.072 38.488 104.752 38.488H91.312V57.56ZM148.406 103V52.824C148.406 31.192 161.206 17.624 184.246 17.624C207.286 17.624 220.086 31.192 220.086 52.824V103H199.35V52.824C199.35 42.584 194.486 36.824 184.246 36.824C174.006 36.824 169.142 42.584 169.142 52.824V103H148.406ZM235.326 103V19.288H297.15V38.488H256.062V52.184H289.726V68.824H256.062V83.8H297.15V103H235.326Z" fill="#A6D2D3"/>
<path d="M-113.424 687V603.288H-92.688V667.8H-53.136V687H-113.424ZM-41.174 687V603.288H-20.438V687H-41.174ZM37.021 688.664C10.909 688.664 -7.523 670.232 -7.523 645.144C-7.523 620.056 10.909 601.624 37.021 601.624C59.421 601.624 76.317 615.192 80.541 635.032H58.653C55.325 626.456 47.517 620.824 37.021 620.824C22.813 620.824 13.469 631.064 13.469 645.144C13.469 659.224 22.813 669.464 37.021 669.464C47.517 669.464 55.325 663.832 58.653 655.256H80.541C76.317 675.096 59.421 688.664 37.021 688.664ZM133.146 688.664C107.034 688.664 88.602 670.232 88.602 645.144C88.602 620.056 107.034 601.624 133.146 601.624C159.258 601.624 177.69 620.056 177.69 645.144C177.69 670.232 159.258 688.664 133.146 688.664ZM133.146 669.464C147.354 669.464 156.698 659.224 156.698 645.144C156.698 631.064 147.354 620.824 133.146 620.824C118.938 620.824 109.594 631.064 109.594 645.144C109.594 659.224 118.938 669.464 133.146 669.464ZM190.576 687V603.288H224.496C246.64 603.288 256.496 615.32 256.496 631.96C256.496 643.736 251.504 653.336 240.752 657.816L259.568 687H234.992L220.144 660.76H211.312V687H190.576ZM211.312 641.56H224.752C233.072 641.56 235.504 637.464 235.504 631.96C235.504 626.456 233.072 622.488 224.752 622.488H211.312V641.56ZM268.406 687V636.824C268.406 615.192 281.206 601.624 304.246 601.624C327.286 601.624 340.086 615.192 340.086 636.824V687H319.35V636.824C319.35 626.584 314.486 620.824 304.246 620.824C294.006 620.824 289.142 626.584 289.142 636.824V687H268.406ZM355.326 687V603.288H417.15V622.488H376.062V636.184H409.726V652.824H376.062V667.8H417.15V687H355.326Z" fill="#A6D2D3"/>
<path d="M-13.424 401V317.288H7.312V381.8H46.864V401H-13.424ZM58.826 401V317.288H79.562V401H58.826ZM137.021 402.664C110.909 402.664 92.477 384.232 92.477 359.144C92.477 334.056 110.909 315.624 137.021 315.624C159.421 315.624 176.317 329.192 180.541 349.032H158.653C155.325 340.456 147.517 334.824 137.021 334.824C122.813 334.824 113.469 345.064 113.469 359.144C113.469 373.224 122.813 383.464 137.021 383.464C147.517 383.464 155.325 377.832 158.653 369.256H180.541C176.317 389.096 159.421 402.664 137.021 402.664ZM233.146 402.664C207.034 402.664 188.602 384.232 188.602 359.144C188.602 334.056 207.034 315.624 233.146 315.624C259.258 315.624 277.69 334.056 277.69 359.144C277.69 384.232 259.258 402.664 233.146 402.664ZM233.146 383.464C247.354 383.464 256.698 373.224 256.698 359.144C256.698 345.064 247.354 334.824 233.146 334.824C218.938 334.824 209.594 345.064 209.594 359.144C209.594 373.224 218.938 383.464 233.146 383.464ZM290.576 401V317.288H324.496C346.64 317.288 356.496 329.32 356.496 345.96C356.496 357.736 351.504 367.336 340.752 371.816L359.568 401H334.992L320.144 374.76H311.312V401H290.576ZM311.312 355.56H324.752C333.072 355.56 335.504 351.464 335.504 345.96C335.504 340.456 333.072 336.488 324.752 336.488H311.312V355.56ZM368.406 401V350.824C368.406 329.192 381.206 315.624 404.246 315.624C427.286 315.624 440.086 329.192 440.086 350.824V401H419.35V350.824C419.35 340.584 414.486 334.824 404.246 334.824C394.006 334.824 389.142 340.584 389.142 350.824V401H368.406ZM455.326 401V317.288H517.15V336.488H476.062V350.184H509.726V366.824H476.062V381.8H517.15V401H455.326Z" fill="#A6D2D3"/>
</g>
<defs>
<clipPath id="clip0_129_633">
<rect width="2377" height="723" fill="white"/>
</clipPath>
</defs>
</svg>
